<svg width="50" height="50" viewBox="0 0 50 50" fill="none" xmlns="http://www.w3.org/2000/svg">
<path d="M50 25C50 38.8071 38.8071 50 25 50C11.1929 50 0 38.8071 0 25C0 11.1929 11.1929 0 25 0C38.8071 0 50 11.1929 50 25Z" fill="#8E9FA6" fill-opacity="0.2"/>
<path d="M25.3497 0.00232275C11.2903 -0.187563 -0.187572 11.2897 0.00232286 25.3485C0.189814 38.8316 11.1689 49.8101 24.6526 49.9976C38.7145 50.1899 50.1899 38.7126 49.9976 24.6538C49.8125 11.1683 38.8335 0.189805 25.3497 0.00232275ZM40.5437 39.3316C40.4958 39.3833 40.4372 39.4239 40.3718 39.4505C40.3065 39.4771 40.2362 39.4889 40.1657 39.4852C40.0953 39.4816 40.0266 39.4625 39.9644 39.4293C39.9021 39.396 39.848 39.3496 39.8058 39.2931C38.7308 37.8867 37.4143 36.6825 35.9177 35.7369C32.8578 33.7732 28.9806 32.6916 25.0012 32.6916C21.0218 32.6916 17.1446 33.7732 14.0846 35.7369C12.5881 36.6821 11.2716 37.8858 10.1966 39.2919C10.1543 39.3484 10.1002 39.3948 10.038 39.4281C9.97577 39.4613 9.90702 39.4804 9.8366 39.484C9.76618 39.4877 9.69582 39.4758 9.63049 39.4493C9.56517 39.4227 9.50649 39.3821 9.45862 39.3303C5.93195 35.5235 3.93423 30.5491 3.8483 25.3605C3.65239 13.6657 13.2493 3.87696 24.9495 3.84811C36.6497 3.81927 46.154 13.3196 46.154 25C46.1581 30.3137 44.1542 35.4327 40.5437 39.3316Z" fill="white"/>
<path d="M25.0012 11.5397C22.6311 11.5397 20.4882 12.4278 18.9654 14.0419C17.4426 15.6559 16.6818 17.8877 16.8537 20.2829C17.2023 25 20.8571 28.8458 25.0012 28.8458C29.1452 28.8458 32.7929 25 33.1486 20.2841C33.3265 17.9117 32.5717 15.7004 31.0237 14.0563C29.4949 12.4338 27.3556 11.5397 25.0012 11.5397Z" fill="white"/>
</svg>
