<?xml version="1.0" standalone="no"?>
  <!DOCTYPE svg PUBLIC "-//W3C//DTD SVG 1.1//EN" "http://www.w3.org/Graphics/SVG/1.1/DTD/svg11.dtd" >
  <svg>
  <metadata>
  Created by font-carrier
  </metadata>
  <defs>
  <font id="MuseoSansCyrl-100Italic" horiz-adv-x="1130" vert-adv-y="1130" >
    <font-face
      
      font-family="Museo Sans Cyrl 100"
      
      font-weight="400"
      
      font-stretch="normal"
      
      units-per-em="1000"
      
      ascent="940"
      
      descent="-260"
      
    />
      <missing-glyph />

      

      
      <glyph glyph-name="uni21" unicode="&#x21;" d="M80 175L183 700L226 700L123 175L80 175M38 0L51 61L110 61L97 0L38 0Z"  horiz-adv-x="250" vert-adv-y="1000"  />

      
      <glyph glyph-name="uni22" unicode="&#x22;" d="M239 558L268 709L311 709L282 558L239 558M135 558L164 709L207 709L178 558L135 558Z"  horiz-adv-x="314" vert-adv-y="1000"  />

      
      <glyph glyph-name="uni23" unicode="&#x23;" d="M108 0L182 199L31 199L46 239L197 239L279 460L128 460L143 500L294 500L368 700L412 700L338 500L527 500L601 700L645 700L571 500L719 500L704 460L556 460L474 239L622 239L607 199L459 199L385 0L341 0L415 199L226 199L152 0L108 0M241 239L430 239L512 460L323 460L241 239Z"  horiz-adv-x="728" vert-adv-y="1000"  />

      
      <glyph glyph-name="uni24" unicode="&#x24;" d="M29 75L60 106Q126 30 231 30Q310 30 366 72.50Q422 115 422 186Q422 228 400 259Q378 290 345.50 307.50Q313 325 274.50 345.50Q236 366 203.50 384.50Q171 403 149 438Q127 473 127 519Q127 602 191 653.50Q255 705 345 711L364 805L407 805L389 711Q480 703 538 645L510 612Q486 639 445.50 654.50Q405 670 365 670Q290 670 231 629.50Q172 589 172 521Q172 476 202.50 444Q233 412 276.50 391.50Q320 371 363 348.50Q406 326 436.50 286.50Q467 247 467 190Q467 105 405.50 49.50Q344-6 248-11L230-104L187-104L205-11Q156-7 108 15.50Q60 38 29 75Z"  horiz-adv-x="560" vert-adv-y="1000"  />

      
      <glyph glyph-name="uni25" unicode="&#x25;" d="M229 451Q177 451 146 482Q115 513 115 566Q115 621 162 666.50Q209 712 268 712Q319 712 350 681Q381 650 381 599Q381 541 334.50 496Q288 451 229 451M4 0L666 700L723 700L60 0L4 0M231 491Q273 491 305.50 523.50Q338 556 338 600Q338 631 318 651.50Q298 672 266 672Q224 672 191 639Q158 606 158 563Q158 532 178 511.50Q198 491 231 491M341 103Q341 158 388 203.50Q435 249 494 249Q545 249 576 218Q607 187 607 136Q607 78 560.50 33Q514-12 455-12Q403-12 372 19Q341 50 341 103M384 100Q384 69 404 48.50Q424 28 457 28Q499 28 531.50 60.50Q564 93 564 137Q564 168 544 188.50Q524 209 492 209Q450 209 417 176Q384 143 384 100Z"  horiz-adv-x="701" vert-adv-y="1000"  />

      
      <glyph glyph-name="uni26" unicode="&#x26;" d="M41 160Q41 234 89 296.50Q137 359 214 379L214 381Q211 382 206 384Q201 386 188 396Q175 406 165 418.50Q155 431 147 454.50Q139 478 139 507Q139 594 204.50 653Q270 712 371 712Q410 712 452 701L432 664Q394 672 370 672Q293 672 239 626Q185 580 185 507Q185 460 215.50 429Q246 398 332 398L495 398L515 500L558 500L538 398L635 398L627 358L530 358L508 246Q457-12 243-12Q148-12 94.50 35Q41 82 41 160M86 160Q86 103 127.50 66.50Q169 30 243 30Q422 30 465 246L487 358L326 358Q225 358 155.50 305.50Q86 253 86 160Z"  horiz-adv-x="655" vert-adv-y="1000"  />

      
      <glyph glyph-name="uni27" unicode="&#x27;" d="M135 558L164 709L207 709L178 558L135 558Z"  horiz-adv-x="210" vert-adv-y="1000"  />

      
      <glyph glyph-name="uni28" unicode="&#x28;" d="M99-95Q53 30 53 168Q53 474 254 725L300 725Q94 463 94 167Q94 31 141-95L99-95Z"  horiz-adv-x="264" vert-adv-y="1000"  />

      
      <glyph glyph-name="uni29" unicode="&#x29;" d="M-27-95Q179 167 179 463Q179 599 132 725L174 725Q220 600 220 462Q220 156 19-95L-27-95Z"  horiz-adv-x="265" vert-adv-y="1000"  />

      
      <glyph glyph-name="uni2a" unicode="&#x2a;" d="M161 344L128 370L253 502L108 549L129 590L273 536L300 700L347 700L310 536L477 589L483 547L315 498L387 368L350 343L281 478L161 344Z"  horiz-adv-x="494" vert-adv-y="1000"  />

      
      <glyph glyph-name="uni2b" unicode="&#x2b;" d="M201 0L253 263L16 263L23 303L260 303L312 566L355 566L303 303L539 303L532 263L296 263L244 0L201 0Z"  horiz-adv-x="560" vert-adv-y="1000"  />

      
      <glyph glyph-name="uni2c" unicode="&#x2c;" d="M-21-94L63 61L118 61L23-94L-21-94Z"  horiz-adv-x="253" vert-adv-y="1000"  />

      
      <glyph glyph-name="uni2d" unicode="&#x2d;" d="M72 263L79 303L355 303L348 263L72 263Z"  horiz-adv-x="432" vert-adv-y="1000"  />

      
      <glyph glyph-name="uni2e" unicode="&#x2e;" d="M22 0L34 63L95 63L83 0L22 0Z"  horiz-adv-x="217" vert-adv-y="1000"  />

      
      <glyph glyph-name="uni2f" unicode="&#x2f;" d="M-12-42L393 740L440 740L35-42L-12-42Z"  horiz-adv-x="407" vert-adv-y="1000"  />

      
      <glyph glyph-name="uni30" unicode="&#x30;" d="M66 209Q66 267 75.50 331Q85 395 109 464Q133 533 167.50 587Q202 641 257.50 676.50Q313 712 381 712Q569 712 569 489Q569 415 552.50 334Q536 253 501.50 172.50Q467 92 402.50 40Q338-12 254-12Q66-12 66 209M110 207Q110 30 255 30Q313 30 361 62.50Q409 95 438.50 144.50Q468 194 488 257.50Q508 321 516 379Q524 437 524 490Q524 670 380 670Q312 670 257.50 625Q203 580 172.50 508.50Q142 437 126 359.50Q110 282 110 207Z"  horiz-adv-x="614" vert-adv-y="1000"  />

      
      <glyph glyph-name="uni31" unicode="&#x31;" d="M3 0L10 40L169 40L279 605L287 640L285 640Q275 627 239 597L143 516L117 548L298 700L341 700L212 40L367 40L359 0L3 0Z"  horiz-adv-x="446" vert-adv-y="1000"  />

      
      <glyph glyph-name="uni32" unicode="&#x32;" d="M10 0Q11 51 31 94Q51 137 91 174.50Q131 212 165 236Q199 260 257 295Q372 366 407 396Q484 463 484 542Q484 602 445.50 636Q407 670 346 670Q293 670 242.50 643Q192 616 156 571L125 597Q163 648 223 680Q283 712 349 712Q430 712 479.50 666.50Q529 621 529 545Q529 498 512 459Q495 420 450.50 381.50Q406 343 380.50 325Q355 307 289 267Q280 261 275 258Q228 229 200.50 210.50Q173 192 139 163.50Q105 135 86 104.50Q67 74 60 40L443 40L435 0L10 0Z"  horiz-adv-x="553" vert-adv-y="1000"  />

      
      <glyph glyph-name="uni33" unicode="&#x33;" d="M10 85L44 114Q117 30 223 30Q301 30 366.50 90Q432 150 432 235Q432 300 386.50 334.50Q341 369 272 369L220 369L214 399L455 628L492 660L492 662Q473 660 438 660L155 660L163 700L564 700L558 670L281 409Q305 409 329 404.50Q353 400 380.50 388Q408 376 428.50 357.50Q449 339 463 307Q477 275 477 235Q477 136 398.50 62Q320-12 221-12Q158-12 102.50 13Q47 38 10 85Z"  horiz-adv-x="555" vert-adv-y="1000"  />

      
      <glyph glyph-name="uni34" unicode="&#x34;" d="M23 200L29 230L478 700L523 700L433 240L537 240L529 200L425 200L386 0L343 0L382 200L23 200M95 240L390 240L454 568L469 631L467 631Q445 606 423 583L95 241L95 240Z"  horiz-adv-x="591" vert-adv-y="1000"  />

      
      <glyph glyph-name="uni35" unicode="&#x35;" d="M19 89L56 114Q111 30 212 30Q302 30 370.50 94Q439 158 439 246Q439 315 394 356.50Q349 398 276 398Q240 398 204 387.50Q168 377 150 366L132 356L101 367L206 700L532 700L524 660L237 660L172 453L157 410L159 410Q207 440 282 440Q372 440 428 386.50Q484 333 484 247Q484 141 402.50 64.50Q321-12 210-12Q151-12 99.50 14.50Q48 41 19 89Z"  horiz-adv-x="553" vert-adv-y="1000"  />

      
      <glyph glyph-name="uni36" unicode="&#x36;" d="M61 236Q61 286 75.50 347Q90 408 121.50 472.50Q153 537 196.50 590.50Q240 644 303.50 678Q367 712 439 712Q508 712 565 684L539 647Q499 670 439 670Q380 670 326.50 641.50Q273 613 233.50 566Q194 519 166 463.50Q138 408 122 348L124 348Q161 392 216.50 418Q272 444 331 444Q416 444 466.50 396.50Q517 349 517 266Q517 198 486.50 135Q456 72 396.50 30Q337-12 262-12Q165-12 113 56.50Q61 125 61 236M106 221Q106 146 146.50 88Q187 30 259 30Q348 30 410 98.50Q472 167 472 266Q472 330 433.50 366Q395 402 328 402Q283 402 232.50 380.50Q182 359 144 315.50Q106 272 106 221Z"  horiz-adv-x="584" vert-adv-y="1000"  />

      
      <glyph glyph-name="uni37" unicode="&#x37;" d="M46 0L454 595L504 660L504 662Q484 660 449 660L113 660L121 700L564 700L558 670L95 0L46 0Z"  horiz-adv-x="516" vert-adv-y="1000"  />

      
      <glyph glyph-name="uni38" unicode="&#x38;" d="M42 168Q42 207 58.50 245Q75 283 96 307.50Q117 332 144.50 355Q172 378 185 386Q198 394 208 399Q138 447 138 518Q138 594 203.50 653Q269 712 372 712Q462 712 509.50 672.50Q557 633 557 563Q557 523 538.50 481Q520 439 493 407.50Q466 376 449.50 359.50Q433 343 422 335Q504 283 504 208Q504 114 426 51Q348-12 245-12Q158-12 100 35Q42 82 42 168M383 356Q397 366 412.50 380.50Q428 395 453.50 423.50Q479 452 495 489Q511 526 511 563Q511 612 473 641Q435 670 372 670Q291 670 237.50 625.50Q184 581 184 519Q184 494 194.50 474Q205 454 229.50 437Q254 420 273 409.50Q292 399 329.50 381.50Q367 364 383 356M88 168Q88 104 133.50 67Q179 30 245 30Q327 30 392.50 80Q458 130 458 207Q458 232 446 253Q434 274 409.50 291Q385 308 362.50 319.50Q340 331 303.50 348Q267 365 247 376Q229 366 209 352.50Q189 339 158 312.50Q127 286 107.50 248Q88 210 88 168Z"  horiz-adv-x="590" vert-adv-y="1000"  />

      
      <glyph glyph-name="uni39" unicode="&#x39;" d="M41 16L67 53Q113 30 167 30Q226 30 279.50 58.50Q333 87 372.50 134Q412 181 440 236.50Q468 292 484 352L482 352Q445 308 389.50 282Q334 256 275 256Q190 256 139.50 303.50Q89 351 89 434Q89 502 119.50 565Q150 628 209.50 670Q269 712 344 712Q441 712 493 643.50Q545 575 545 464Q545 414 530.50 353Q516 292 484.50 227.50Q453 163 409.50 109.50Q366 56 302.50 22Q239-12 167-12Q94-12 41 16M275 298Q320 298 371 319.50Q422 341 461 384.50Q500 428 500 479Q500 554 459.50 612Q419 670 347 670Q258 670 196 601.50Q134 533 134 434Q134 371 172 334.50Q210 298 275 298Z"  horiz-adv-x="584" vert-adv-y="1000"  />

      
      <glyph glyph-name="uni3a" unicode="&#x3a;" d="M105 437L117 500L178 500L166 437L105 437M20 0L32 63L93 63L81 0L20 0Z"  horiz-adv-x="215" vert-adv-y="1000"  />

      
      <glyph glyph-name="uni3b" unicode="&#x3b;" d="M152 437L164 500L225 500L213 437L152 437M-3-94L81 61L136 61L41-94L-3-94Z"  horiz-adv-x="282" vert-adv-y="1000"  />

      
      <glyph glyph-name="uni3c" unicode="&#x3c;" d="M36 265L36 301L475 498L475 450L98 284L98 282L475 116L475 68L36 265Z"  horiz-adv-x="560" vert-adv-y="1000"  />

      
      <glyph glyph-name="uni3d" unicode="&#x3d;" d="M48 343L48 383L504 383L504 343L48 343M48 183L48 223L504 223L504 183L48 183Z"  horiz-adv-x="560" vert-adv-y="1000"  />

      
      <glyph glyph-name="uni3e" unicode="&#x3e;" d="M75 68L75 116L452 282L452 284L75 450L75 498L514 301L514 265L75 68Z"  horiz-adv-x="560" vert-adv-y="1000"  />

      
      <glyph glyph-name="uni3f" unicode="&#x3f;" d="M136 175L145 219Q155 266 183.50 305.50Q212 345 246 372Q280 399 312.50 426Q345 453 366.50 488Q388 523 388 565Q388 611 355 640.50Q322 670 266 670Q197 670 130 628L113 665Q143 685 186 698.50Q229 712 268 712Q345 712 389.50 672Q434 632 434 567Q434 518 411.50 477.50Q389 437 355.50 408.50Q322 380 287.50 353.50Q253 327 224.50 292.50Q196 258 188 219L179 175L136 175M95 0L108 61L167 61L154 0L95 0Z"  horiz-adv-x="433" vert-adv-y="1000"  />

      
      <glyph glyph-name="uni40" unicode="&#x40;" d="M47 174Q47 286 108 387.50Q169 489 266 548.50Q363 608 466 608Q573 608 622 567Q671 526 671 461Q671 444 668 426L602 87L672 87L664 47L407 47Q333 47 286.50 93Q240 139 240 210Q240 298 310.50 367.50Q381 437 467 437L625 437Q627 451 627 459Q627 507 590 537.50Q553 568 470 568Q321 568 206.50 449.50Q92 331 92 174Q92 63 161.50-9Q231-81 344-81L336-122Q212-122 129.50-38Q47 46 47 174M285 211Q285 157 320.50 122Q356 87 412 87L557 87L617 397L474 397Q401 397 343 340.50Q285 284 285 211Z"  horiz-adv-x="759" vert-adv-y="1000"  />

      
      <glyph glyph-name="uni41" unicode="&#x41;" d="M-25 0L372 700L417 700L544 0L500 0L457 242L160 242L23 0L-25 0M182 282L449 282L399 566L387 650L385 650Q360 596 343 566L182 282Z"  horiz-adv-x="625" vert-adv-y="1000"  />

      
      <glyph glyph-name="uni42" unicode="&#x42;" d="M49 0L186 700L411 700Q453 700 485 688Q568 654 568 557Q568 490 533.50 441Q499 392 443 370L443 368Q482 355 506 318.50Q530 282 530 229Q530 157 494 101.50Q458 46 400 20Q357 0 304 0L49 0M168 388L358 388Q425 388 474 435.50Q523 483 523 557Q523 605 493.50 632.50Q464 660 411 660L221 660L168 388M100 40L298 40Q344 40 377 55Q426 77 455.50 122.50Q485 168 485 228Q485 284 450.50 316Q416 348 357 348L160 348L100 40Z"  horiz-adv-x="608" vert-adv-y="1000"  />

      
      <glyph glyph-name="uni43" unicode="&#x43;" d="M65 286Q65 400 124.50 499Q184 598 280 655Q376 712 482 712Q550 712 615.50 690.50Q681 669 722 624L692 593Q614 671 482 671Q387 671 301.50 620Q216 569 163 479.50Q110 390 110 286Q110 174 178.50 101.50Q247 29 360 29Q427 29 495 54.50Q563 80 615 124L640 91Q590 46 511.50 17Q433-12 360-12Q224-12 144.50 71Q65 154 65 286Z"  horiz-adv-x="719" vert-adv-y="1000"  />

      
      <glyph glyph-name="uni44" unicode="&#x44;" d="M49 0L186 700L395 700Q535 700 614.50 629.50Q694 559 694 430Q694 250 576.50 125Q459 0 278 0L49 0M99 40L269 40Q432 40 540.50 151Q649 262 649 428Q649 539 580 599.50Q511 660 390 660L221 660L99 40Z"  horiz-adv-x="738" vert-adv-y="1000"  />

      
      <glyph glyph-name="uni45" unicode="&#x45;" d="M49 0L186 700L569 700L560 660L221 660L165 373L444 373L436 333L158 333L100 40L458 40L451 0L49 0Z"  horiz-adv-x="553" vert-adv-y="1000"  />

      
      <glyph glyph-name="uni46" unicode="&#x46;" d="M49 0L186 700L539 700L531 660L221 660L164 368L432 368L424 328L156 328L92 0L49 0Z"  horiz-adv-x="501" vert-adv-y="1000"  />

      
      <glyph glyph-name="uni47" unicode="&#x47;" d="M63 277Q63 451 190 581.50Q317 712 482 712Q631 712 719 634L689 602Q654 634 597 652.50Q540 671 482 671Q334 671 221 553.50Q108 436 108 277Q108 167 174.50 98Q241 29 351 29Q493 29 616 152L641 279L517 279L524 319L692 319L630 0L587 0L599 62L606 92L604 92Q600 88 592 81Q584 74 558 56Q532 38 504.50 24Q477 10 435-1Q393-12 351-12Q221-12 142 69Q63 150 63 277Z"  horiz-adv-x="754" vert-adv-y="1000"  />

      
      <glyph glyph-name="uni48" unicode="&#x48;" d="M49 0L186 700L229 700L165 371L609 371L673 700L716 700L579 0L536 0L601 331L157 331L92 0L49 0Z"  horiz-adv-x="743" vert-adv-y="1000"  />

      
      <glyph glyph-name="uni49" unicode="&#x49;" d="M49 0L186 700L229 700L92 0L49 0Z"  horiz-adv-x="256" vert-adv-y="1000"  />

      
      <glyph glyph-name="uni4a" unicode="&#x4a;" d="M7 139Q7 158 13 191L17 213L60 213L56 191Q51 166 51 146Q51 29 167 29Q226 29 276.50 68Q327 107 343 191L433 660L267 660L275 700L484 700L384 185Q364 82 303 35Q242-12 167-12Q98-12 52.50 25Q7 62 7 139Z"  horiz-adv-x="505" vert-adv-y="1000"  />

      
      <glyph glyph-name="uni4b" unicode="&#x4b;" d="M49 0L186 700L229 700L168 388L294 388L559 700L611 700L330 369L330 367L488 0L441 0L293 348L160 348L92 0L49 0Z"  horiz-adv-x="567" vert-adv-y="1000"  />

      
      <glyph glyph-name="uni4c" unicode="&#x4c;" d="M49 0L186 700L229 700L100 40L434 40L425 0L49 0Z"  horiz-adv-x="498" vert-adv-y="1000"  />

      
      <glyph glyph-name="uni4d" unicode="&#x4d;" d="M22 0L216 700L255 700L373 260L392 181L394 181Q420 225 443 260L733 700L777 700L696 0L653 0L715 534L730 627L728 627Q697 568 674 534L409 135L365 135L255 534L235 629L233 629Q223 568 214 534L65 0L22 0Z"  horiz-adv-x="835" vert-adv-y="1000"  />

      
      <glyph glyph-name="uni4e" unicode="&#x4e;" d="M49 0L186 700L221 700L513 151L553 63L555 63Q559 116 566 151L673 700L716 700L579 0L544 0L252 549L212 637L210 637Q206 584 199 549L92 0L49 0Z"  horiz-adv-x="743" vert-adv-y="1000"  />

      
      <glyph glyph-name="uni4f" unicode="&#x4f;" d="M64 288Q64 400 125 498.50Q186 597 284 654.50Q382 712 487 712Q619 712 702 630Q785 548 785 420Q785 306 723.50 205.50Q662 105 564.50 46.50Q467-12 362-12Q230-12 147 72Q64 156 64 288M109 288Q109 174 179.50 101.50Q250 29 362 29Q455 29 542.50 81.50Q630 134 685 225Q740 316 740 419Q740 530 669.50 600.50Q599 671 487 671Q392 671 305 620Q218 569 163.50 479.50Q109 390 109 288Z"  horiz-adv-x="826" vert-adv-y="1000"  />

      
      <glyph glyph-name="uni50" unicode="&#x50;" d="M49 0L186 700L405 700Q475 700 517 676Q594 633 594 536Q594 457 553 396.50Q512 336 447 309Q400 290 346 290L149 290L92 0L49 0M157 330L342 330Q391 330 430 346Q484 369 516.50 418.50Q549 468 549 536Q549 595 511 627.50Q473 660 405 660L221 660L157 330Z"  horiz-adv-x="591" vert-adv-y="1000"  />

      
      <glyph glyph-name="uni51" unicode="&#x51;" d="M64 288Q64 400 125 498.50Q186 597 284 654.50Q382 712 487 712Q619 712 702 630Q785 548 785 420Q785 330 745.50 247Q706 164 639 102L708 11L678-15L608 77Q494-12 362-12Q230-12 147 72Q64 156 64 288M109 288Q109 174 179.50 101.50Q250 29 362 29Q481 29 584 110L512 205L542 231L614 135Q672 191 706 265Q740 339 740 419Q740 530 669.50 600.50Q599 671 487 671Q392 671 305 620Q218 569 163.50 479.50Q109 390 109 288Z"  horiz-adv-x="826" vert-adv-y="1000"  />

      
      <glyph glyph-name="uni52" unicode="&#x52;" d="M50 0L186 700L408 700Q468 700 505 681Q582 641 582 544Q582 458 529 395.50Q476 333 397 318L397 316Q401 308 407 291L509 0L463 0L355 310L153 310L93 0L50 0M161 350L346 350Q426 350 481.50 404.50Q537 459 537 544Q537 598 503 629Q469 660 408 660L221 660L161 350Z"  horiz-adv-x="604" vert-adv-y="1000"  />

      
      <glyph glyph-name="uni53" unicode="&#x53;" d="M12 75L43 106Q45 103 49.50 98Q54 93 70 79.50Q86 66 104 56Q122 46 152 38Q182 30 214 30Q293 30 349 72.50Q405 115 405 186Q405 228 383 259Q361 290 328.50 307.50Q296 325 257.50 345.50Q219 366 186.50 384.50Q154 403 132 438Q110 473 110 519Q110 607 180.50 659.50Q251 712 347 712Q400 712 443.50 695Q487 678 504 662L521 645L493 612Q487 618 476.50 628Q466 638 428.50 654Q391 670 348 670Q273 670 214 629.50Q155 589 155 521Q155 476 185.50 444Q216 412 259 391.50Q302 371 345.50 348.50Q389 326 419.50 286.50Q450 247 450 190Q450 101 383.50 44.50Q317-12 215-12Q177-12 142-3Q107 6 84 18.50Q61 31 44 44Q27 57 20 66L12 75Z"  horiz-adv-x="527" vert-adv-y="1000"  />

      
      <glyph glyph-name="uni54" unicode="&#x54;" d="M218 0L346 660L86 660L93 700L658 700L651 660L389 660L261 0L218 0Z"  horiz-adv-x="596" vert-adv-y="1000"  />

      
      <glyph glyph-name="uni55" unicode="&#x55;" d="M84 187Q84 214 90 244L179 700L222 700L133 243Q128 220 128 191Q128 114 176 71.50Q224 29 310 29Q409 29 479.50 87Q550 145 570 245L659 700L702 700L610 235Q588 120 506.50 54Q425-12 310-12Q205-12 144.50 41Q84 94 84 187Z"  horiz-adv-x="721" vert-adv-y="1000"  />

      
      <glyph glyph-name="uni56" unicode="&#x56;" d="M226 0L102 700L145 700L245 134L256 50L258 50Q283 101 302 134L623 700L671 700L273 0L226 0Z"  horiz-adv-x="621" vert-adv-y="1000"  />

      
      <glyph glyph-name="uni57" unicode="&#x57;" d="M164 0L116 700L159 700L195 130L197 55L199 55Q217 95 234 130L512 700L562 700L601 130L603 55L605 55Q622 96 637 130L896 700L944 700L623 0L569 0L531 528L528 639L526 639Q498 574 476 529L216 0L164 0Z"  horiz-adv-x="907" vert-adv-y="1000"  />

      
      <glyph glyph-name="uni58" unicode="&#x58;" d="M-35 0L262 373L125 700L171 700L262 479L294 401L296 401Q321 437 353 477L533 700L587 700L317 366L474 0L428 0L316 263L286 338L284 338Q263 307 229 265L16 0L-35 0Z"  horiz-adv-x="550" vert-adv-y="1000"  />

      
      <glyph glyph-name="uni59" unicode="&#x59;" d="M199 0L259 304L99 700L145 700L256 424L285 345L287 345Q318 388 345 423L564 700L617 700L302 303L242 0L199 0Z"  horiz-adv-x="567" vert-adv-y="1000"  />

      
      <glyph glyph-name="uni5a" unicode="&#x5a;" d="M-24 0L-17 34L472 596L533 660L533 662Q518 660 483 660L125 660L134 700L597 700L590 666L100 104L39 40L39 38Q54 40 89 40L470 40L463 0L-24 0Z"  horiz-adv-x="560" vert-adv-y="1000"  />

      
      <glyph glyph-name="uni5b" unicode="&#x5b;" d="M23-95L182 725L290 725L282 685L217 685L74-55L139-55L131-95L23-95Z"  horiz-adv-x="264" vert-adv-y="1000"  />

      
      <glyph glyph-name="uni5c" unicode="&#x5c;" d="M231-42L131 740L173 740L273-42L231-42Z"  horiz-adv-x="383" vert-adv-y="1000"  />

      
      <glyph glyph-name="uni5d" unicode="&#x5d;" d="M-9-55L56-55L199 685L134 685L142 725L250 725L91-95L-17-95L-9-55Z"  horiz-adv-x="264" vert-adv-y="1000"  />

      
      <glyph glyph-name="uni5e" unicode="&#x5e;" d="M85 252L282 700L314 700L511 252L465 252L298 640L131 252L85 252Z"  horiz-adv-x="600" vert-adv-y="1000"  />

      
      <glyph glyph-name="uni5f" unicode="&#x5f;" d="M-11 0L485 0L478-40L-18-40L-11 0Z"  horiz-adv-x="577" vert-adv-y="1000"  />

      
      <glyph glyph-name="uni60" unicode="&#x60;" d="M208 750L151 861L203 861L248 750L208 750Z"  horiz-adv-x="509" vert-adv-y="1000"  />

      
      <glyph glyph-name="uni61" unicode="&#x61;" d="M50 22Q50 22 28.50 39Q7 56 7 113Q7 170 39 210.50Q71 251 125.50 270Q180 289 233.50 297Q287 305 347 305L386 305Q393 344 393 369Q393 471 281 471Q199 471 129 423L111 461Q182 512 281 512Q437 512 437 375Q437 350 431 318L369 0L327 0L340 65L352 111L350 111Q327 66 275.50 27Q224-12 157-12Q93-12 50 22M51 117Q51 79 79 53Q107 27 161 27Q236 27 296 94Q356 161 374 243L379 266L347 266Q51 266 51 117Z"  horiz-adv-x="508" vert-adv-y="1000"  />

      
      <glyph glyph-name="uni62" unicode="&#x62;" d="M30 0L166 700L208 700L159 445L145 399L147 399Q175 449 227.50 480.50Q280 512 340 512Q427 512 474.50 459.50Q522 407 522 315Q522 174 440.50 81Q359-12 250-12Q190-12 147 17.50Q104 47 89 101L87 101Q87 78 82 52L72 0L30 0M113 184Q113 116 147.50 72.50Q182 29 250 29Q337 29 407.50 108Q478 187 478 313Q478 387 441 429Q404 471 340 471Q272 471 219 427Q166 383 139.50 318Q113 253 113 184Z"  horiz-adv-x="577" vert-adv-y="1000"  />

      
      <glyph glyph-name="uni63" unicode="&#x63;" d="M38 197Q38 333 132 422.50Q226 512 343 512Q394 512 442 494Q490 476 519 441L489 410Q465 438 426 454.50Q387 471 345 471Q245 471 163.50 394Q82 317 82 201Q82 123 132.50 76Q183 29 260 29Q364 29 441 101L457 63Q420 29 368 8.50Q316-12 262-12Q164-12 101 45Q38 102 38 197Z"  horiz-adv-x="540" vert-adv-y="1000"  />

      
      <glyph glyph-name="uni64" unicode="&#x64;" d="M39 185Q39 326 120.50 419Q202 512 311 512Q370 512 413.50 482.50Q457 453 472 399L474 399Q474 422 479 445L529 700L571 700L435 0L393 0L404 58L416 101L414 101Q386 54 335.50 21Q285-12 222-12Q134-12 86.50 40.50Q39 93 39 185M83 187Q83 113 120 71Q157 29 222 29Q289 29 342.50 74Q396 119 422 184Q448 249 448 316Q448 384 413.50 427.50Q379 471 311 471Q224 471 153.50 392Q83 313 83 187Z"  horiz-adv-x="579" vert-adv-y="1000"  />

      
      <glyph glyph-name="uni65" unicode="&#x65;" d="M39 197Q39 321 123 416.50Q207 512 330 512Q417 512 460.50 463.50Q504 415 504 335Q504 302 491 257L90 257Q84 228 84 202Q84 126 130 77.50Q176 29 260 29Q349 29 427 92L443 54Q410 27 360 7.50Q310-12 260-12Q162-12 100.50 45Q39 102 39 197M100 296L455 296Q459 311 459 338Q459 405 423.50 439Q388 473 330 473Q257 473 193.50 426.50Q130 380 100 296Z"  horiz-adv-x="548" vert-adv-y="1000"  />

      
      <glyph glyph-name="uni66" unicode="&#x66;" d="M45 0L134 459L71 459L78 497L141 497L146 522Q155 569 174 604Q193 639 213.50 657.50Q234 676 259 687.50Q284 699 301 702Q318 705 335 705Q356 705 366 703L357 664Q347 666 335 666Q316 666 298 661Q280 656 257 642.50Q234 629 215.50 597.50Q197 566 188 521L183 497L320 497L313 459L176 459L87 0L45 0Z"  horiz-adv-x="310" vert-adv-y="1000"  />

      
      <glyph glyph-name="uni67" unicode="&#x67;" d="M32-136Q88-169 162-169Q246-169 306.50-126Q367-83 385 3L396 56L409 102L407 102Q343 0 229 0Q142 0 91 53Q40 106 40 196Q40 269 69 340Q98 411 160 461.50Q222 512 302 512Q363 512 408.50 489Q454 466 467 414L469 414Q468 426 470 438L482 500L524 500L427-2Q406-109 334-159.50Q262-210 167-210Q80-210 8-171L32-136M84 197Q84 124 123 82.50Q162 41 230 41Q283 41 325 69Q367 97 392.50 141.50Q418 186 431 236.50Q444 287 444 337Q444 471 304 471Q204 471 144 387Q84 303 84 197Z"  horiz-adv-x="571" vert-adv-y="1000"  />

      
      <glyph glyph-name="uni68" unicode="&#x68;" d="M30 0L166 700L208 700L154 417L141 371L143 371Q168 421 231.50 466.50Q295 512 377 512Q446 512 481 479.50Q516 447 516 386Q516 357 508 317L447 0L405 0L463 302Q472 349 472 378Q472 424 446 447.50Q420 471 376 471Q285 471 210.50 401Q136 331 117 234L72 0L30 0Z"  horiz-adv-x="585" vert-adv-y="1000"  />

      
      <glyph glyph-name="uni69" unicode="&#x69;" d="M148 627L163 700L213 700L198 627L148 627M30 0L128 500L170 500L72 0L30 0Z"  horiz-adv-x="216" vert-adv-y="1000"  />

      
      <glyph glyph-name="uni6a" unicode="&#x6a;" d="M147 627L161 700L211 700L197 627L147 627M26-21L127 500L169 500L68-20Q57-78 33.50-118Q10-158-19-175.50Q-48-193-70.50-199Q-93-205-116-205Q-141-205-151-203L-143-164Q-137-166-121-166Q-103-166-84.50-161Q-66-156-43-142.50Q-20-129-1.50-97.50Q17-66 26-21Z"  horiz-adv-x="216" vert-adv-y="1000"  />

      
      <glyph glyph-name="uni6b" unicode="&#x6b;" d="M30 0L167 700L209 700L131 303L216 303L418 500L475 500L253 284L253 282L395 0L347 0L216 264L124 264L72 0L30 0Z"  horiz-adv-x="470" vert-adv-y="1000"  />

      
      <glyph glyph-name="uni6c" unicode="&#x6c;" d="M47 77Q47 90 50 106L166 700L208 700L94 113Q91 97 91 84Q91 63 99.50 51.50Q108 40 117 38Q126 36 140 36Q147 36 153 37L144-2Q138-4 127-4Q110-4 94 0.50Q78 5 62.50 24.50Q47 44 47 77Z"  horiz-adv-x="233" vert-adv-y="1000"  />

      
      <glyph glyph-name="uni6d" unicode="&#x6d;" d="M30 0L127 500L169 500L153 417L140 371L142 371Q172 431 234 471.50Q296 512 362 512Q433 512 463 477.50Q493 443 493 376L495 376Q526 435 585.50 473.50Q645 512 710 512Q778 512 813 478.50Q848 445 848 383Q848 355 840 317L779 0L737 0L795 302Q804 349 804 375Q804 473 704 473Q621 473 555 401.50Q489 330 473 244L426 0L384 0L442 302Q451 349 451 378Q451 473 355 473Q272 473 204 402.50Q136 332 119 243L72 0L30 0Z"  horiz-adv-x="917" vert-adv-y="1000"  />

      
      <glyph glyph-name="uni6e" unicode="&#x6e;" d="M30 0L127 500L169 500L154 417L140 371L142 371Q167 420 231 466Q295 512 377 512Q446 512 481 479.50Q516 447 516 386Q516 357 508 317L447 0L405 0L463 302Q472 349 472 378Q472 424 446 447.50Q420 471 376 471Q284 471 210 401Q136 331 117 234L72 0L30 0Z"  horiz-adv-x="585" vert-adv-y="1000"  />

      
      <glyph glyph-name="uni6f" unicode="&#x6f;" d="M38 205Q38 330 131.50 421Q225 512 344 512Q442 512 503.50 452Q565 392 565 298Q565 172 471 80Q377-12 259-12Q161-12 99.50 49Q38 110 38 205M82 206Q82 128 131.50 78.50Q181 29 259 29Q359 29 440 108.50Q521 188 521 297Q521 373 471.50 422Q422 471 344 471Q242 471 162 392.50Q82 314 82 206Z"  horiz-adv-x="620" vert-adv-y="1000"  />

      
      <glyph glyph-name="uni70" unicode="&#x70;" d="M82 52L33-200L-9-200L127 500L169 500L159 445L147 400L149 400Q177 448 226.50 480Q276 512 340 512Q427 512 475 459.50Q523 407 523 315Q523 175 441.50 81.50Q360-12 253-12Q192-12 148.50 17Q105 46 90 101L88 101Q87 78 82 52M114 187Q114 118 149 73.50Q184 29 251 29Q338 29 408.50 108Q479 187 479 313Q479 387 442 429Q405 471 340 471Q273 471 220 426.50Q167 382 140.50 318Q114 254 114 187Z"  horiz-adv-x="578" vert-adv-y="1000"  />

      
      <glyph glyph-name="uni71" unicode="&#x71;" d="M38 184Q38 325 120 418.50Q202 512 311 512Q371 512 413.50 483Q456 454 471 400L473 400Q474 417 478 440L489 500L531 500L395-200L353-200L402 52L416 101L414 101Q385 52 336 20Q287-12 221-12Q134-12 86 40.50Q38 93 38 184M82 187Q82 114 119 71.50Q156 29 221 29Q288 29 341.50 74Q395 119 421.50 184Q448 249 448 316Q448 384 413.50 427.50Q379 471 311 471Q224 471 153 392Q82 313 82 187Z"  horiz-adv-x="578" vert-adv-y="1000"  />

      
      <glyph glyph-name="uni72" unicode="&#x72;" d="M30 0L127 500L169 500L151 410L138 364L140 364Q169 424 217.50 464Q266 504 326 504Q340 504 356 501L347 459Q331 461 325 461Q282 461 243 433.50Q204 406 178 363.50Q152 321 134.50 277Q117 233 109 191L72 0L30 0Z"  horiz-adv-x="340" vert-adv-y="1000"  />

      
      <glyph glyph-name="uni73" unicode="&#x73;" d="M-1 61L26 91Q50 63 88.50 46Q127 29 169 29Q225 29 266 55.50Q307 82 307 129Q307 162 283 185.50Q259 209 225 223.50Q191 238 157.50 254Q124 270 100 299.50Q76 329 76 372Q76 438 130 475Q184 512 258 512Q354 512 401 456L373 426Q331 471 257 471Q203 471 161.50 446Q120 421 120 373Q120 339 144 316Q168 293 201.50 278.50Q235 264 269 248Q303 232 327 203.50Q351 175 351 133Q351 69 298.50 28.50Q246-12 168-12Q58-12-1 61Z"  horiz-adv-x="430" vert-adv-y="1000"  />

      
      <glyph glyph-name="uni74" unicode="&#x74;" d="M72 133Q72 158 78 191L130 459L64 459L71 497L137 497L165 639L207 639L179 497L310 497L303 459L172 459L119 184Q114 160 114 135Q114 35 203 35Q216 35 232 37L224-2Q218-4 203-4Q72-4 72 133Z"  horiz-adv-x="297" vert-adv-y="1000"  />

      
      <glyph glyph-name="uni75" unicode="&#x75;" d="M52 114Q52 143 60 183L121 500L163 500L105 200Q96 156 96 122Q96 78 118 53.50Q140 29 195 29Q285 29 357 102Q429 175 446 268L491 500L533 500L436 0L394 0L410 83L423 129L421 129Q394 78 332.50 33Q271-12 188-12Q128-12 90 18.50Q52 49 52 114Z"  horiz-adv-x="580" vert-adv-y="1000"  />

      
      <glyph glyph-name="uni76" unicode="&#x76;" d="M168 0L68 500L111 500L187 105L194 51L196 51Q211 81 225 105L454 500L501 500L208 0L168 0Z"  horiz-adv-x="495" vert-adv-y="1000"  />

      
      <glyph glyph-name="uni77" unicode="&#x77;" d="M150 0L71 500L114 500L174 105L180 51L182 51Q197 81 210 105L422 498L471 498L531 105L538 51L540 51Q554 80 567 105L781 500L827 500L554 0L509 0L445 391L439 445L437 445Q422 415 409 391L197 0L150 0Z"  horiz-adv-x="823" vert-adv-y="1000"  />

      
      <glyph glyph-name="uni78" unicode="&#x78;" d="M-35 0L198 265L78 500L126 500L215 321L228 293L229 293Q238 305 249 318L406 500L459 500L250 260L384 0L337 0L234 203L221 233L219 233Q211 220 198 206L18 0L-35 0Z"  horiz-adv-x="460" vert-adv-y="1000"  />

      
      <glyph glyph-name="uni79" unicode="&#x79;" d="M-48-149Q-27-170 10-170Q71-170 126-81L179 4L67 500L111 500L198 94L207 47L208 47Q221 70 235 94L479 500L527 500L148-120Q92-210 10-210Q-36-210-72-182L-48-149Z"  horiz-adv-x="520" vert-adv-y="1000"  />

      
      <glyph glyph-name="uni7a" unicode="&#x7a;" d="M-20 0L-14 34L360 415Q404 461 407 461L407 463Q390 461 357 461L82 461L89 500L475 500L468 466L93 85Q82 74 70.50 63Q59 52 52 46L45 39L45 37Q63 39 96 39L396 39L389 0L-20 0Z"  horiz-adv-x="482" vert-adv-y="1000"  />

      
      <glyph glyph-name="uni7b" unicode="&#x7b;" d="M85 28Q85 50 92 88L110 182Q113 200 113 214Q113 284 48 301L56 341Q97 349 126 381Q155 413 164 460L180 541Q216 724 352 724L360 724L353 685L348 685Q336 685 323 681.50Q310 678 289 665.50Q268 653 250 621.50Q232 590 223 542L205 449Q196 404 169 369.50Q142 335 101 322L101 320Q126 306 142 279.50Q158 253 158 221Q158 208 155 193L134 87Q128 57 128 35Q128 5 136.50-15Q145-35 159.50-43Q174-51 184-53.50Q194-56 204-56L209-56L201-95Q198-96 192-96Q179-96 164.50-92Q150-88 130-76.50Q110-65 97.50-38Q85-11 85 28Z"  horiz-adv-x="324" vert-adv-y="1000"  />

      
      <glyph glyph-name="uni7c" unicode="&#x7c;" d="M128-155L128 785L171 785L171-155L128-155Z"  horiz-adv-x="293" vert-adv-y="1000"  />

      
      <glyph glyph-name="uni7d" unicode="&#x7d;" d="M-10-56Q-4-56 4-54.50Q12-53 29-45Q46-37 60-23.50Q74-10 88.50 19Q103 48 110 87L130 192Q139 241 166 275.50Q193 310 234 322L234 324Q178 358 178 420Q178 433 181 448L199 542Q205 572 205 594Q205 624 196 644Q187 664 173 672Q159 680 149 682.50Q139 685 129 685L124 685L132 724Q135 725 141 725Q154 725 168.50 721Q183 717 203 705.50Q223 694 235.50 667Q248 640 248 601Q248 580 241 541L225 459Q222 441 222 427Q222 394 239 370.50Q256 347 287 340L279 300Q236 291 207.50 258.50Q179 226 171 181L153 88Q116-96-19-96L-27-96L-20-56L-10-56Z"  horiz-adv-x="324" vert-adv-y="1000"  />

      
      <glyph glyph-name="uni7e" unicode="&#x7e;" d="M68 213Q68 287 99.50 322Q131 357 183 357Q214 357 238.50 345.50Q263 334 278.50 318Q294 302 308.50 286Q323 270 343.50 258.50Q364 247 389 247Q420 247 438 268Q456 289 460 309.50Q464 330 464 353L504 353Q504 279 472.50 244Q441 209 389 209Q358 209 333.50 220.50Q309 232 293.50 248Q278 264 263.50 280Q249 296 228.50 307.50Q208 319 183 319Q152 319 134 298Q116 277 112 256.50Q108 236 108 213L68 213Z"  horiz-adv-x="575" vert-adv-y="1000"  />

      
      <glyph glyph-name="unia1" unicode="&#xa1;" d="M111 439L124 500L183 500L170 439L111 439M-5-200L98 325L141 325L38-200L-5-200Z"  horiz-adv-x="226" vert-adv-y="1000"  />

      
      <glyph glyph-name="unia2" unicode="&#xa2;" d="M210-13L226 72Q149 81 106 134.50Q63 188 63 278Q63 357 93 433.50Q123 510 187 567Q251 624 335 628L351 712L394 712L377 627Q415 623 445 606.50Q475 590 491 570.50Q507 551 517.50 532Q528 513 532 500L535 487L494 471Q493 476 491 483.50Q489 491 478.50 511Q468 531 454 546.50Q440 562 412.50 574.50Q385 587 351 587Q241 587 175 495Q109 403 109 275Q109 201 146 157Q183 113 259 113Q292 113 323.50 125Q355 137 376 154Q397 171 413 188Q429 205 436 217L444 229L485 213Q482 208 476 198.50Q470 189 449.50 165.50Q429 142 406 123.50Q383 105 345.50 89Q308 73 269 71L253-13L210-13Z"  horiz-adv-x="560" vert-adv-y="1000"  />

      
      <glyph glyph-name="unia3" unicode="&#xa3;" d="M-3 0L5 40L69 40L126 333L81 333L89 373L133 373L166 540Q180 612 242.50 662Q305 712 388 712Q477 712 533 660L500 630Q457 670 388 670Q316 670 267.50 630Q219 590 208 531L177 373L375 373L367 333L169 333L112 40L463 40L455 0L-3 0Z"  horiz-adv-x="560" vert-adv-y="1000"  />

      
      <glyph glyph-name="unia4" unicode="&#xa4;" d="M75 0L112 190L38 190L46 230L120 230L136 310L62 310L70 350L144 350L212 700L404 700Q488 700 538 657Q588 614 588 538Q588 444 515.50 377Q443 310 338 310L179 310L163 230L418 230L410 190L155 190L118 0L75 0M187 350L339 350Q427 350 485 403Q543 456 543 536Q543 598 505.50 629Q468 660 399 660L247 660L187 350Z"  horiz-adv-x="585" vert-adv-y="1000"  />

      
      <glyph glyph-name="unia5" unicode="&#xa5;" d="M200 0L244 222L81 222L88 262L251 262L260 304L240 352L106 352L114 392L224 392L99 700L146 700L256 424L286 345L288 345Q318 388 345 423L564 700L617 700L372 392L480 392L472 352L340 352L303 304L294 262L454 262L447 222L287 222L243 0L200 0Z"  horiz-adv-x="560" vert-adv-y="1000"  />

      
      <glyph glyph-name="unia7" unicode="&#xa7;" d="M96 62L122 543Q126 612 176.50 662Q227 712 304 712Q357 712 397 678L367 648Q344 671 303 671Q245 671 207 632.50Q169 594 166 537L138 62L96 62M1-28L31 2Q54-21 95-21Q153-21 191 17.50Q229 56 232 113L260 588L302 588L276 107Q272 38 221.50-12Q171-62 94-62Q41-62 1-28Z"  horiz-adv-x="387" vert-adv-y="1000"  />

      
      <glyph glyph-name="unia8" unicode="&#xa8;" d="M242 788L256 861L302 861L288 788L242 788M105 788L119 861L165 861L151 788L105 788Z"  horiz-adv-x="509" vert-adv-y="1000"  />

      
      <glyph glyph-name="unia9" unicode="&#xa9;" d="M78 350Q78 501 181 606.50Q284 712 430 712Q579 712 682.50 606.50Q786 501 786 350Q786 198 682.50 93Q579-12 430-12Q283-12 180.50 93Q78 198 78 350M123 350Q123 214 211.50 122Q300 30 430 30Q562 30 651.50 122Q741 214 741 350Q741 485 651.50 577.50Q562 670 430 670Q300 670 211.50 577.50Q123 485 123 350M284 202Q284 202 255.50 233Q227 264 227 349Q227 434 284 497Q341 560 442 560Q489 560 533 536Q577 512 605 472L572 443Q552 474 516 495.50Q480 517 443 517Q362 517 317 467.50Q272 418 272 350Q272 282 317 232.50Q362 183 443 183Q519 183 572 257L605 228Q577 189 533 164.50Q489 140 442 140Q341 140 284 202Z"  horiz-adv-x="841" vert-adv-y="1000"  />

      
      <glyph glyph-name="uniaa" unicode="&#xaa;" d="M214 382Q178 382 148.50 403Q119 424 119 464Q119 586 330 586L351 586L352 591Q368 673 292 673Q249 673 200 644L183 676Q201 690 233.50 700Q266 710 293 710Q394 710 394 620Q394 602 389 580L351 388L312 388L322 439L320 439Q275 384 214 382M222 419Q263 419 299 461Q335 503 342 540L344 550L331 550Q162 550 162 467Q162 446 177 432.50Q192 419 222 419M77 263L84 300L337 300L330 263L77 263Z"  horiz-adv-x="422" vert-adv-y="1000"  />

      
      <glyph glyph-name="uniab" unicode="&#xab;" d="M334 77L206 285L410 488L467 488L256 280L382 77L334 77M179 77L51 285L243 488L300 488L101 280L227 77L179 77Z"  horiz-adv-x="488" vert-adv-y="1000"  />

      
      <glyph glyph-name="uniac" unicode="&#xac;" d="M109 343L109 383L565 383L565 164L523 164L523 343L109 343Z"  horiz-adv-x="668" vert-adv-y="1000"  />

      
      <glyph glyph-name="uniad" unicode="&#xad;" d="M72 263L79 303L355 303L348 263L72 263Z"  horiz-adv-x="432" vert-adv-y="1000"  />

      
      <glyph glyph-name="uniae" unicode="&#xae;" d="M78 350Q78 501 181 606.50Q284 712 430 712Q579 712 682.50 606.50Q786 501 786 350Q786 198 682.50 93Q579-12 430-12Q283-12 180.50 93Q78 198 78 350M123 350Q123 214 211.50 122Q300 30 430 30Q562 30 651.50 122Q741 214 741 350Q741 485 651.50 577.50Q562 670 430 670Q300 670 211.50 577.50Q123 485 123 350M314 150L314 550L447 550Q498 550 530.50 518Q563 486 563 434Q563 392 541 363.50Q519 335 486 327L486 325Q490 320 499 303L578 150L529 150L444 317L358 317L358 150L314 150M358 355L442 355Q477 355 497.50 376Q518 397 518 434Q518 470 497.50 490Q477 510 442 510L358 510L358 355Z"  horiz-adv-x="841" vert-adv-y="1000"  />

      
      <glyph glyph-name="uniaf" unicode="&#xaf;" d="M80 786L87 826L326 826L319 786L80 786Z"  horiz-adv-x="509" vert-adv-y="1000"  />

      
      <glyph glyph-name="unib0" unicode="&#xb0;" d="M230 449Q179 449 147.50 480.50Q116 512 116 561Q116 619 163 664.50Q210 710 269 710Q319 710 350.50 678Q382 646 382 598Q382 540 334.50 494.50Q287 449 230 449M232 489Q274 489 306.50 521.50Q339 554 339 598Q339 629 319 649.50Q299 670 267 670Q225 670 192 637Q159 604 159 561Q159 530 179 509.50Q199 489 232 489Z"  horiz-adv-x="389" vert-adv-y="1000"  />

      
      <glyph glyph-name="unib1" unicode="&#xb1;" d="M234 0L234 263L-3 263L-3 303L234 303L234 566L277 566L277 303L513 303L513 263L277 263L277 0L234 0M17-113L493-113L493-153L17-153L17-113Z"  horiz-adv-x="560" vert-adv-y="1000"  />

      
      <glyph glyph-name="unib2" unicode="&#xb2;" d="M80 423Q81 467 103 504Q125 541 156.50 563.50Q188 586 224.50 609.50Q261 633 292 652.50Q323 672 343.50 700Q364 728 364 761Q364 791 343.50 811Q323 831 288 831Q238 831 184 781L163 809Q186 833 220.50 850Q255 867 289 867Q345 867 374 838Q403 809 403 763Q403 718 378 683Q353 648 315.50 624Q278 600 239.50 578.50Q201 557 168.50 526.50Q136 496 126 459L353 459L346 423L80 423Z"  horiz-adv-x="376" vert-adv-y="1000"  />

      
      <glyph glyph-name="unib3" unicode="&#xb3;" d="M215 413Q132 413 75 478L105 502Q152 449 216 449Q261 449 297.50 484Q334 519 334 568Q334 604 307 625Q280 646 243 646L211 646L204 670L337 797L367 822L367 824Q349 821 329 821L165 821L172 857L427 857L422 831L264 681Q302 678 337.50 651Q373 624 373 568Q373 507 325.50 460Q278 413 215 413Z"  horiz-adv-x="376" vert-adv-y="1000"  />

      
      <glyph glyph-name="unib4" unicode="&#xb4;" d="M125 750L214 861L274 861L173 750L125 750Z"  horiz-adv-x="509" vert-adv-y="1000"  />

      
      <glyph glyph-name="unib5" unicode="&#xb5;" d="M74-33L41-200L-1-200L135 500L177 500L119 200Q110 156 110 122Q110 78 132 53.50Q154 29 209 29Q299 29 371 102Q443 175 460 268L505 500L547 500L450 0L408 0L424 83L437 129L435 129Q408 78 346.50 33Q285-12 202-12Q118-12 85 41L83 41Q78-12 74-33Z"  horiz-adv-x="579" vert-adv-y="1000"  />

      
      <glyph glyph-name="uni03BC" unicode="&#x03BC;" d="M74-33L41-200L-1-200L135 500L177 500L119 200Q110 156 110 122Q110 78 132 53.50Q154 29 209 29Q299 29 371 102Q443 175 460 268L505 500L547 500L450 0L408 0L424 83L437 129L435 129Q408 78 346.50 33Q285-12 202-12Q118-12 85 41L83 41Q78-12 74-33Z"  horiz-adv-x="579" vert-adv-y="1000"  />

      
      <glyph glyph-name="unib6" unicode="&#xb6;" d="M215-50L271 241Q190 241 131 298Q72 355 72 439Q72 544 157.50 622Q243 700 349 700L569 700L562 660L395 660L257-50L215-50M319-50L444 597L486 597L361-50L319-50Z"  horiz-adv-x="543" vert-adv-y="1000"  />

      
      <glyph glyph-name="unib7" unicode="&#xb7;" d="M70 254L82 317L143 317L131 254L70 254Z"  horiz-adv-x="217" vert-adv-y="1000"  />

      
      <glyph glyph-name="unib8" unicode="&#xb8;" d="M149-93L194 18L227 12L199-60Q223-64 239.50-80.50Q256-97 256-124Q256-163 224.50-183.50Q193-204 154-204Q126-204 106-199L114-162Q127-167 153-167Q177-167 196-157Q215-147 215-124Q215-92 161-92Q153-92 149-93Z"  horiz-adv-x="509" vert-adv-y="1000"  />

      
      <glyph glyph-name="unib9" unicode="&#xb9;" d="M109 423L116 459L212 459L274 781L280 803L278 803Q273 795 251 776L200 734L178 763L290 857L328 857L250 459L343 459L336 423L109 423Z"  horiz-adv-x="376" vert-adv-y="1000"  />

      
      <glyph glyph-name="uniba" unicode="&#xba;" d="M267 383Q205 383 166 421Q127 459 127 518Q127 595 185.50 653Q244 711 317 711Q379 711 418.50 672.50Q458 634 458 576Q458 498 399 440.50Q340 383 267 383M267 420Q325 420 372 465.50Q419 511 419 575Q419 619 390.50 646.50Q362 674 317 674Q258 674 212 629Q166 584 166 521Q166 476 194 448Q222 420 267 420M92 263L99 300L393 300L386 263L92 263Z"  horiz-adv-x="487" vert-adv-y="1000"  />

      
      <glyph glyph-name="unibb" unicode="&#xbb;" d="M184 77L383 285L257 488L305 488L433 280L241 77L184 77M17 77L228 285L102 488L150 488L278 280L74 77L17 77Z"  horiz-adv-x="488" vert-adv-y="1000"  />

      
      <glyph glyph-name="unibc" unicode="&#xbc;" d="M691 0L715 121L497 121L502 147L780 434L814 434L760 157L828 157L821 121L753 121L729 0L691 0M230 0L183 0L655 700L701 700L230 0M55 266L62 302L158 302L220 624L226 646L224 646Q219 638 197 619L146 577L124 606L236 700L274 700L196 302L289 302L282 266L55 266M562 157L722 157L750 304L766 369L764 369Q742 342 719 319L562 159L562 157Z"  horiz-adv-x="896" vert-adv-y="1000"  />

      
      <glyph glyph-name="unibd" unicode="&#xbd;" d="M514 0Q515 44 537 81Q559 118 590.50 140.50Q622 163 658.50 186.50Q695 210 726 229.50Q757 249 777.50 277Q798 305 798 338Q798 368 777.50 388Q757 408 722 408Q672 408 618 358L597 386Q620 410 654.50 427Q689 444 723 444Q779 444 808 415Q837 386 837 340Q837 295 812 260Q787 225 749.50 201Q712 177 673.50 155.50Q635 134 602.50 103.50Q570 73 560 36L787 36L780 0L514 0M229 0L182 0L654 700L700 700L229 0M54 266L61 302L157 302L219 624L225 646L223 646Q218 638 196 619L145 577L123 606L235 700L273 700L195 302L288 302L281 266L54 266Z"  horiz-adv-x="890" vert-adv-y="1000"  />

      
      <glyph glyph-name="unibe" unicode="&#xbe;" d="M266 0L219 0L691 700L737 700L266 0M727 0L751 121L533 121L538 147L816 434L850 434L796 157L864 157L857 121L789 121L765 0L727 0M598 157L758 157L786 304L802 369L800 369Q778 342 755 319L598 159L598 157M193 256Q110 256 53 321L83 345Q130 292 194 292Q239 292 275.50 327Q312 362 312 411Q312 447 285 468Q258 489 221 489L189 489L182 513L315 640L345 665L345 667Q327 664 307 664L143 664L150 700L405 700L400 674L242 524Q280 521 315.50 494Q351 467 351 411Q351 350 303.50 303Q256 256 193 256Z"  horiz-adv-x="931" vert-adv-y="1000"  />

      
      <glyph glyph-name="unibf" unicode="&#xbf;" d="M247 439L260 500L319 500L306 439L247 439M-20-65Q-20-16 2.50 24.50Q25 65 58 93.50Q91 122 125.50 148.50Q160 175 189 209.50Q218 244 226 283L235 325L278 325L269 283Q259 236 230 196.50Q201 157 167.50 130Q134 103 101.50 76Q69 49 47.50 14Q26-21 26-63Q26-109 59-138.50Q92-168 148-168Q218-168 284-126L301-163Q228-210 146-210Q69-210 24.50-170Q-20-130-20-65Z"  horiz-adv-x="429" vert-adv-y="1000"  />

      
      <glyph glyph-name="unic0" unicode="&#xc0;" d="M-25 0L372 700L417 700L544 0L500 0L457 242L160 242L23 0L-25 0M182 282L449 282L399 566L387 650L385 650Q360 596 343 566L182 282M385 750L328 861L380 861L425 750L385 750Z"  horiz-adv-x="625" vert-adv-y="1000"  />

      
      <glyph glyph-name="unic1" unicode="&#xc1;" d="M-25 0L372 700L417 700L544 0L500 0L457 242L160 242L23 0L-25 0M182 282L449 282L399 566L387 650L385 650Q360 596 343 566L182 282M380 750L469 861L529 861L428 750L380 750Z"  horiz-adv-x="625" vert-adv-y="1000"  />

      
      <glyph glyph-name="unic2" unicode="&#xc2;" d="M-25 0L372 700L417 700L544 0L500 0L457 242L160 242L23 0L-25 0M182 282L449 282L399 566L387 650L385 650Q360 596 343 566L182 282M296 750L398 861L450 861L508 750L462 750L422 830L420 830L348 750L296 750Z"  horiz-adv-x="625" vert-adv-y="1000"  />

      
      <glyph glyph-name="unic3" unicode="&#xc3;" d="M-25 0L372 700L417 700L544 0L500 0L457 242L160 242L23 0L-25 0M182 282L449 282L399 566L387 650L385 650Q360 596 343 566L182 282M267 753Q287 861 363 861Q385 861 401.50 849.50Q418 838 426.50 824Q435 810 447.50 798.50Q460 787 474 787Q514 787 526 858L566 858Q555 803 532 776.50Q509 750 469 750Q447 750 431 761.50Q415 773 406.50 787Q398 801 385.50 812.50Q373 824 358 824Q337 824 324 801Q311 778 307 753L267 753Z"  horiz-adv-x="625" vert-adv-y="1000"  />

      
      <glyph glyph-name="unic4" unicode="&#xc4;" d="M-25 0L372 700L417 700L544 0L500 0L457 242L160 242L23 0L-25 0M182 282L449 282L399 566L387 650L385 650Q360 596 343 566L182 282M459 788L473 861L519 861L505 788L459 788M322 788L336 861L382 861L368 788L322 788Z"  horiz-adv-x="625" vert-adv-y="1000"  />

      
      <glyph glyph-name="unic5" unicode="&#xc5;" d="M-25 0L372 700L417 700L544 0L500 0L457 242L160 242L23 0L-25 0M182 282L449 282L399 566L387 650L385 650Q360 596 343 566L182 282M410 740Q380 740 364 755.50Q348 771 348 799Q348 828 370.50 851Q393 874 422 874Q452 874 468 858Q484 842 484 815Q484 786 461.50 763Q439 740 410 740M410 775Q426 775 437.50 786.50Q449 798 449 815Q449 826 441.50 833Q434 840 422 840Q406 840 394.50 828.50Q383 817 383 799Q383 775 410 775Z"  horiz-adv-x="625" vert-adv-y="1000"  />

      
      <glyph glyph-name="unic6" unicode="&#xc6;" d="M-31 0L392 700L844 700L836 660L496 660L440 373L719 373L711 333L432 333L375 40L734 40L726 0L324 0L389 333L219 333L18 0L-31 0M243 373L397 373L453 660L417 660L243 373Z"  horiz-adv-x="828" vert-adv-y="1000"  />

      
      <glyph glyph-name="unic7" unicode="&#xc7;" d="M292-93L325-10Q205 0 135 81.50Q65 163 65 286Q65 400 124.50 499Q184 598 280 655Q376 712 482 712Q550 712 615.50 690.50Q681 669 722 624L692 593Q614 671 482 671Q387 671 301.50 620Q216 569 163 479.50Q110 390 110 286Q110 174 178.50 101.50Q247 29 360 29Q427 29 495 54.50Q563 80 615 124L640 91Q590 46 511.50 17Q433-12 360-12L342-60Q366-64 382.50-80.50Q399-97 399-124Q399-163 367.50-183.50Q336-204 297-204Q269-204 249-199L257-162Q270-167 296-167Q320-167 339-157Q358-147 358-124Q358-92 304-92Q296-92 292-93Z"  horiz-adv-x="719" vert-adv-y="1000"  />

      
      <glyph glyph-name="unic8" unicode="&#xc8;" d="M49 0L186 700L569 700L560 660L221 660L165 373L444 373L436 333L158 333L100 40L458 40L451 0L49 0M379 750L322 861L374 861L419 750L379 750Z"  horiz-adv-x="553" vert-adv-y="1000"  />

      
      <glyph glyph-name="unic9" unicode="&#xc9;" d="M49 0L186 700L569 700L560 660L221 660L165 373L444 373L436 333L158 333L100 40L458 40L451 0L49 0M374 750L463 861L523 861L422 750L374 750Z"  horiz-adv-x="553" vert-adv-y="1000"  />

      
      <glyph glyph-name="unica" unicode="&#xca;" d="M49 0L186 700L569 700L560 660L221 660L165 373L444 373L436 333L158 333L100 40L458 40L451 0L49 0M290 750L392 861L444 861L502 750L456 750L416 830L414 830L342 750L290 750Z"  horiz-adv-x="553" vert-adv-y="1000"  />

      
      <glyph glyph-name="unicb" unicode="&#xcb;" d="M49 0L186 700L569 700L560 660L221 660L165 373L444 373L436 333L158 333L100 40L458 40L451 0L49 0M453 788L467 861L513 861L499 788L453 788M316 788L330 861L376 861L362 788L316 788Z"  horiz-adv-x="553" vert-adv-y="1000"  />

      
      <glyph glyph-name="unicc" unicode="&#xcc;" d="M49 0L186 700L229 700L92 0L49 0M197 750L140 861L192 861L237 750L197 750Z"  horiz-adv-x="256" vert-adv-y="1000"  />

      
      <glyph glyph-name="unicd" unicode="&#xcd;" d="M49 0L186 700L229 700L92 0L49 0M192 750L281 861L341 861L240 750L192 750Z"  horiz-adv-x="256" vert-adv-y="1000"  />

      
      <glyph glyph-name="unice" unicode="&#xce;" d="M49 0L186 700L229 700L92 0L49 0M108 750L210 861L262 861L320 750L274 750L234 830L232 830L160 750L108 750Z"  horiz-adv-x="256" vert-adv-y="1000"  />

      
      <glyph glyph-name="unicf" unicode="&#xcf;" d="M49 0L186 700L229 700L92 0L49 0M271 788L285 861L331 861L317 788L271 788M134 788L148 861L194 861L180 788L134 788Z"  horiz-adv-x="256" vert-adv-y="1000"  />

      
      <glyph glyph-name="unid0" unicode="&#xd0;" d="M57 0L122 333L62 333L70 373L130 373L194 700L403 700Q543 700 622.50 629.50Q702 559 702 430Q702 250 584.50 125Q467 0 286 0L57 0M107 40L277 40Q440 40 548.50 151Q657 262 657 428Q657 539 588 599.50Q519 660 398 660L229 660L172 373L356 373L348 333L164 333L107 40Z"  horiz-adv-x="746" vert-adv-y="1000"  />

      
      <glyph glyph-name="unid1" unicode="&#xd1;" d="M49 0L186 700L221 700L513 151L553 63L555 63Q559 116 566 151L673 700L716 700L579 0L544 0L252 549L212 637L210 637Q206 584 199 549L92 0L49 0M322 753Q342 861 418 861Q440 861 456.50 849.50Q473 838 481.50 824Q490 810 502.50 798.50Q515 787 529 787Q569 787 581 858L621 858Q610 803 587 776.50Q564 750 524 750Q502 750 486 761.50Q470 773 461.50 787Q453 801 440.50 812.50Q428 824 413 824Q392 824 379 801Q366 778 362 753L322 753Z"  horiz-adv-x="743" vert-adv-y="1000"  />

      
      <glyph glyph-name="unid2" unicode="&#xd2;" d="M64 288Q64 400 125 498.50Q186 597 284 654.50Q382 712 487 712Q619 712 702 630Q785 548 785 420Q785 306 723.50 205.50Q662 105 564.50 46.50Q467-12 362-12Q230-12 147 72Q64 156 64 288M109 288Q109 174 179.50 101.50Q250 29 362 29Q455 29 542.50 81.50Q630 134 685 225Q740 316 740 419Q740 530 669.50 600.50Q599 671 487 671Q392 671 305 620Q218 569 163.50 479.50Q109 390 109 288M481 750L424 861L476 861L521 750L481 750Z"  horiz-adv-x="826" vert-adv-y="1000"  />

      
      <glyph glyph-name="unid3" unicode="&#xd3;" d="M64 288Q64 400 125 498.50Q186 597 284 654.50Q382 712 487 712Q619 712 702 630Q785 548 785 420Q785 306 723.50 205.50Q662 105 564.50 46.50Q467-12 362-12Q230-12 147 72Q64 156 64 288M109 288Q109 174 179.50 101.50Q250 29 362 29Q455 29 542.50 81.50Q630 134 685 225Q740 316 740 419Q740 530 669.50 600.50Q599 671 487 671Q392 671 305 620Q218 569 163.50 479.50Q109 390 109 288M476 750L565 861L625 861L524 750L476 750Z"  horiz-adv-x="826" vert-adv-y="1000"  />

      
      <glyph glyph-name="unid4" unicode="&#xd4;" d="M64 288Q64 400 125 498.50Q186 597 284 654.50Q382 712 487 712Q619 712 702 630Q785 548 785 420Q785 306 723.50 205.50Q662 105 564.50 46.50Q467-12 362-12Q230-12 147 72Q64 156 64 288M109 288Q109 174 179.50 101.50Q250 29 362 29Q455 29 542.50 81.50Q630 134 685 225Q740 316 740 419Q740 530 669.50 600.50Q599 671 487 671Q392 671 305 620Q218 569 163.50 479.50Q109 390 109 288M392 750L494 861L546 861L604 750L558 750L518 830L516 830L444 750L392 750Z"  horiz-adv-x="826" vert-adv-y="1000"  />

      
      <glyph glyph-name="unid5" unicode="&#xd5;" d="M64 288Q64 400 125 498.50Q186 597 284 654.50Q382 712 487 712Q619 712 702 630Q785 548 785 420Q785 306 723.50 205.50Q662 105 564.50 46.50Q467-12 362-12Q230-12 147 72Q64 156 64 288M109 288Q109 174 179.50 101.50Q250 29 362 29Q455 29 542.50 81.50Q630 134 685 225Q740 316 740 419Q740 530 669.50 600.50Q599 671 487 671Q392 671 305 620Q218 569 163.50 479.50Q109 390 109 288M363 753Q383 861 459 861Q481 861 497.50 849.50Q514 838 522.50 824Q531 810 543.50 798.50Q556 787 570 787Q610 787 622 858L662 858Q651 803 628 776.50Q605 750 565 750Q543 750 527 761.50Q511 773 502.50 787Q494 801 481.50 812.50Q469 824 454 824Q433 824 420 801Q407 778 403 753L363 753Z"  horiz-adv-x="826" vert-adv-y="1000"  />

      
      <glyph glyph-name="unid6" unicode="&#xd6;" d="M64 288Q64 400 125 498.50Q186 597 284 654.50Q382 712 487 712Q619 712 702 630Q785 548 785 420Q785 306 723.50 205.50Q662 105 564.50 46.50Q467-12 362-12Q230-12 147 72Q64 156 64 288M109 288Q109 174 179.50 101.50Q250 29 362 29Q455 29 542.50 81.50Q630 134 685 225Q740 316 740 419Q740 530 669.50 600.50Q599 671 487 671Q392 671 305 620Q218 569 163.50 479.50Q109 390 109 288M555 788L569 861L615 861L601 788L555 788M418 788L432 861L478 861L464 788L418 788Z"  horiz-adv-x="826" vert-adv-y="1000"  />

      
      <glyph glyph-name="unid7" unicode="&#xd7;" d="M32 28L256 283L32 538L60 566L283 313L506 566L534 538L309 283L534 28L506 0L283 253L60 0L32 28Z"  horiz-adv-x="560" vert-adv-y="1000"  />

      
      <glyph glyph-name="unid8" unicode="&#xd8;" d="M78 3L144 75Q64 158 64 288Q64 400 125 498.50Q186 597 284 654.50Q382 712 487 712Q596 712 673 654L737 724L769 697L705 627Q785 544 785 420Q785 306 723.50 205.50Q662 105 564.50 46.50Q467-12 362-12Q251-12 175 47L111-23L78 3M174 107L644 622Q578 671 487 671Q392 671 305 620Q218 569 163.50 479.50Q109 390 109 288Q109 178 174 107M204 79Q270 29 362 29Q455 29 542.50 81.50Q630 134 685 225Q740 316 740 419Q740 524 675 594L204 79Z"  horiz-adv-x="826" vert-adv-y="1000"  />

      
      <glyph glyph-name="unid9" unicode="&#xd9;" d="M84 187Q84 214 90 244L179 700L222 700L133 243Q128 220 128 191Q128 114 176 71.50Q224 29 310 29Q409 29 479.50 87Q550 145 570 245L659 700L702 700L610 235Q588 120 506.50 54Q425-12 310-12Q205-12 144.50 41Q84 94 84 187M429 750L372 861L424 861L469 750L429 750Z"  horiz-adv-x="721" vert-adv-y="1000"  />

      
      <glyph glyph-name="unida" unicode="&#xda;" d="M84 187Q84 214 90 244L179 700L222 700L133 243Q128 220 128 191Q128 114 176 71.50Q224 29 310 29Q409 29 479.50 87Q550 145 570 245L659 700L702 700L610 235Q588 120 506.50 54Q425-12 310-12Q205-12 144.50 41Q84 94 84 187M424 750L513 861L573 861L472 750L424 750Z"  horiz-adv-x="721" vert-adv-y="1000"  />

      
      <glyph glyph-name="unidb" unicode="&#xdb;" d="M84 187Q84 214 90 244L179 700L222 700L133 243Q128 220 128 191Q128 114 176 71.50Q224 29 310 29Q409 29 479.50 87Q550 145 570 245L659 700L702 700L610 235Q588 120 506.50 54Q425-12 310-12Q205-12 144.50 41Q84 94 84 187M340 750L442 861L494 861L552 750L506 750L466 830L464 830L392 750L340 750Z"  horiz-adv-x="721" vert-adv-y="1000"  />

      
      <glyph glyph-name="unidc" unicode="&#xdc;" d="M84 187Q84 214 90 244L179 700L222 700L133 243Q128 220 128 191Q128 114 176 71.50Q224 29 310 29Q409 29 479.50 87Q550 145 570 245L659 700L702 700L610 235Q588 120 506.50 54Q425-12 310-12Q205-12 144.50 41Q84 94 84 187M503 788L517 861L563 861L549 788L503 788M366 788L380 861L426 861L412 788L366 788Z"  horiz-adv-x="721" vert-adv-y="1000"  />

      
      <glyph glyph-name="unidd" unicode="&#xdd;" d="M199 0L259 304L99 700L145 700L256 424L285 345L287 345Q318 388 345 423L564 700L617 700L302 303L242 0L199 0M333 750L422 861L482 861L381 750L333 750Z"  horiz-adv-x="567" vert-adv-y="1000"  />

      
      <glyph glyph-name="unide" unicode="&#xde;" d="M49 0L186 700L229 700L203 570L380 570Q468 570 518.50 526.50Q569 483 569 406Q569 296 496 228Q423 160 321 160L124 160L92 0L49 0M131 200L317 200Q405 200 464.50 255Q524 310 524 406Q524 465 486 497.50Q448 530 380 530L195 530L131 200Z"  horiz-adv-x="593" vert-adv-y="1000"  />

      
      <glyph glyph-name="unidf" unicode="&#xdf;" d="M30 0L134 539Q150 619 212 665.50Q274 712 346 712Q416 712 454.50 677Q493 642 493 590Q493 549 467.50 514Q442 479 411 458.50Q380 438 354.50 411.50Q329 385 329 360Q329 338 355 313.50Q381 289 412.50 268.50Q444 248 470 214Q496 180 496 142Q496 81 444 37Q392-7 324-7Q232-7 166 28L175 72Q197 56 241.50 45Q286 34 323 34Q371 34 411 62Q451 90 451 142Q451 172 424.50 201.50Q398 231 367 250.50Q336 270 309.50 299.50Q283 329 283 359Q283 392 309 423.50Q335 455 365.50 475Q396 495 422 525.50Q448 556 448 588Q448 622 422 646.50Q396 671 346 671Q288 671 238 632.50Q188 594 175 529L72 0L30 0Z"  horiz-adv-x="561" vert-adv-y="1000"  />

      
      <glyph glyph-name="unie0" unicode="&#xe0;" d="M50 22Q50 22 28.50 39Q7 56 7 113Q7 170 39 210.50Q71 251 125.50 270Q180 289 233.50 297Q287 305 347 305L386 305Q393 344 393 369Q393 471 281 471Q199 471 129 423L111 461Q182 512 281 512Q437 512 437 375Q437 350 431 318L369 0L327 0L340 65L352 111L350 111Q327 66 275.50 27Q224-12 157-12Q93-12 50 22M51 117Q51 79 79 53Q107 27 161 27Q236 27 296 94Q356 161 374 243L379 266L347 266Q51 266 51 117M284 589L227 700L279 700L324 589L284 589Z"  horiz-adv-x="508" vert-adv-y="1000"  />

      
      <glyph glyph-name="unie1" unicode="&#xe1;" d="M50 22Q50 22 28.50 39Q7 56 7 113Q7 170 39 210.50Q71 251 125.50 270Q180 289 233.50 297Q287 305 347 305L386 305Q393 344 393 369Q393 471 281 471Q199 471 129 423L111 461Q182 512 281 512Q437 512 437 375Q437 350 431 318L369 0L327 0L340 65L352 111L350 111Q327 66 275.50 27Q224-12 157-12Q93-12 50 22M51 117Q51 79 79 53Q107 27 161 27Q236 27 296 94Q356 161 374 243L379 266L347 266Q51 266 51 117M279 589L368 700L428 700L327 589L279 589Z"  horiz-adv-x="508" vert-adv-y="1000"  />

      
      <glyph glyph-name="unie2" unicode="&#xe2;" d="M50 22Q50 22 28.50 39Q7 56 7 113Q7 170 39 210.50Q71 251 125.50 270Q180 289 233.50 297Q287 305 347 305L386 305Q393 344 393 369Q393 471 281 471Q199 471 129 423L111 461Q182 512 281 512Q437 512 437 375Q437 350 431 318L369 0L327 0L340 65L352 111L350 111Q327 66 275.50 27Q224-12 157-12Q93-12 50 22M51 117Q51 79 79 53Q107 27 161 27Q236 27 296 94Q356 161 374 243L379 266L347 266Q51 266 51 117M195 589L297 700L349 700L407 589L361 589L321 669L319 669L247 589L195 589Z"  horiz-adv-x="508" vert-adv-y="1000"  />

      
      <glyph glyph-name="unie3" unicode="&#xe3;" d="M50 22Q50 22 28.50 39Q7 56 7 113Q7 170 39 210.50Q71 251 125.50 270Q180 289 233.50 297Q287 305 347 305L386 305Q393 344 393 369Q393 471 281 471Q199 471 129 423L111 461Q182 512 281 512Q437 512 437 375Q437 350 431 318L369 0L327 0L340 65L352 111L350 111Q327 66 275.50 27Q224-12 157-12Q93-12 50 22M51 117Q51 79 79 53Q107 27 161 27Q236 27 296 94Q356 161 374 243L379 266L347 266Q51 266 51 117M166 592Q186 700 262 700Q284 700 300.50 688.50Q317 677 325.50 663Q334 649 346.50 637.50Q359 626 373 626Q413 626 425 697L465 697Q454 642 431 615.50Q408 589 368 589Q346 589 330 600.50Q314 612 305.50 626Q297 640 284.50 651.50Q272 663 257 663Q236 663 223 640Q210 617 206 592L166 592Z"  horiz-adv-x="508" vert-adv-y="1000"  />

      
      <glyph glyph-name="unie4" unicode="&#xe4;" d="M50 22Q50 22 28.50 39Q7 56 7 113Q7 170 39 210.50Q71 251 125.50 270Q180 289 233.50 297Q287 305 347 305L386 305Q393 344 393 369Q393 471 281 471Q199 471 129 423L111 461Q182 512 281 512Q437 512 437 375Q437 350 431 318L369 0L327 0L340 65L352 111L350 111Q327 66 275.50 27Q224-12 157-12Q93-12 50 22M51 117Q51 79 79 53Q107 27 161 27Q236 27 296 94Q356 161 374 243L379 266L347 266Q51 266 51 117M358 627L372 700L418 700L404 627L358 627M221 627L235 700L281 700L267 627L221 627Z"  horiz-adv-x="508" vert-adv-y="1000"  />

      
      <glyph glyph-name="unie5" unicode="&#xe5;" d="M50 22Q50 22 28.50 39Q7 56 7 113Q7 170 39 210.50Q71 251 125.50 270Q180 289 233.50 297Q287 305 347 305L386 305Q393 344 393 369Q393 471 281 471Q199 471 129 423L111 461Q182 512 281 512Q437 512 437 375Q437 350 431 318L369 0L327 0L340 65L352 111L350 111Q327 66 275.50 27Q224-12 157-12Q93-12 50 22M51 117Q51 79 79 53Q107 27 161 27Q236 27 296 94Q356 161 374 243L379 266L347 266Q51 266 51 117M309 579Q279 579 263 594.50Q247 610 247 638Q247 667 269.50 690Q292 713 321 713Q351 713 367 697Q383 681 383 654Q383 625 360.50 602Q338 579 309 579M309 614Q325 614 336.50 625.50Q348 637 348 654Q348 665 340.50 672Q333 679 321 679Q305 679 293.50 667.50Q282 656 282 638Q282 614 309 614Z"  horiz-adv-x="508" vert-adv-y="1000"  />

      
      <glyph glyph-name="unie6" unicode="&#xe6;" d="M8 113Q8 171 38 210.50Q68 250 122 268.50Q176 287 227.50 293.50Q279 300 345 300L385 300Q394 350 394 370Q394 471 277 471Q197 471 130 423L112 461Q142 483 188 497.50Q234 512 277 512Q427 512 434 404L436 404Q516 512 649 512Q735 512 779.50 464Q824 416 824 334Q824 320 821 301.50Q818 283 815 272L812 261L420 261Q413 229 413 197Q413 117 458 73Q503 29 579 29Q667 29 747 92L763 54Q730 26 678 7Q626-12 581-12Q499-12 444 28Q389 68 375 137L373 137Q367 122 352.50 101.50Q338 81 312 53Q286 25 244.50 6.50Q203-12 155-12Q91-12 49.50 21Q8 54 8 113M431 300L776 300Q779 321 779 340Q779 407 742.50 440Q706 473 649 473Q578 473 519 428.50Q460 384 431 300M53 116Q53 78 81 52.50Q109 27 162 27Q238 27 296.50 92Q355 157 373 239L378 261L309 261Q53 261 53 116Z"  horiz-adv-x="868" vert-adv-y="1000"  />

      
      <glyph glyph-name="unie7" unicode="&#xe7;" d="M191-93L225-9Q142 2 90.50 57Q39 112 39 197Q39 333 133 422.50Q227 512 344 512Q395 512 443 494Q491 476 520 441L490 410Q466 438 427 454.50Q388 471 346 471Q246 471 164.50 394Q83 317 83 201Q83 123 133.50 76Q184 29 261 29Q365 29 442 101L458 63Q421 29 369 8.50Q317-12 263-12L259-12L241-60Q265-64 281.50-80.50Q298-97 298-124Q298-163 266.50-183.50Q235-204 196-204Q168-204 148-199L156-162Q169-167 195-167Q219-167 238-157Q257-147 257-124Q257-92 203-92Q195-92 191-93Z"  horiz-adv-x="541" vert-adv-y="1000"  />

      
      <glyph glyph-name="unie8" unicode="&#xe8;" d="M39 197Q39 321 123 416.50Q207 512 330 512Q417 512 460.50 463.50Q504 415 504 335Q504 302 491 257L90 257Q84 228 84 202Q84 126 130 77.50Q176 29 260 29Q349 29 427 92L443 54Q410 27 360 7.50Q310-12 260-12Q162-12 100.50 45Q39 102 39 197M100 296L455 296Q459 311 459 338Q459 405 423.50 439Q388 473 330 473Q257 473 193.50 426.50Q130 380 100 296M334 589L277 700L329 700L374 589L334 589Z"  horiz-adv-x="548" vert-adv-y="1000"  />

      
      <glyph glyph-name="unie9" unicode="&#xe9;" d="M39 197Q39 321 123 416.50Q207 512 330 512Q417 512 460.50 463.50Q504 415 504 335Q504 302 491 257L90 257Q84 228 84 202Q84 126 130 77.50Q176 29 260 29Q349 29 427 92L443 54Q410 27 360 7.50Q310-12 260-12Q162-12 100.50 45Q39 102 39 197M100 296L455 296Q459 311 459 338Q459 405 423.50 439Q388 473 330 473Q257 473 193.50 426.50Q130 380 100 296M329 589L418 700L478 700L377 589L329 589Z"  horiz-adv-x="548" vert-adv-y="1000"  />

      
      <glyph glyph-name="uniea" unicode="&#xea;" d="M39 197Q39 321 123 416.50Q207 512 330 512Q417 512 460.50 463.50Q504 415 504 335Q504 302 491 257L90 257Q84 228 84 202Q84 126 130 77.50Q176 29 260 29Q349 29 427 92L443 54Q410 27 360 7.50Q310-12 260-12Q162-12 100.50 45Q39 102 39 197M100 296L455 296Q459 311 459 338Q459 405 423.50 439Q388 473 330 473Q257 473 193.50 426.50Q130 380 100 296M245 589L347 700L399 700L457 589L411 589L371 669L369 669L297 589L245 589Z"  horiz-adv-x="548" vert-adv-y="1000"  />

      
      <glyph glyph-name="unieb" unicode="&#xeb;" d="M39 197Q39 321 123 416.50Q207 512 330 512Q417 512 460.50 463.50Q504 415 504 335Q504 302 491 257L90 257Q84 228 84 202Q84 126 130 77.50Q176 29 260 29Q349 29 427 92L443 54Q410 27 360 7.50Q310-12 260-12Q162-12 100.50 45Q39 102 39 197M100 296L455 296Q459 311 459 338Q459 405 423.50 439Q388 473 330 473Q257 473 193.50 426.50Q130 380 100 296M408 627L422 700L468 700L454 627L408 627M271 627L285 700L331 700L317 627L271 627Z"  horiz-adv-x="548" vert-adv-y="1000"  />

      
      <glyph glyph-name="uniec" unicode="&#xec;" d="M30 0L127 500L169 500L72 0L30 0M145 589L88 700L140 700L185 589L145 589Z"  horiz-adv-x="216" vert-adv-y="1000"  />

      
      <glyph glyph-name="unied" unicode="&#xed;" d="M30 0L127 500L169 500L72 0L30 0M140 589L229 700L289 700L188 589L140 589Z"  horiz-adv-x="216" vert-adv-y="1000"  />

      
      <glyph glyph-name="uniee" unicode="&#xee;" d="M30 0L127 500L169 500L72 0L30 0M56 589L158 700L210 700L268 589L222 589L182 669L180 669L108 589L56 589Z"  horiz-adv-x="216" vert-adv-y="1000"  />

      
      <glyph glyph-name="unief" unicode="&#xef;" d="M30 0L127 500L169 500L72 0L30 0M219 627L233 700L279 700L265 627L219 627M82 627L96 700L142 700L128 627L82 627Z"  horiz-adv-x="216" vert-adv-y="1000"  />

      
      <glyph glyph-name="unif0" unicode="&#xf0;" d="M36 183Q36 292 114 380Q192 468 320 468Q352 468 380.50 461Q409 454 426 444Q443 434 455.50 423.50Q468 413 473 406L478 399L480 399Q463 516 378 585L191 505L181 542L342 611Q283 646 199 670L217 705Q319 677 386 630L525 689L536 652L420 603Q526 508 526 354Q526 298 508.50 237Q491 176 457 119Q423 62 363.50 25Q304-12 229-12Q136-12 86 44Q36 100 36 183M80 185Q80 118 119 73Q158 28 229 28Q332 28 402.50 116.50Q473 205 473 297Q473 356 431.50 392Q390 428 319 428Q222 428 151 356Q80 284 80 185Z"  horiz-adv-x="576" vert-adv-y="1000"  />

      
      <glyph glyph-name="unif1" unicode="&#xf1;" d="M30 0L127 500L169 500L154 417L140 371L142 371Q167 420 231 466Q295 512 377 512Q446 512 481 479.50Q516 447 516 386Q516 357 508 317L447 0L405 0L463 302Q472 349 472 378Q472 424 446 447.50Q420 471 376 471Q284 471 210 401Q136 331 117 234L72 0L30 0M226 592Q246 700 322 700Q344 700 360.50 688.50Q377 677 385.50 663Q394 649 406.50 637.50Q419 626 433 626Q473 626 485 697L525 697Q514 642 491 615.50Q468 589 428 589Q406 589 390 600.50Q374 612 365.50 626Q357 640 344.50 651.50Q332 663 317 663Q296 663 283 640Q270 617 266 592L226 592Z"  horiz-adv-x="585" vert-adv-y="1000"  />

      
      <glyph glyph-name="unif2" unicode="&#xf2;" d="M38 205Q38 330 131.50 421Q225 512 344 512Q442 512 503.50 452Q565 392 565 298Q565 172 471 80Q377-12 259-12Q161-12 99.50 49Q38 110 38 205M82 206Q82 128 131.50 78.50Q181 29 259 29Q359 29 440 108.50Q521 188 521 297Q521 373 471.50 422Q422 471 344 471Q242 471 162 392.50Q82 314 82 206M347 589L290 700L342 700L387 589L347 589Z"  horiz-adv-x="620" vert-adv-y="1000"  />

      
      <glyph glyph-name="unif3" unicode="&#xf3;" d="M38 205Q38 330 131.50 421Q225 512 344 512Q442 512 503.50 452Q565 392 565 298Q565 172 471 80Q377-12 259-12Q161-12 99.50 49Q38 110 38 205M82 206Q82 128 131.50 78.50Q181 29 259 29Q359 29 440 108.50Q521 188 521 297Q521 373 471.50 422Q422 471 344 471Q242 471 162 392.50Q82 314 82 206M342 589L431 700L491 700L390 589L342 589Z"  horiz-adv-x="620" vert-adv-y="1000"  />

      
      <glyph glyph-name="unif4" unicode="&#xf4;" d="M38 205Q38 330 131.50 421Q225 512 344 512Q442 512 503.50 452Q565 392 565 298Q565 172 471 80Q377-12 259-12Q161-12 99.50 49Q38 110 38 205M82 206Q82 128 131.50 78.50Q181 29 259 29Q359 29 440 108.50Q521 188 521 297Q521 373 471.50 422Q422 471 344 471Q242 471 162 392.50Q82 314 82 206M258 589L360 700L412 700L470 589L424 589L384 669L382 669L310 589L258 589Z"  horiz-adv-x="620" vert-adv-y="1000"  />

      
      <glyph glyph-name="unif5" unicode="&#xf5;" d="M38 205Q38 330 131.50 421Q225 512 344 512Q442 512 503.50 452Q565 392 565 298Q565 172 471 80Q377-12 259-12Q161-12 99.50 49Q38 110 38 205M82 206Q82 128 131.50 78.50Q181 29 259 29Q359 29 440 108.50Q521 188 521 297Q521 373 471.50 422Q422 471 344 471Q242 471 162 392.50Q82 314 82 206M229 592Q249 700 325 700Q347 700 363.50 688.50Q380 677 388.50 663Q397 649 409.50 637.50Q422 626 436 626Q476 626 488 697L528 697Q517 642 494 615.50Q471 589 431 589Q409 589 393 600.50Q377 612 368.50 626Q360 640 347.50 651.50Q335 663 320 663Q299 663 286 640Q273 617 269 592L229 592Z"  horiz-adv-x="620" vert-adv-y="1000"  />

      
      <glyph glyph-name="unif6" unicode="&#xf6;" d="M38 205Q38 330 131.50 421Q225 512 344 512Q442 512 503.50 452Q565 392 565 298Q565 172 471 80Q377-12 259-12Q161-12 99.50 49Q38 110 38 205M82 206Q82 128 131.50 78.50Q181 29 259 29Q359 29 440 108.50Q521 188 521 297Q521 373 471.50 422Q422 471 344 471Q242 471 162 392.50Q82 314 82 206M421 627L435 700L481 700L467 627L421 627M284 627L298 700L344 700L330 627L284 627Z"  horiz-adv-x="620" vert-adv-y="1000"  />

      
      <glyph glyph-name="unif7" unicode="&#xf7;" d="M248 431L248 490L305 490L305 431L248 431M39 263L39 303L515 303L515 263L39 263M248 76L248 135L305 135L305 76L248 76Z"  horiz-adv-x="560" vert-adv-y="1000"  />

      
      <glyph glyph-name="unif8" unicode="&#xf8;" d="M49-1L97 51Q38 112 38 205Q38 330 131.50 421Q225 512 344 512Q423 512 481 471L531 526L563 498L512 442Q565 383 565 298Q565 172 471 80Q377-12 259-12Q185-12 130 24L81-29L49-1M126 83L451 439Q405 471 344 471Q242 471 162 392.50Q82 314 82 206Q82 132 126 83M159 56Q203 29 259 29Q359 29 440 108.50Q521 188 521 297Q521 363 482 410L159 56Z"  horiz-adv-x="620" vert-adv-y="1000"  />

      
      <glyph glyph-name="unif9" unicode="&#xf9;" d="M52 114Q52 143 60 183L121 500L163 500L105 200Q96 156 96 122Q96 78 118 53.50Q140 29 195 29Q285 29 357 102Q429 175 446 268L491 500L533 500L436 0L394 0L410 83L423 129L421 129Q394 78 332.50 33Q271-12 188-12Q128-12 90 18.50Q52 49 52 114M324 589L267 700L319 700L364 589L324 589Z"  horiz-adv-x="580" vert-adv-y="1000"  />

      
      <glyph glyph-name="unifa" unicode="&#xfa;" d="M52 114Q52 143 60 183L121 500L163 500L105 200Q96 156 96 122Q96 78 118 53.50Q140 29 195 29Q285 29 357 102Q429 175 446 268L491 500L533 500L436 0L394 0L410 83L423 129L421 129Q394 78 332.50 33Q271-12 188-12Q128-12 90 18.50Q52 49 52 114M319 589L408 700L468 700L367 589L319 589Z"  horiz-adv-x="580" vert-adv-y="1000"  />

      
      <glyph glyph-name="unifb" unicode="&#xfb;" d="M52 114Q52 143 60 183L121 500L163 500L105 200Q96 156 96 122Q96 78 118 53.50Q140 29 195 29Q285 29 357 102Q429 175 446 268L491 500L533 500L436 0L394 0L410 83L423 129L421 129Q394 78 332.50 33Q271-12 188-12Q128-12 90 18.50Q52 49 52 114M235 589L337 700L389 700L447 589L401 589L361 669L359 669L287 589L235 589Z"  horiz-adv-x="580" vert-adv-y="1000"  />

      
      <glyph glyph-name="unifc" unicode="&#xfc;" d="M52 114Q52 143 60 183L121 500L163 500L105 200Q96 156 96 122Q96 78 118 53.50Q140 29 195 29Q285 29 357 102Q429 175 446 268L491 500L533 500L436 0L394 0L410 83L423 129L421 129Q394 78 332.50 33Q271-12 188-12Q128-12 90 18.50Q52 49 52 114M398 627L412 700L458 700L444 627L398 627M261 627L275 700L321 700L307 627L261 627Z"  horiz-adv-x="580" vert-adv-y="1000"  />

      
      <glyph glyph-name="unifd" unicode="&#xfd;" d="M-48-149Q-27-170 10-170Q71-170 126-81L179 4L67 500L111 500L198 94L207 47L208 47Q221 70 235 94L479 500L527 500L148-120Q92-210 10-210Q-36-210-72-182L-48-149M290 589L379 700L439 700L338 589L290 589Z"  horiz-adv-x="520" vert-adv-y="1000"  />

      
      <glyph glyph-name="unife" unicode="&#xfe;" d="M83 52L34-200L-8-200L166 700L208 700L159 445L147 400L149 400Q176 447 226 479.50Q276 512 341 512Q428 512 476 459.50Q524 407 524 315Q524 175 442.50 81.50Q361-12 254-12Q193-12 149.50 17Q106 46 91 101L89 101Q88 78 83 52M115 187Q115 118 150 73.50Q185 29 252 29Q339 29 409 108Q479 187 479 313Q479 387 442 429Q405 471 341 471Q274 471 221 426.50Q168 382 141.50 318Q115 254 115 187Z"  horiz-adv-x="579" vert-adv-y="1000"  />

      
      <glyph glyph-name="uniff" unicode="&#xff;" d="M-48-149Q-27-170 10-170Q71-170 126-81L179 4L67 500L111 500L198 94L207 47L208 47Q221 70 235 94L479 500L527 500L148-120Q92-210 10-210Q-36-210-72-182L-48-149M369 627L383 700L429 700L415 627L369 627M232 627L246 700L292 700L278 627L232 627Z"  horiz-adv-x="520" vert-adv-y="1000"  />

      
      <glyph glyph-name="uni0100" unicode="&#x0100;" d="M-25 0L372 700L417 700L544 0L500 0L457 242L160 242L23 0L-25 0M182 282L449 282L399 566L387 650L385 650Q360 596 343 566L182 282M293 786L300 826L539 826L532 786L293 786Z"  horiz-adv-x="625" vert-adv-y="1000"  />

      
      <glyph glyph-name="uni0101" unicode="&#x0101;" d="M50 22Q50 22 28.50 39Q7 56 7 113Q7 170 39 210.50Q71 251 125.50 270Q180 289 233.50 297Q287 305 347 305L386 305Q393 344 393 369Q393 471 281 471Q199 471 129 423L111 461Q182 512 281 512Q437 512 437 375Q437 350 431 318L369 0L327 0L340 65L352 111L350 111Q327 66 275.50 27Q224-12 157-12Q93-12 50 22M51 117Q51 79 79 53Q107 27 161 27Q236 27 296 94Q356 161 374 243L379 266L347 266Q51 266 51 117M192 625L199 665L438 665L431 625L192 625Z"  horiz-adv-x="508" vert-adv-y="1000"  />

      
      <glyph glyph-name="uni0102" unicode="&#x0102;" d="M-25 0L372 700L417 700L544 0L500 0L457 242L160 242L23 0L-25 0M182 282L449 282L399 566L387 650L385 650Q360 596 343 566L182 282M407 747Q372 747 346.50 767.50Q321 788 321 827Q321 845 326 861L366 861Q361 843 361 831Q361 785 412 785Q440 785 461 803Q482 821 488 861L528 861Q521 801 487 774Q453 747 407 747Z"  horiz-adv-x="625" vert-adv-y="1000"  />

      
      <glyph glyph-name="uni0103" unicode="&#x0103;" d="M50 22Q50 22 28.50 39Q7 56 7 113Q7 170 39 210.50Q71 251 125.50 270Q180 289 233.50 297Q287 305 347 305L386 305Q393 344 393 369Q393 471 281 471Q199 471 129 423L111 461Q182 512 281 512Q437 512 437 375Q437 350 431 318L369 0L327 0L340 65L352 111L350 111Q327 66 275.50 27Q224-12 157-12Q93-12 50 22M51 117Q51 79 79 53Q107 27 161 27Q236 27 296 94Q356 161 374 243L379 266L347 266Q51 266 51 117M306 586Q271 586 245.50 606.50Q220 627 220 666Q220 684 225 700L265 700Q260 682 260 670Q260 624 311 624Q339 624 360 642Q381 660 387 700L427 700Q420 640 386 613Q352 586 306 586Z"  horiz-adv-x="508" vert-adv-y="1000"  />

      
      <glyph glyph-name="uni0104" unicode="&#x0104;" d="M-25 0L372 700L417 700L544 0L542 0Q437-66 437-119Q437-137 451.50-148.50Q466-160 480-162L495-165L479-204Q475-204 469.50-203Q464-202 449-197.50Q434-193 422.50-185Q411-177 401.50-161.50Q392-146 392-125Q392-56 497 13L457 242L160 242L23 0L-25 0M182 282L449 282L399 566L387 650L385 650Q360 596 343 566L182 282Z"  horiz-adv-x="625" vert-adv-y="1000"  />

      
      <glyph glyph-name="uni0105" unicode="&#x0105;" d="M50 22Q50 22 28.50 39Q7 56 7 113Q7 170 39 210.50Q71 251 125.50 270Q180 289 233.50 297Q287 305 347 305L386 305Q393 344 393 369Q393 471 281 471Q199 471 129 423L111 461Q182 512 281 512Q437 512 437 375Q437 350 431 318L369 0Q264-66 264-119Q264-137 278.50-148.50Q293-160 308-162L322-165L306-204Q302-204 296.50-203Q291-202 276-197.50Q261-193 249.50-185Q238-177 228.50-161.50Q219-146 219-125Q219-53 330 17L340 65L352 111L350 111Q327 66 275.50 27Q224-12 157-12Q93-12 50 22M51 117Q51 79 79 53Q107 27 161 27Q236 27 296 94Q356 161 374 243L379 266L347 266Q51 266 51 117Z"  horiz-adv-x="508" vert-adv-y="1000"  />

      
      <glyph glyph-name="uni0106" unicode="&#x0106;" d="M65 286Q65 400 124.50 499Q184 598 280 655Q376 712 482 712Q550 712 615.50 690.50Q681 669 722 624L692 593Q614 671 482 671Q387 671 301.50 620Q216 569 163 479.50Q110 390 110 286Q110 174 178.50 101.50Q247 29 360 29Q427 29 495 54.50Q563 80 615 124L640 91Q590 46 511.50 17Q433-12 360-12Q224-12 144.50 71Q65 154 65 286M467 750L556 861L616 861L515 750L467 750Z"  horiz-adv-x="719" vert-adv-y="1000"  />

      
      <glyph glyph-name="uni0107" unicode="&#x0107;" d="M38 197Q38 333 132 422.50Q226 512 343 512Q394 512 442 494Q490 476 519 441L489 410Q465 438 426 454.50Q387 471 345 471Q245 471 163.50 394Q82 317 82 201Q82 123 132.50 76Q183 29 260 29Q364 29 441 101L457 63Q420 29 368 8.50Q316-12 262-12Q164-12 101 45Q38 102 38 197M327 589L416 700L476 700L375 589L327 589Z"  horiz-adv-x="540" vert-adv-y="1000"  />

      
      <glyph glyph-name="uni0108" unicode="&#x0108;" d="M65 286Q65 400 124.50 499Q184 598 280 655Q376 712 482 712Q550 712 615.50 690.50Q681 669 722 624L692 593Q614 671 482 671Q387 671 301.50 620Q216 569 163 479.50Q110 390 110 286Q110 174 178.50 101.50Q247 29 360 29Q427 29 495 54.50Q563 80 615 124L640 91Q590 46 511.50 17Q433-12 360-12Q224-12 144.50 71Q65 154 65 286M383 750L485 861L537 861L595 750L549 750L509 830L507 830L435 750L383 750Z"  horiz-adv-x="719" vert-adv-y="1000"  />

      
      <glyph glyph-name="uni0109" unicode="&#x0109;" d="M38 197Q38 333 132 422.50Q226 512 343 512Q394 512 442 494Q490 476 519 441L489 410Q465 438 426 454.50Q387 471 345 471Q245 471 163.50 394Q82 317 82 201Q82 123 132.50 76Q183 29 260 29Q364 29 441 101L457 63Q420 29 368 8.50Q316-12 262-12Q164-12 101 45Q38 102 38 197M243 589L345 700L397 700L455 589L409 589L369 669L367 669L295 589L243 589Z"  horiz-adv-x="540" vert-adv-y="1000"  />

      
      <glyph glyph-name="uni010A" unicode="&#x010A;" d="M65 286Q65 400 124.50 499Q184 598 280 655Q376 712 482 712Q550 712 615.50 690.50Q681 669 722 624L692 593Q614 671 482 671Q387 671 301.50 620Q216 569 163 479.50Q110 390 110 286Q110 174 178.50 101.50Q247 29 360 29Q427 29 495 54.50Q563 80 615 124L640 91Q590 46 511.50 17Q433-12 360-12Q224-12 144.50 71Q65 154 65 286M477 788L491 861L537 861L523 788L477 788Z"  horiz-adv-x="719" vert-adv-y="1000"  />

      
      <glyph glyph-name="uni010B" unicode="&#x010B;" d="M38 197Q38 333 132 422.50Q226 512 343 512Q394 512 442 494Q490 476 519 441L489 410Q465 438 426 454.50Q387 471 345 471Q245 471 163.50 394Q82 317 82 201Q82 123 132.50 76Q183 29 260 29Q364 29 441 101L457 63Q420 29 368 8.50Q316-12 262-12Q164-12 101 45Q38 102 38 197M337 627L351 700L397 700L383 627L337 627Z"  horiz-adv-x="540" vert-adv-y="1000"  />

      
      <glyph glyph-name="uni010C" unicode="&#x010C;" d="M65 286Q65 400 124.50 499Q184 598 280 655Q376 712 482 712Q550 712 615.50 690.50Q681 669 722 624L692 593Q614 671 482 671Q387 671 301.50 620Q216 569 163 479.50Q110 390 110 286Q110 174 178.50 101.50Q247 29 360 29Q427 29 495 54.50Q563 80 615 124L640 91Q590 46 511.50 17Q433-12 360-12Q224-12 144.50 71Q65 154 65 286M469 750L411 861L457 861L497 781L499 781L571 861L623 861L521 750L469 750Z"  horiz-adv-x="719" vert-adv-y="1000"  />

      
      <glyph glyph-name="uni010D" unicode="&#x010D;" d="M38 197Q38 333 132 422.50Q226 512 343 512Q394 512 442 494Q490 476 519 441L489 410Q465 438 426 454.50Q387 471 345 471Q245 471 163.50 394Q82 317 82 201Q82 123 132.50 76Q183 29 260 29Q364 29 441 101L457 63Q420 29 368 8.50Q316-12 262-12Q164-12 101 45Q38 102 38 197M329 589L271 700L317 700L357 620L359 620L431 700L483 700L381 589L329 589Z"  horiz-adv-x="540" vert-adv-y="1000"  />

      
      <glyph glyph-name="uni010E" unicode="&#x010E;" d="M49 0L186 700L395 700Q535 700 614.50 629.50Q694 559 694 430Q694 250 576.50 125Q459 0 278 0L49 0M99 40L269 40Q432 40 540.50 151Q649 262 649 428Q649 539 580 599.50Q511 660 390 660L221 660L99 40M410 750L352 861L398 861L438 781L440 781L512 861L564 861L462 750L410 750Z"  horiz-adv-x="738" vert-adv-y="1000"  />

      
      <glyph glyph-name="uni010F" unicode="&#x010F;" d="M39 185Q39 326 120.50 419Q202 512 311 512Q370 512 413.50 482.50Q457 453 472 399L474 399Q474 422 479 445L529 700L571 700L435 0L393 0L404 58L416 101L414 101Q386 54 335.50 21Q285-12 222-12Q134-12 86.50 40.50Q39 93 39 185M83 187Q83 113 120 71Q157 29 222 29Q289 29 342.50 74Q396 119 422 184Q448 249 448 316Q448 384 413.50 427.50Q379 471 311 471Q224 471 153.50 392Q83 313 83 187M639 700L687 700L687 687Q687 634 645 566L606 566Q642 627 642 672Q642 685 639 700Z"  horiz-adv-x="579" vert-adv-y="1000"  />

      
      <glyph glyph-name="uni0110" unicode="&#x0110;" d="M57 0L122 333L62 333L70 373L130 373L194 700L403 700Q543 700 622.50 629.50Q702 559 702 430Q702 250 584.50 125Q467 0 286 0L57 0M107 40L277 40Q440 40 548.50 151Q657 262 657 428Q657 539 588 599.50Q519 660 398 660L229 660L172 373L356 373L348 333L164 333L107 40Z"  horiz-adv-x="746" vert-adv-y="1000"  />

      
      <glyph glyph-name="uni0111" unicode="&#x0111;" d="M39 185Q39 326 120.50 419Q202 512 311 512Q370 512 413.50 482.50Q457 453 472 399L474 399Q474 422 479 445L503 569L370 569L378 609L511 609L529 700L571 700L553 609L636 609L628 569L545 569L435 0L393 0L404 58L416 101L414 101Q386 54 335.50 21Q285-12 222-12Q134-12 86.50 40.50Q39 93 39 185M83 187Q83 113 120 71Q157 29 222 29Q289 29 342.50 74Q396 119 422 184Q448 249 448 316Q448 384 413.50 427.50Q379 471 311 471Q224 471 153.50 392Q83 313 83 187Z"  horiz-adv-x="579" vert-adv-y="1000"  />

      
      <glyph glyph-name="uni0112" unicode="&#x0112;" d="M49 0L186 700L569 700L560 660L221 660L165 373L444 373L436 333L158 333L100 40L458 40L451 0L49 0M287 786L294 826L533 826L526 786L287 786Z"  horiz-adv-x="553" vert-adv-y="1000"  />

      
      <glyph glyph-name="uni0113" unicode="&#x0113;" d="M39 197Q39 321 123 416.50Q207 512 330 512Q417 512 460.50 463.50Q504 415 504 335Q504 302 491 257L90 257Q84 228 84 202Q84 126 130 77.50Q176 29 260 29Q349 29 427 92L443 54Q410 27 360 7.50Q310-12 260-12Q162-12 100.50 45Q39 102 39 197M100 296L455 296Q459 311 459 338Q459 405 423.50 439Q388 473 330 473Q257 473 193.50 426.50Q130 380 100 296M242 625L249 665L488 665L481 625L242 625Z"  horiz-adv-x="548" vert-adv-y="1000"  />

      
      <glyph glyph-name="uni0114" unicode="&#x0114;" d="M49 0L186 700L569 700L560 660L221 660L165 373L444 373L436 333L158 333L100 40L458 40L451 0L49 0M401 747Q366 747 340.50 767.50Q315 788 315 827Q315 845 320 861L360 861Q355 843 355 831Q355 785 406 785Q434 785 455 803Q476 821 482 861L522 861Q515 801 481 774Q447 747 401 747Z"  horiz-adv-x="553" vert-adv-y="1000"  />

      
      <glyph glyph-name="uni0115" unicode="&#x0115;" d="M39 197Q39 321 123 416.50Q207 512 330 512Q417 512 460.50 463.50Q504 415 504 335Q504 302 491 257L90 257Q84 228 84 202Q84 126 130 77.50Q176 29 260 29Q349 29 427 92L443 54Q410 27 360 7.50Q310-12 260-12Q162-12 100.50 45Q39 102 39 197M100 296L455 296Q459 311 459 338Q459 405 423.50 439Q388 473 330 473Q257 473 193.50 426.50Q130 380 100 296M356 586Q321 586 295.50 606.50Q270 627 270 666Q270 684 275 700L315 700Q310 682 310 670Q310 624 361 624Q389 624 410 642Q431 660 437 700L477 700Q470 640 436 613Q402 586 356 586Z"  horiz-adv-x="548" vert-adv-y="1000"  />

      
      <glyph glyph-name="uni0116" unicode="&#x0116;" d="M49 0L186 700L569 700L560 660L221 660L165 373L444 373L436 333L158 333L100 40L458 40L451 0L49 0M384 788L398 861L444 861L430 788L384 788Z"  horiz-adv-x="553" vert-adv-y="1000"  />

      
      <glyph glyph-name="uni0117" unicode="&#x0117;" d="M39 197Q39 321 123 416.50Q207 512 330 512Q417 512 460.50 463.50Q504 415 504 335Q504 302 491 257L90 257Q84 228 84 202Q84 126 130 77.50Q176 29 260 29Q349 29 427 92L443 54Q410 27 360 7.50Q310-12 260-12Q162-12 100.50 45Q39 102 39 197M100 296L455 296Q459 311 459 338Q459 405 423.50 439Q388 473 330 473Q257 473 193.50 426.50Q130 380 100 296M339 627L353 700L399 700L385 627L339 627Z"  horiz-adv-x="548" vert-adv-y="1000"  />

      
      <glyph glyph-name="uni0118" unicode="&#x0118;" d="M49 0L186 700L569 700L560 660L221 660L165 373L444 373L436 333L158 333L100 40L458 40L451 0Q417-21 384.50-54Q352-87 352-119Q352-137 366.50-148.50Q381-160 396-162L410-165L394-204Q390-204 384.50-203Q379-202 364-197.50Q349-193 337.50-185Q326-177 316.50-161.50Q307-146 307-125Q307-66 391-2L391 0L49 0Z"  horiz-adv-x="553" vert-adv-y="1000"  />

      
      <glyph glyph-name="uni0119" unicode="&#x0119;" d="M39 197Q39 321 123 416.50Q207 512 330 512Q417 512 460.50 463.50Q504 415 504 335Q504 319 501 299.50Q498 280 494 268L491 257L90 257Q84 224 84 202Q84 121 133 75Q182 29 260 29Q302 29 344 44.50Q386 60 406 76L427 92L443 54Q434 47 380 13.50Q326-20 289.50-53.50Q253-87 253-119Q253-137 267.50-148.50Q282-160 296-162L311-165L295-204Q291-204 285.50-203Q280-202 265-197.50Q250-193 238.50-185Q227-177 217.50-161.50Q208-146 208-125Q208-70 283-12L283-10Q180-21 109.50 37.50Q39 96 39 197M100 296L455 296Q459 315 459 338Q459 405 423.50 439Q388 473 330 473Q257 473 193.50 426.50Q130 380 100 296Z"  horiz-adv-x="549" vert-adv-y="1000"  />

      
      <glyph glyph-name="uni011A" unicode="&#x011A;" d="M49 0L186 700L569 700L560 660L221 660L165 373L444 373L436 333L158 333L100 40L458 40L451 0L49 0M376 750L318 861L364 861L404 781L406 781L478 861L530 861L428 750L376 750Z"  horiz-adv-x="553" vert-adv-y="1000"  />

      
      <glyph glyph-name="uni011B" unicode="&#x011B;" d="M39 197Q39 321 123 416.50Q207 512 330 512Q417 512 460.50 463.50Q504 415 504 335Q504 302 491 257L90 257Q84 228 84 202Q84 126 130 77.50Q176 29 260 29Q349 29 427 92L443 54Q410 27 360 7.50Q310-12 260-12Q162-12 100.50 45Q39 102 39 197M100 296L455 296Q459 311 459 338Q459 405 423.50 439Q388 473 330 473Q257 473 193.50 426.50Q130 380 100 296M331 589L273 700L319 700L359 620L361 620L433 700L485 700L383 589L331 589Z"  horiz-adv-x="548" vert-adv-y="1000"  />

      
      <glyph glyph-name="uni011C" unicode="&#x011C;" d="M63 277Q63 451 190 581.50Q317 712 482 712Q631 712 719 634L689 602Q654 634 597 652.50Q540 671 482 671Q334 671 221 553.50Q108 436 108 277Q108 167 174.50 98Q241 29 351 29Q493 29 616 152L641 279L517 279L524 319L692 319L630 0L587 0L599 62L606 92L604 92Q600 88 592 81Q584 74 558 56Q532 38 504.50 24Q477 10 435-1Q393-12 351-12Q221-12 142 69Q63 150 63 277M379 750L481 861L533 861L591 750L545 750L505 830L503 830L431 750L379 750Z"  horiz-adv-x="754" vert-adv-y="1000"  />

      
      <glyph glyph-name="uni011D" unicode="&#x011D;" d="M32-136Q88-169 162-169Q246-169 306.50-126Q367-83 385 3L396 56L409 102L407 102Q343 0 229 0Q142 0 91 53Q40 106 40 196Q40 269 69 340Q98 411 160 461.50Q222 512 302 512Q363 512 408.50 489Q454 466 467 414L469 414Q468 426 470 438L482 500L524 500L427-2Q406-109 334-159.50Q262-210 167-210Q80-210 8-171L32-136M84 197Q84 124 123 82.50Q162 41 230 41Q283 41 325 69Q367 97 392.50 141.50Q418 186 431 236.50Q444 287 444 337Q444 471 304 471Q204 471 144 387Q84 303 84 197M232 589L334 700L386 700L444 589L398 589L358 669L356 669L284 589L232 589Z"  horiz-adv-x="571" vert-adv-y="1000"  />

      
      <glyph glyph-name="uni011E" unicode="&#x011E;" d="M63 277Q63 451 190 581.50Q317 712 482 712Q631 712 719 634L689 602Q654 634 597 652.50Q540 671 482 671Q334 671 221 553.50Q108 436 108 277Q108 167 174.50 98Q241 29 351 29Q493 29 616 152L641 279L517 279L524 319L692 319L630 0L587 0L599 62L606 92L604 92Q600 88 592 81Q584 74 558 56Q532 38 504.50 24Q477 10 435-1Q393-12 351-12Q221-12 142 69Q63 150 63 277M488 747Q453 747 427.50 767.50Q402 788 402 827Q402 845 407 861L447 861Q442 843 442 831Q442 785 493 785Q521 785 542 803Q563 821 569 861L609 861Q602 801 568 774Q534 747 488 747Z"  horiz-adv-x="754" vert-adv-y="1000"  />

      
      <glyph glyph-name="uni011F" unicode="&#x011F;" d="M32-136Q88-169 162-169Q246-169 306.50-126Q367-83 385 3L396 56L409 102L407 102Q343 0 229 0Q142 0 91 53Q40 106 40 196Q40 269 69 340Q98 411 160 461.50Q222 512 302 512Q363 512 408.50 489Q454 466 467 414L469 414Q468 426 470 438L482 500L524 500L427-2Q406-109 334-159.50Q262-210 167-210Q80-210 8-171L32-136M84 197Q84 124 123 82.50Q162 41 230 41Q283 41 325 69Q367 97 392.50 141.50Q418 186 431 236.50Q444 287 444 337Q444 471 304 471Q204 471 144 387Q84 303 84 197M341 586Q306 586 280.50 606.50Q255 627 255 666Q255 684 260 700L300 700Q295 682 295 670Q295 624 346 624Q374 624 395 642Q416 660 422 700L462 700Q455 640 421 613Q387 586 341 586Z"  horiz-adv-x="571" vert-adv-y="1000"  />

      
      <glyph glyph-name="uni0120" unicode="&#x0120;" d="M63 277Q63 451 190 581.50Q317 712 482 712Q631 712 719 634L689 602Q654 634 597 652.50Q540 671 482 671Q334 671 221 553.50Q108 436 108 277Q108 167 174.50 98Q241 29 351 29Q493 29 616 152L641 279L517 279L524 319L692 319L630 0L587 0L599 62L606 92L604 92Q600 88 592 81Q584 74 558 56Q532 38 504.50 24Q477 10 435-1Q393-12 351-12Q221-12 142 69Q63 150 63 277M473 788L487 861L533 861L519 788L473 788Z"  horiz-adv-x="754" vert-adv-y="1000"  />

      
      <glyph glyph-name="uni0121" unicode="&#x0121;" d="M32-136Q88-169 162-169Q246-169 306.50-126Q367-83 385 3L396 56L409 102L407 102Q343 0 229 0Q142 0 91 53Q40 106 40 196Q40 269 69 340Q98 411 160 461.50Q222 512 302 512Q363 512 408.50 489Q454 466 467 414L469 414Q468 426 470 438L482 500L524 500L427-2Q406-109 334-159.50Q262-210 167-210Q80-210 8-171L32-136M84 197Q84 124 123 82.50Q162 41 230 41Q283 41 325 69Q367 97 392.50 141.50Q418 186 431 236.50Q444 287 444 337Q444 471 304 471Q204 471 144 387Q84 303 84 197M326 627L340 700L386 700L372 627L326 627Z"  horiz-adv-x="571" vert-adv-y="1000"  />

      
      <glyph glyph-name="uni0122" unicode="&#x0122;" d="M63 277Q63 451 190 581.50Q317 712 482 712Q631 712 719 634L689 602Q654 634 597 652.50Q540 671 482 671Q334 671 221 553.50Q108 436 108 277Q108 167 174.50 98Q241 29 351 29Q493 29 616 152L641 279L517 279L524 319L692 319L630 0L587 0L599 62L606 92L604 92Q600 88 592 81Q584 74 558 56Q532 38 504.50 24Q477 10 435-1Q393-12 351-12Q221-12 142 69Q63 150 63 277M311-66L359-66L359-79Q359-132 317-200L278-200Q314-139 314-94Q314-81 311-66Z"  horiz-adv-x="754" vert-adv-y="1000"  />

      
      <glyph glyph-name="uni0123" unicode="&#x0123;" d="M32-136Q88-169 162-169Q246-169 306.50-126Q367-83 385 3L396 56L409 102L407 102Q343 0 229 0Q142 0 91 53Q40 106 40 196Q40 269 69 340Q98 411 160 461.50Q222 512 302 512Q363 512 408.50 489Q454 466 467 414L469 414Q468 426 470 438L482 500L524 500L427-2Q406-109 334-159.50Q262-210 167-210Q80-210 8-171L32-136M84 197Q84 124 123 82.50Q162 41 230 41Q283 41 325 69Q367 97 392.50 141.50Q418 186 431 236.50Q444 287 444 337Q444 471 304 471Q204 471 144 387Q84 303 84 197M360 566L312 566L312 579Q312 632 354 700L393 700Q357 639 357 594Q357 581 360 566Z"  horiz-adv-x="571" vert-adv-y="1000"  />

      
      <glyph glyph-name="uni0124" unicode="&#x0124;" d="M49 0L186 700L229 700L165 371L609 371L673 700L716 700L579 0L536 0L601 331L157 331L92 0L49 0M354 750L456 861L508 861L566 750L520 750L480 830L478 830L406 750L354 750Z"  horiz-adv-x="743" vert-adv-y="1000"  />

      
      <glyph glyph-name="uni0125" unicode="&#x0125;" d="M30 0L166 700L208 700L154 417L141 371L143 371Q168 421 231.50 466.50Q295 512 377 512Q446 512 481 479.50Q516 447 516 386Q516 357 508 317L447 0L405 0L463 302Q472 349 472 378Q472 424 446 447.50Q420 471 376 471Q285 471 210.50 401Q136 331 117 234L72 0L30 0M92 750L194 861L246 861L304 750L258 750L218 830L216 830L144 750L92 750Z"  horiz-adv-x="585" vert-adv-y="1000"  />

      
      <glyph glyph-name="uni0126" unicode="&#x0126;" d="M57 0L157 511L93 511L100 551L165 551L194 700L237 700L208 551L652 551L681 700L724 700L695 551L760 551L753 511L687 511L587 0L544 0L609 331L165 331L100 0L57 0M173 371L617 371L644 511L200 511L173 371Z"  horiz-adv-x="757" vert-adv-y="1000"  />

      
      <glyph glyph-name="uni0127" unicode="&#x0127;" d="M30 0L140 569L60 569L68 609L148 609L166 700L208 700L190 609L324 609L316 569L183 569L154 417L141 371L143 371Q168 421 231.50 466.50Q295 512 377 512Q446 512 481 479.50Q516 447 516 386Q516 357 508 317L447 0L405 0L463 302Q472 349 472 378Q472 424 446 447.50Q420 471 376 471Q285 471 210.50 401Q136 331 117 234L72 0L30 0Z"  horiz-adv-x="585" vert-adv-y="1000"  />

      
      <glyph glyph-name="uni0128" unicode="&#x0128;" d="M49 0L186 700L229 700L92 0L49 0M79 753Q99 861 175 861Q197 861 213.50 849.50Q230 838 238.50 824Q247 810 259.50 798.50Q272 787 286 787Q326 787 338 858L378 858Q367 803 344 776.50Q321 750 281 750Q259 750 243 761.50Q227 773 218.50 787Q210 801 197.50 812.50Q185 824 170 824Q149 824 136 801Q123 778 119 753L79 753Z"  horiz-adv-x="256" vert-adv-y="1000"  />

      
      <glyph glyph-name="uni0129" unicode="&#x0129;" d="M30 0L127 500L169 500L72 0L30 0M27 592Q47 700 123 700Q145 700 161.50 688.50Q178 677 186.50 663Q195 649 207.50 637.50Q220 626 234 626Q274 626 286 697L326 697Q315 642 292 615.50Q269 589 229 589Q207 589 191 600.50Q175 612 166.50 626Q158 640 145.50 651.50Q133 663 118 663Q97 663 84 640Q71 617 67 592L27 592Z"  horiz-adv-x="216" vert-adv-y="1000"  />

      
      <glyph glyph-name="uni012A" unicode="&#x012A;" d="M49 0L186 700L229 700L92 0L49 0M105 786L112 826L351 826L344 786L105 786Z"  horiz-adv-x="256" vert-adv-y="1000"  />

      
      <glyph glyph-name="uni012B" unicode="&#x012B;" d="M30 0L127 500L169 500L72 0L30 0M53 625L60 665L299 665L292 625L53 625Z"  horiz-adv-x="216" vert-adv-y="1000"  />

      
      <glyph glyph-name="uni012C" unicode="&#x012C;" d="M49 0L186 700L229 700L92 0L49 0M219 747Q184 747 158.50 767.50Q133 788 133 827Q133 845 138 861L178 861Q173 843 173 831Q173 785 224 785Q252 785 273 803Q294 821 300 861L340 861Q333 801 299 774Q265 747 219 747Z"  horiz-adv-x="256" vert-adv-y="1000"  />

      
      <glyph glyph-name="uni012D" unicode="&#x012D;" d="M30 0L127 500L169 500L72 0L30 0M167 586Q132 586 106.50 606.50Q81 627 81 666Q81 684 86 700L126 700Q121 682 121 670Q121 624 172 624Q200 624 221 642Q242 660 248 700L288 700Q281 640 247 613Q213 586 167 586Z"  horiz-adv-x="216" vert-adv-y="1000"  />

      
      <glyph glyph-name="uni012E" unicode="&#x012E;" d="M-57-125Q-57-54 53 16L187 700L230 700L93 0Q-12-66-12-119Q-12-137 2.50-148.50Q17-160 32-162L46-165L30-204Q26-204 20.50-203Q15-202 0-197.50Q-15-193-26.50-185Q-38-177-47.50-161.50Q-57-146-57-125Z"  horiz-adv-x="258" vert-adv-y="1000"  />

      
      <glyph glyph-name="uni012F" unicode="&#x012F;" d="M-78-125Q-78-55 33 17L128 500L170 500L72 0Q-33-66-33-119Q-33-137-18.50-148.50Q-4-160 10-162L25-165L9-204Q5-204-0.50-203Q-6-202-21-197.50Q-36-193-47.50-185Q-59-177-68.50-161.50Q-78-146-78-125M148 627L163 700L213 700L198 627L148 627Z"  horiz-adv-x="216" vert-adv-y="1000"  />

      
      <glyph glyph-name="uni0130" unicode="&#x0130;" d="M49 0L186 700L229 700L92 0L49 0M202 788L216 861L262 861L248 788L202 788Z"  horiz-adv-x="256" vert-adv-y="1000"  />

      
      <glyph glyph-name="uni0131" unicode="&#x0131;" d="M30 0L127 500L169 500L72 0L30 0Z"  horiz-adv-x="216" vert-adv-y="1000"  />

      
      <glyph glyph-name="uni0132" unicode="&#x0132;" d="M201-5L209 36Q362 36 398 218L492 700L535 700L441 218Q428 150 403 104Q378 58 344 35.50Q310 13 276.50 4Q243-5 201-5M49 0L186 700L229 700L92 0L49 0Z"  horiz-adv-x="556" vert-adv-y="1000"  />

      
      <glyph glyph-name="uni0133" unicode="&#x0133;" d="M148 627L163 700L213 700L198 627L148 627M30 0L128 500L170 500L72 0L30 0M363 627L377 700L427 700L413 627L363 627M242-21L343 500L385 500L284-20Q273-78 249.50-118Q226-158 197-175.50Q168-193 145.50-199Q123-205 100-205Q75-205 65-203L73-164Q79-166 95-166Q113-166 131.50-161Q150-156 173-142.50Q196-129 214.50-97.50Q233-66 242-21Z"  horiz-adv-x="432" vert-adv-y="1000"  />

      
      <glyph glyph-name="uni0134" unicode="&#x0134;" d="M7 139Q7 158 13 191L17 213L60 213L56 191Q51 166 51 146Q51 29 167 29Q226 29 276.50 68Q327 107 343 191L433 660L267 660L275 700L484 700L384 185Q364 82 303 35Q242-12 167-12Q98-12 52.50 25Q7 62 7 139M280 750L382 861L434 861L492 750L446 750L406 830L404 830L332 750L280 750Z"  horiz-adv-x="505" vert-adv-y="1000"  />

      
      <glyph glyph-name="uni0135" unicode="&#x0135;" d="M55 589L157 700L209 700L267 589L221 589L181 669L179 669L107 589L55 589M26-21L128 500L170 500L69-20Q58-78 34.50-118Q11-158-18-175.50Q-47-193-69.50-199Q-92-205-115-205L-150-203L-142-164Q-134-166-120-166Q-102-166-83.50-161Q-65-156-42.50-142.50Q-20-129-1.50-97.50Q17-66 26-21Z"  horiz-adv-x="217" vert-adv-y="1000"  />

      
      <glyph glyph-name="uni0136" unicode="&#x0136;" d="M49 0L186 700L229 700L168 388L294 388L559 700L611 700L330 369L330 367L488 0L441 0L293 348L160 348L92 0L49 0M210-66L258-66L258-79Q258-132 216-200L177-200Q213-139 213-94Q213-81 210-66Z"  horiz-adv-x="567" vert-adv-y="1000"  />

      
      <glyph glyph-name="uni0137" unicode="&#x0137;" d="M30 0L167 700L209 700L131 303L216 303L418 500L475 500L253 284L253 282L395 0L347 0L216 264L124 264L72 0L30 0M162-66L210-66L210-79Q210-132 168-200L129-200Q165-139 165-94Q165-81 162-66Z"  horiz-adv-x="470" vert-adv-y="1000"  />

      
      <glyph glyph-name="uni0138" unicode="&#x0138;" d="M30 0L127 500L169 500L128 287L214 287L428 500L487 500L250 268L250 266L385 0L336 0L213 250L121 250L72 0L30 0Z"  horiz-adv-x="471" vert-adv-y="1000"  />

      
      <glyph glyph-name="uni0139" unicode="&#x0139;" d="M49 0L186 700L229 700L100 40L434 40L425 0L49 0M196 750L285 861L345 861L244 750L196 750Z"  horiz-adv-x="498" vert-adv-y="1000"  />

      
      <glyph glyph-name="uni013A" unicode="&#x013A;" d="M47 77Q47 90 50 106L166 700L208 700L94 113Q91 97 91 84Q91 63 99.50 51.50Q108 40 117 38Q126 36 140 36Q147 36 153 37L144-2Q138-4 127-4Q110-4 94 0.50Q78 5 62.50 24.50Q47 44 47 77M171 750L260 861L320 861L219 750L171 750Z"  horiz-adv-x="233" vert-adv-y="1000"  />

      
      <glyph glyph-name="uni013B" unicode="&#x013B;" d="M49 0L186 700L229 700L100 40L434 40L425 0L49 0M212-66L260-66L260-79Q260-132 218-200L179-200Q215-139 215-94Q215-81 212-66Z"  horiz-adv-x="498" vert-adv-y="1000"  />

      
      <glyph glyph-name="uni013C" unicode="&#x013C;" d="M47 77Q47 90 50 106L166 700L208 700L94 113Q91 97 91 84Q91 63 99.50 51.50Q108 40 117 38Q126 36 140 36Q147 36 153 37L144-2Q138-4 127-4Q110-4 94 0.50Q78 5 62.50 24.50Q47 44 47 77M49-66L97-66L97-79Q97-132 55-200L16-200Q52-139 52-94Q52-81 49-66Z"  horiz-adv-x="233" vert-adv-y="1000"  />

      
      <glyph glyph-name="uni013D" unicode="&#x013D;" d="M49 0L186 700L229 700L100 40L434 40L425 0L49 0M329 700L377 700L377 687Q377 634 335 566L296 566Q332 627 332 672Q332 685 329 700Z"  horiz-adv-x="498" vert-adv-y="1000"  />

      
      <glyph glyph-name="uni013E" unicode="&#x013E;" d="M47 77Q47 90 50 106L166 700L208 700L94 113Q91 97 91 84Q91 63 99.50 51.50Q108 40 117 38Q126 36 140 36Q147 36 153 37L144-2Q138-4 127-4Q110-4 94 0.50Q78 5 62.50 24.50Q47 44 47 77M274 700L322 700L322 687Q322 634 280 566L241 566Q277 627 277 672Q277 685 274 700Z"  horiz-adv-x="233" vert-adv-y="1000"  />

      
      <glyph glyph-name="uni013F" unicode="&#x013F;" d="M49 0L186 700L229 700L100 40L434 40L425 0L49 0M264 333L276 396L337 396L325 333L264 333Z"  horiz-adv-x="498" vert-adv-y="1000"  />

      
      <glyph glyph-name="uni0140" unicode="&#x0140;" d="M47 77Q47 90 50 106L166 700L208 700L94 113Q91 97 91 84Q91 63 99.50 51.50Q108 40 117 38Q126 36 140 36Q147 36 153 37L144-2Q138-4 127-4Q110-4 94 0.50Q78 5 62.50 24.50Q47 44 47 77M202 333L214 396L275 396L263 333L202 333Z"  horiz-adv-x="235" vert-adv-y="1000"  />

      
      <glyph glyph-name="uni0141" unicode="&#x0141;" d="M57 0L129 370L57 333L66 380L139 418L194 700L237 700L186 443L314 509L305 461L177 395L108 40L442 40L434 0L57 0Z"  horiz-adv-x="505" vert-adv-y="1000"  />

      
      <glyph glyph-name="uni0142" unicode="&#x0142;" d="M59 77Q59 90 62 106L116 383L19 333L27 380L125 431L178 700L220 700L172 455L275 509L265 461L163 408L106 113Q103 97 103 84Q103 63 111.50 51.50Q120 40 129 38Q138 36 152 36Q159 36 165 37L156-2Q150-4 139-4Q122-4 106 0.50Q90 5 74.50 24.50Q59 44 59 77Z"  horiz-adv-x="246" vert-adv-y="1000"  />

      
      <glyph glyph-name="uni0143" unicode="&#x0143;" d="M49 0L186 700L221 700L513 151L553 63L555 63Q559 116 566 151L673 700L716 700L579 0L544 0L252 549L212 637L210 637Q206 584 199 549L92 0L49 0M439 750L528 861L588 861L487 750L439 750Z"  horiz-adv-x="743" vert-adv-y="1000"  />

      
      <glyph glyph-name="uni0144" unicode="&#x0144;" d="M30 0L127 500L169 500L154 417L140 371L142 371Q167 420 231 466Q295 512 377 512Q446 512 481 479.50Q516 447 516 386Q516 357 508 317L447 0L405 0L463 302Q472 349 472 378Q472 424 446 447.50Q420 471 376 471Q284 471 210 401Q136 331 117 234L72 0L30 0M342 589L431 700L491 700L390 589L342 589Z"  horiz-adv-x="585" vert-adv-y="1000"  />

      
      <glyph glyph-name="uni0145" unicode="&#x0145;" d="M49 0L186 700L221 700L513 151L553 63L555 63Q559 116 566 151L673 700L716 700L579 0L544 0L252 549L212 637L210 637Q206 584 199 549L92 0L49 0M281-66L329-66L329-79Q329-132 287-200L248-200Q284-139 284-94Q284-81 281-66Z"  horiz-adv-x="743" vert-adv-y="1000"  />

      
      <glyph glyph-name="uni0146" unicode="&#x0146;" d="M30 0L127 500L169 500L154 417L140 371L142 371Q167 420 231 466Q295 512 377 512Q446 512 481 479.50Q516 447 516 386Q516 357 508 317L447 0L405 0L463 302Q472 349 472 378Q472 424 446 447.50Q420 471 376 471Q284 471 210 401Q136 331 117 234L72 0L30 0M212-66L260-66L260-79Q260-132 218-200L179-200Q215-139 215-94Q215-81 212-66Z"  horiz-adv-x="585" vert-adv-y="1000"  />

      
      <glyph glyph-name="uni0147" unicode="&#x0147;" d="M49 0L186 700L221 700L513 151L553 63L555 63Q559 116 566 151L673 700L716 700L579 0L544 0L252 549L212 637L210 637Q206 584 199 549L92 0L49 0M441 750L383 861L429 861L469 781L471 781L543 861L595 861L493 750L441 750Z"  horiz-adv-x="743" vert-adv-y="1000"  />

      
      <glyph glyph-name="uni0148" unicode="&#x0148;" d="M30 0L127 500L169 500L154 417L140 371L142 371Q167 420 231 466Q295 512 377 512Q446 512 481 479.50Q516 447 516 386Q516 357 508 317L447 0L405 0L463 302Q472 349 472 378Q472 424 446 447.50Q420 471 376 471Q284 471 210 401Q136 331 117 234L72 0L30 0M344 589L286 700L332 700L372 620L374 620L446 700L498 700L396 589L344 589Z"  horiz-adv-x="585" vert-adv-y="1000"  />

      
      <glyph glyph-name="uni0149" unicode="&#x0149;" d="M30 0L127 500L169 500L154 417L140 371L142 371Q167 420 231 466Q295 512 377 512Q446 512 481 479.50Q516 447 516 386Q516 357 508 317L447 0L405 0L463 302Q472 349 472 378Q472 424 446 447.50Q420 471 376 471Q284 471 210 401Q136 331 117 234L72 0L30 0M113 700L161 700L161 687Q161 634 119 566L80 566Q116 627 116 672Q116 685 113 700Z"  horiz-adv-x="585" vert-adv-y="1000"  />

      
      <glyph glyph-name="uni014A" unicode="&#x014A;" d="M49 0L186 700L221 700L513 151L553 63L555 63Q559 116 566 151L673 700L716 700L582 18Q569-50 544-96Q519-142 485.50-165Q452-188 418.50-196.50Q385-205 343-205L351-164Q501-164 538 10L252 549L212 637L210 637Q206 584 199 549L92 0L49 0Z"  horiz-adv-x="743" vert-adv-y="1000"  />

      
      <glyph glyph-name="uni014B" unicode="&#x014B;" d="M30 0L127 500L169 500L154 417L140 371L142 371Q167 420 231 466Q295 512 377 512Q446 512 481 479.50Q516 447 516 386Q516 357 508 317L442-25Q431-83 407.50-123Q384-163 355-180.50Q326-198 303.50-204Q281-210 258-210L223-208L231-169Q239-171 253-171Q271-171 289.50-166Q308-161 331-147.50Q354-134 372.50-102.50Q391-71 400-26L463 302Q472 349 472 378Q472 424 446 447.50Q420 471 376 471Q284 471 210 401Q136 331 117 234L72 0L30 0Z"  horiz-adv-x="585" vert-adv-y="1000"  />

      
      <glyph glyph-name="uni014C" unicode="&#x014C;" d="M64 288Q64 400 125 498.50Q186 597 284 654.50Q382 712 487 712Q619 712 702 630Q785 548 785 420Q785 306 723.50 205.50Q662 105 564.50 46.50Q467-12 362-12Q230-12 147 72Q64 156 64 288M109 288Q109 174 179.50 101.50Q250 29 362 29Q455 29 542.50 81.50Q630 134 685 225Q740 316 740 419Q740 530 669.50 600.50Q599 671 487 671Q392 671 305 620Q218 569 163.50 479.50Q109 390 109 288M389 786L396 826L635 826L628 786L389 786Z"  horiz-adv-x="826" vert-adv-y="1000"  />

      
      </font>
</defs>
</svg>
