<?xml version="1.0" standalone="no"?>
  <!DOCTYPE svg PUBLIC "-//W3C//DTD SVG 1.1//EN" "http://www.w3.org/Graphics/SVG/1.1/DTD/svg11.dtd" >
  <svg>
  <metadata>
  Created by font-carrier
  </metadata>
  <defs>
  <font id="MuseoSansCyrl-300Italic" horiz-adv-x="1130" vert-adv-y="1130" >
    <font-face
      
      font-family="Museo Sans Cyrl 300"
      
      font-weight="400"
      
      font-stretch="normal"
      
      units-per-em="1000"
      
      ascent="940"
      
      descent="-260"
      
    />
      <missing-glyph />

      

      
      <glyph glyph-name="uni21" unicode="&#x21;" d="M77 184L175 703L246 703L141 184L77 184M34 0L50 79L129 79L113 0L34 0Z"  horiz-adv-x="262" vert-adv-y="1000"  />

      
      <glyph glyph-name="uni22" unicode="&#x22;" d="M249 545L282 713L340 713L307 545L249 545M128 545L160 713L219 713L186 545L128 545Z"  horiz-adv-x="339" vert-adv-y="1000"  />

      
      <glyph glyph-name="uni23" unicode="&#x23;" d="M96 0L168 195L28 195L48 251L189 251L262 447L122 447L142 503L282 503L356 703L418 703L344 503L517 503L591 703L654 703L580 503L719 503L698 447L559 447L487 251L625 251L605 195L466 195L394 0L331 0L403 195L231 195L158 0L96 0M251 251L424 251L497 447L324 447L251 251Z"  horiz-adv-x="725" vert-adv-y="1000"  />

      
      <glyph glyph-name="uni24" unicode="&#x24;" d="M24 78L69 127Q136 54 240 54Q310 54 360 90.50Q410 127 410 191Q410 234 380 265.50Q350 297 308 317.50Q266 338 223.50 360.50Q181 383 151 422Q121 461 121 516Q121 601 185.50 654.50Q250 708 341 714L360 807L416 807L398 713Q493 703 551 645L510 593Q485 619 444 634Q403 649 363 649Q297 649 244 613.50Q191 578 191 518Q191 478 221 448.50Q251 419 293.50 398.50Q336 378 378.50 355Q421 332 451 291.50Q481 251 481 194Q481 108 418 51Q355-6 257-11L239-103L183-103L201-9Q90 2 24 78Z"  horiz-adv-x="568" vert-adv-y="1000"  />

      
      <glyph glyph-name="uni25" unicode="&#x25;" d="M234 437Q177 437 143 471Q109 505 109 561Q109 620 158.50 667.50Q208 715 271 715Q327 715 361 680.50Q395 646 395 592Q395 531 345.50 484Q296 437 234 437M10 0L675 703L752 703L87 0L10 0M237 493Q276 493 306 523Q336 553 336 593Q336 622 317 640.50Q298 659 268 659Q230 659 199.50 628.50Q169 598 169 559Q169 531 188 512Q207 493 237 493M363 112Q363 170 413 218Q463 266 525 266Q581 266 615.50 231.50Q650 197 650 143Q650 83 600.50 35.50Q551-12 488-12Q431-12 397 22Q363 56 363 112M423 110Q423 81 442 62.50Q461 44 492 44Q531 44 560.50 73.50Q590 103 590 143Q590 172 571 191Q552 210 522 210Q484 210 453.50 179.50Q423 149 423 110Z"  horiz-adv-x="737" vert-adv-y="1000"  />

      
      <glyph glyph-name="uni26" unicode="&#x26;" d="M38 167Q38 238 85.50 299Q133 360 208 379L208 381Q205 382 200 384.50Q195 387 182.50 396.50Q170 406 160.50 418.50Q151 431 143 454Q135 477 135 505Q135 597 203.50 656Q272 715 374 715Q412 715 460 703L432 647Q402 654 374 654Q305 654 255.50 612.50Q206 571 206 504Q206 406 336 406L484 406L504 505L572 505L553 406L648 406L636 344L541 344L521 241Q471-12 250-12Q150-12 94 37Q38 86 38 167M111 169Q111 118 148 85.50Q185 53 251 53Q415 53 452 243L472 344L324 344Q235 344 173 298Q111 252 111 169Z"  horiz-adv-x="664" vert-adv-y="1000"  />

      
      <glyph glyph-name="uni27" unicode="&#x27;" d="M128 545L160 713L220 713L187 545L128 545Z"  horiz-adv-x="218" vert-adv-y="1000"  />

      
      <glyph glyph-name="uni28" unicode="&#x28;" d="M98-95Q50 32 50 170Q50 483 253 730L319 730Q112 469 112 169Q112 32 159-95L98-95Z"  horiz-adv-x="278" vert-adv-y="1000"  />

      
      <glyph glyph-name="uni29" unicode="&#x29;" d="M-32-95Q175 168 175 466Q175 607 128 730L189 730Q238 604 238 464Q238 153 34-95L-32-95Z"  horiz-adv-x="279" vert-adv-y="1000"  />

      
      <glyph glyph-name="uni2a" unicode="&#x2a;" d="M168 337L119 376L238 499L102 541L133 602L267 549L291 703L359 703L322 549L479 601L487 538L328 494L398 374L342 336L279 464L168 337Z"  horiz-adv-x="495" vert-adv-y="1000"  />

      
      <glyph glyph-name="uni2b" unicode="&#x2b;" d="M196 0L246 255L15 255L26 313L256 313L307 568L368 568L318 313L548 313L537 255L307 255L257 0L196 0Z"  horiz-adv-x="568" vert-adv-y="1000"  />

      
      <glyph glyph-name="uni2c" unicode="&#x2c;" d="M-30-97L63 82L141 82L31-97L-30-97Z"  horiz-adv-x="263" vert-adv-y="1000"  />

      
      <glyph glyph-name="uni2d" unicode="&#x2d;" d="M66 253L77 315L361 315L350 253L66 253Z"  horiz-adv-x="432" vert-adv-y="1000"  />

      
      <glyph glyph-name="uni2e" unicode="&#x2e;" d="M18 0L34 83L116 83L100 0L18 0Z"  horiz-adv-x="230" vert-adv-y="1000"  />

      
      <glyph glyph-name="uni2f" unicode="&#x2f;" d="M-16-42L390 742L458 742L52-42L-16-42Z"  horiz-adv-x="421" vert-adv-y="1000"  />

      
      <glyph glyph-name="uni30" unicode="&#x30;" d="M63 215Q63 262 70 314.50Q77 367 92 424.50Q107 482 132.50 533Q158 584 192 625Q226 666 275 690.50Q324 715 381 715Q578 715 578 487Q578 429 568.50 365.50Q559 302 535 233.50Q511 165 476 111.50Q441 58 385 23Q329-12 260-12Q63-12 63 215M134 215Q134 53 262 53Q314 53 357 83.50Q400 114 427 161Q454 208 472.50 267.50Q491 327 498.50 382Q506 437 506 486Q506 649 378 649Q316 649 267 606Q218 563 190.50 496Q163 429 148.50 356.50Q134 284 134 215Z"  horiz-adv-x="620" vert-adv-y="1000"  />

      
      <glyph glyph-name="uni31" unicode="&#x31;" d="M3 0L14 62L171 62L271 571L280 610L278 610Q267 596 234 568L147 495L109 545L301 703L365 703L240 62L394 62L382 0L3 0Z"  horiz-adv-x="467" vert-adv-y="1000"  />

      
      <glyph glyph-name="uni32" unicode="&#x32;" d="M8 0Q9 44 24.50 84.50Q40 125 60.50 153.50Q81 182 118 213Q155 244 182 262.50Q209 281 255 309Q366 377 398 404Q469 464 469 534Q469 588 434 618.50Q399 649 344 649Q294 649 247.50 623Q201 597 168 554L118 594Q158 647 219 681Q280 715 351 715Q434 715 487.50 668Q541 621 541 541Q541 512 532 484.50Q523 457 513.50 437.50Q504 418 479 393Q454 368 440.50 355.50Q427 343 391 318.50Q355 294 343 287Q331 280 290 255Q246 229 221 212Q196 195 165 170Q134 145 117 118.50Q100 92 94 62L460 62L447 0L8 0Z"  horiz-adv-x="563" vert-adv-y="1000"  />

      
      <glyph glyph-name="uni33" unicode="&#x33;" d="M6 84L53 132Q121 55 225 55Q299 55 357.50 107.50Q416 160 416 236Q416 294 374 325Q332 356 266 356L212 356L203 397L418 603L463 642L463 644Q442 641 405 641L146 641L158 703L569 703L560 657L303 413Q333 412 362 403Q391 394 420.50 375Q450 356 468.50 320.50Q487 285 487 237Q487 137 408.50 62.50Q330-12 223-12Q159-12 101.50 12.50Q44 37 6 84Z"  horiz-adv-x="562" vert-adv-y="1000"  />

      
      <glyph glyph-name="uni34" unicode="&#x34;" d="M19 195L27 240L456 703L537 703L450 255L550 255L538 195L438 195L400 0L331 0L369 195L19 195M119 255L381 255L439 550L455 617L453 617Q430 588 408 563L119 257L119 255Z"  horiz-adv-x="600" vert-adv-y="1000"  />

      
      <glyph glyph-name="uni35" unicode="&#x35;" d="M15 87L65 132Q121 55 217 55Q300 55 362 112Q424 169 424 248Q424 310 382 347.50Q340 385 273 385Q239 385 205 375.50Q171 366 154 356L138 346L95 362L199 703L541 703L529 641L249 641L194 463L180 423L182 423Q225 448 291 448Q382 448 439 393Q496 338 496 250Q496 143 412.50 65.50Q329-12 215-12Q154-12 100.50 13.50Q47 39 15 87Z"  horiz-adv-x="560" vert-adv-y="1000"  />

      
      <glyph glyph-name="uni36" unicode="&#x36;" d="M58 241Q58 307 83.50 386.50Q109 466 154.50 540.50Q200 615 276 665Q352 715 441 715Q517 715 576 686L541 628Q501 649 442 649Q339 649 262.50 565.50Q186 482 153 368L155 368Q187 406 236.50 428Q286 450 338 450Q425 450 476 399.50Q527 349 527 264Q527 158 455 73Q383-12 271-12Q172-12 115 57Q58 126 58 241M129 228Q129 159 167 106Q205 53 269 53Q348 53 402.50 114.50Q457 176 457 263Q457 321 422 354.50Q387 388 324 388Q257 388 193 341.50Q129 295 129 228Z"  horiz-adv-x="591" vert-adv-y="1000"  />

      
      <glyph glyph-name="uni37" unicode="&#x37;" d="M36 0L433 576Q445 593 458 609Q471 625 478 633L485 641L485 643Q467 641 431 641L108 641L120 703L577 703L568 655L114 0L36 0Z"  horiz-adv-x="526" vert-adv-y="1000"  />

      
      <glyph glyph-name="uni38" unicode="&#x38;" d="M39 174Q39 219 60.50 261.50Q82 304 114 332.50Q146 361 165.50 375.50Q185 390 199 397Q133 447 133 516Q133 594 199.50 654.50Q266 715 372 715Q464 715 515 673Q566 631 566 558Q566 520 549.50 480.50Q533 441 506 409Q479 377 465 363Q451 349 437 337Q516 284 516 211Q516 118 437.50 53Q359-12 251-12Q158-12 98.50 37.50Q39 87 39 174M382 368Q494 462 494 554Q494 599 460.50 625Q427 651 370 651Q298 651 251.50 611.50Q205 572 205 517Q205 495 214 476.50Q223 458 245 442Q267 426 282.50 417Q298 408 333.50 391.50Q369 375 382 368M112 176Q112 119 152.50 85.50Q193 52 252 52Q326 52 384.50 96.50Q443 141 443 210Q443 232 432.50 251Q422 270 399.50 285.50Q377 301 357.50 311.50Q338 322 304.50 338.50Q271 355 253 364Q235 354 217.50 341.50Q200 329 173 305Q146 281 129 247Q112 213 112 176Z"  horiz-adv-x="597" vert-adv-y="1000"  />

      
      <glyph glyph-name="uni39" unicode="&#x39;" d="M37 17L72 75Q119 53 171 53Q241 53 302 96Q363 139 401 200.50Q439 262 460 335L458 335Q428 299 378 276Q328 253 275 253Q188 253 137 303.50Q86 354 86 438Q86 544 158.50 629.50Q231 715 343 715Q442 715 498.50 646Q555 577 555 462Q555 396 529.50 316.50Q504 237 458.50 162.50Q413 88 337 38Q261-12 172-12Q92-12 37 17M287 315Q354 315 419 361.50Q484 408 484 475Q484 544 446.50 596.50Q409 649 344 649Q265 649 210.50 588.50Q156 528 156 440Q156 382 191 348.50Q226 315 287 315Z"  horiz-adv-x="591" vert-adv-y="1000"  />

      
      <glyph glyph-name="uni3a" unicode="&#x3a;" d="M98 420L114 503L195 503L180 420L98 420M16 0L32 83L114 83L98 0L16 0Z"  horiz-adv-x="229" vert-adv-y="1000"  />

      
      <glyph glyph-name="uni3b" unicode="&#x3b;" d="M142 420L158 503L238 503L222 420L142 420M-15-97L77 82L155 82L46-97L-15-97Z"  horiz-adv-x="289" vert-adv-y="1000"  />

      
      <glyph glyph-name="uni3c" unicode="&#x3c;" d="M34 259L34 309L485 511L485 444L118 285L118 283L485 124L485 57L34 259Z"  horiz-adv-x="568" vert-adv-y="1000"  />

      
      <glyph glyph-name="uni3d" unicode="&#x3d;" d="M47 342L47 400L513 400L513 342L47 342M47 168L47 226L513 226L513 168L47 168Z"  horiz-adv-x="568" vert-adv-y="1000"  />

      
      <glyph glyph-name="uni3e" unicode="&#x3e;" d="M73 57L73 124L441 283L441 285L73 444L73 511L525 309L525 259L73 57Z"  horiz-adv-x="568" vert-adv-y="1000"  />

      
      <glyph glyph-name="uni3f" unicode="&#x3f;" d="M134 184L143 229Q151 268 172.50 301.50Q194 335 219.50 357.50Q245 380 273.50 404Q302 428 325.50 448Q349 468 364 496.50Q379 525 379 557Q379 598 349.50 624.50Q320 651 269 651Q206 651 140 609L111 663Q142 685 188 700.50Q234 716 276 716Q355 716 403.50 674Q452 632 452 564Q452 515 430 474.50Q408 434 375 406Q342 378 308 352.50Q274 327 246 295Q218 263 210 227L202 184L134 184M94 0L110 79L189 79L173 0L94 0Z"  horiz-adv-x="450" vert-adv-y="1000"  />

      
      <glyph glyph-name="uni40" unicode="&#x40;" d="M44 175Q44 288 105 389.50Q166 491 264.50 550.50Q363 610 470 610Q585 610 636.50 566.50Q688 523 688 451Q688 432 685 411L625 105L696 105L685 49L426 49Q346 49 298 95.50Q250 142 250 213Q250 298 319.50 365.50Q389 433 481 433L621 433Q623 443 623 452Q623 495 585 523Q547 551 472 551Q330 551 222 437.50Q114 324 114 177Q114 71 180.50 3Q247-65 358-65L346-124Q216-124 130-39Q44 46 44 175M321 214Q321 167 352 136Q383 105 433 105L557 105L611 380L488 380Q422 380 371.50 329.50Q321 279 321 214Z"  horiz-adv-x="777" vert-adv-y="1000"  />

      
      <glyph glyph-name="uni41" unicode="&#x41;" d="M-31 0L361 703L437 703L558 0L488 0L451 224L168 224L44 0L-31 0M199 284L441 284L399 539L388 631L386 631Q360 572 342 539L199 284Z"  horiz-adv-x="634" vert-adv-y="1000"  />

      
      <glyph glyph-name="uni42" unicode="&#x42;" d="M43 0L180 703L406 703Q455 703 490 690Q532 674 555.50 639Q579 604 579 555Q579 491 545.50 442Q512 393 457 371L457 369Q497 355 520.50 318.50Q544 282 544 231Q544 156 505.50 100.50Q467 45 405 19Q360 0 306 0L43 0M190 398L360 398Q421 398 464.50 441Q508 484 508 549Q508 592 482 616.50Q456 641 407 641L237 641L190 398M124 62L304 62Q346 62 377 76Q420 96 446 137Q472 178 472 231Q472 281 441 309.50Q410 338 357 338L178 338L124 62Z"  horiz-adv-x="616" vert-adv-y="1000"  />

      
      <glyph glyph-name="uni43" unicode="&#x43;" d="M61 290Q61 404 120 502.50Q179 601 275.50 658Q372 715 479 715Q549 715 616.50 692.50Q684 670 726 624L682 575Q605 650 480 650Q340 650 236.50 543.50Q133 437 133 292Q133 187 196.50 120Q260 53 366 53Q431 53 496 78Q561 103 612 146L646 92Q596 47 517.50 17.50Q439-12 364-12Q225-12 143 72Q61 156 61 290Z"  horiz-adv-x="719" vert-adv-y="1000"  />

      
      <glyph glyph-name="uni44" unicode="&#x44;" d="M43 0L180 703L393 703Q536 703 617.50 631.50Q699 560 699 430Q699 250 581 125Q463 0 282 0L43 0M124 62L274 62Q426 62 526.50 166.50Q627 271 627 426Q627 529 563 585Q499 641 387 641L238 641L124 62Z"  horiz-adv-x="738" vert-adv-y="1000"  />

      
      <glyph glyph-name="uni45" unicode="&#x45;" d="M43 0L180 703L576 703L563 641L237 641L187 385L454 385L442 323L176 323L124 62L468 62L457 0L43 0Z"  horiz-adv-x="557" vert-adv-y="1000"  />

      
      <glyph glyph-name="uni46" unicode="&#x46;" d="M43 0L180 703L550 703L538 641L237 641L186 377L444 377L432 315L174 315L112 0L43 0Z"  horiz-adv-x="509" vert-adv-y="1000"  />

      
      <glyph glyph-name="uni47" unicode="&#x47;" d="M59 282Q59 397 117.50 497Q176 597 273.50 656Q371 715 481 715Q636 715 725 634L681 585Q648 615 593 632.50Q538 650 482 650Q339 650 235.50 541Q132 432 132 285Q132 181 194.50 117Q257 53 360 53Q491 53 603 162L625 274L506 274L517 336L702 336L637 0L574 0L584 54L591 84L589 84Q583 78 566 65Q549 52 518 33Q487 14 442.50 1Q398-12 352-12Q223-12 141 70Q59 152 59 282Z"  horiz-adv-x="758" vert-adv-y="1000"  />

      
      <glyph glyph-name="uni48" unicode="&#x48;" d="M43 0L180 703L250 703L187 383L595 383L657 703L726 703L589 0L519 0L582 321L175 321L112 0L43 0Z"  horiz-adv-x="747" vert-adv-y="1000"  />

      
      <glyph glyph-name="uni49" unicode="&#x49;" d="M43 0L180 703L250 703L112 0L43 0Z"  horiz-adv-x="270" vert-adv-y="1000"  />

      
      <glyph glyph-name="uni4a" unicode="&#x4a;" d="M5 147Q5 166 11 199L15 225L85 225L80 200Q76 170 76 157Q76 53 179 53Q232 53 276.50 87.50Q321 122 335 197L420 641L250 641L262 703L502 703L402 190Q382 86 319 37Q256-12 178-12Q104-12 54.50 27.50Q5 67 5 147Z"  horiz-adv-x="517" vert-adv-y="1000"  />

      
      <glyph glyph-name="uni4b" unicode="&#x4b;" d="M43 0L180 703L250 703L190 398L304 398L557 703L639 703L360 368L360 366L513 0L438 0L301 336L178 336L112 0L43 0Z"  horiz-adv-x="590" vert-adv-y="1000"  />

      
      <glyph glyph-name="uni4c" unicode="&#x4c;" d="M43 0L180 703L250 703L124 62L450 62L437 0L43 0Z"  horiz-adv-x="508" vert-adv-y="1000"  />

      
      <glyph glyph-name="uni4d" unicode="&#x4d;" d="M16 0L210 703L279 703L383 290L400 204L402 204Q430 253 453 290L718 703L792 703L711 0L642 0L700 492L717 590L715 590Q682 528 659 492L423 131L358 131L263 492L244 592L242 592Q232 530 222 492L86 0L16 0Z"  horiz-adv-x="844" vert-adv-y="1000"  />

      
      <glyph glyph-name="uni4e" unicode="&#x4e;" d="M43 0L180 703L242 703L503 197L542 102L544 102Q548 160 556 197L654 703L724 703L586 0L525 0L264 506L225 601L223 601Q218 543 211 506L112 0L43 0Z"  horiz-adv-x="744" vert-adv-y="1000"  />

      
      <glyph glyph-name="uni4f" unicode="&#x4f;" d="M60 292Q60 403 120.50 501.50Q181 600 278.50 657.50Q376 715 482 715Q618 715 703 632Q788 549 788 419Q788 306 727 205.50Q666 105 568.50 46.50Q471-12 366-12Q230-12 145 73Q60 158 60 292M132 294Q132 188 197 120.50Q262 53 366 53Q500 53 608 161.50Q716 270 716 416Q716 519 650.50 584.50Q585 650 482 650Q347 650 239.50 544Q132 438 132 294Z"  horiz-adv-x="825" vert-adv-y="1000"  />

      
      <glyph glyph-name="uni50" unicode="&#x50;" d="M43 0L180 703L410 703Q479 703 521 679Q604 634 604 531Q604 451 562 388Q520 325 453 296Q404 276 351 276L166 276L112 0L43 0M178 338L344 338Q390 338 426 354Q474 375 503 421Q532 467 532 528Q532 582 498 611.50Q464 641 402 641L237 641L178 338Z"  horiz-adv-x="599" vert-adv-y="1000"  />

      
      <glyph glyph-name="uni51" unicode="&#x51;" d="M60 292Q60 403 120.50 501.50Q181 600 278.50 657.50Q376 715 482 715Q618 715 703 632Q788 549 788 419Q788 241 649 110L716 25L670-17L602 71Q493-12 366-12Q230-12 145 73Q60 158 60 292M132 294Q132 188 197 120.50Q262 53 366 53Q471 53 562 122L492 211L538 252L607 161Q716 272 716 416Q716 519 650.50 584.50Q585 650 482 650Q347 650 239.50 544Q132 438 132 294Z"  horiz-adv-x="825" vert-adv-y="1000"  />

      
      <glyph glyph-name="uni52" unicode="&#x52;" d="M44 0L180 703L411 703Q472 703 510 684Q592 644 592 542Q592 459 542.50 395Q493 331 415 313L415 311Q419 302 426 282L526 0L452 0L350 296L170 296L113 0L44 0M182 358L346 358Q419 358 470 407.50Q521 457 521 535Q521 585 490 613Q459 641 403 641L237 641L182 358Z"  horiz-adv-x="614" vert-adv-y="1000"  />

      
      <glyph glyph-name="uni53" unicode="&#x53;" d="M8 78L54 127L59 122Q64 117 69 112.50Q74 108 83.50 101Q93 94 102.50 88Q112 82 126 75.50Q140 69 154.50 64.50Q169 60 187 57Q205 54 224 54Q294 54 344.50 90.50Q395 127 395 191Q395 235 365 266Q335 297 292.50 318Q250 339 207.50 361Q165 383 135 422Q105 461 105 516Q105 607 177.50 661Q250 715 348 715Q460 715 536 645L495 593L490 598Q484 602 478 606.50Q472 611 462 617Q452 623 440.50 628.50Q429 634 415 638.50Q401 643 383.50 646Q366 649 348 649Q282 649 229 613.50Q176 578 176 518Q176 478 206 448.50Q236 419 278.50 398.50Q321 378 363.50 355Q406 332 436 291.50Q466 251 466 194Q466 104 397.50 46Q329-12 225-12Q167-12 114 9.50Q61 31 41.50 47Q22 63 8 78Z"  horiz-adv-x="537" vert-adv-y="1000"  />

      
      <glyph glyph-name="uni54" unicode="&#x54;" d="M208 0L333 641L81 641L93 703L666 703L655 641L402 641L278 0L208 0Z"  horiz-adv-x="603" vert-adv-y="1000"  />

      
      <glyph glyph-name="uni55" unicode="&#x55;" d="M78 192Q78 219 84 249L173 703L242 703L154 247Q149 227 149 200Q149 130 193 91.50Q237 53 316 53Q407 53 470.50 105Q534 157 553 249L642 703L711 703L620 240Q597 123 514.50 55.50Q432-12 314-12Q207-12 142.50 42.50Q78 97 78 192Z"  horiz-adv-x="723" vert-adv-y="1000"  />

      
      <glyph glyph-name="uni56" unicode="&#x56;" d="M218 0L96 703L168 703L257 169L267 79L269 79Q295 133 314 169L612 703L690 703L294 0L218 0Z"  horiz-adv-x="634" vert-adv-y="1000"  />

      
      <glyph glyph-name="uni57" unicode="&#x57;" d="M158 0L110 703L181 703L212 157L213 82L215 82Q231 120 248 157L510 703L579 703L615 157L616 82L618 82Q633 122 648 157L891 703L967 703L648 0L564 0L530 495Q528 523 527.50 561Q527 599 528 600L526 600Q501 541 480 496L240 0L158 0Z"  horiz-adv-x="924" vert-adv-y="1000"  />

      
      <glyph glyph-name="uni58" unicode="&#x58;" d="M-38 0L257 371L118 703L192 703L276 497L307 417L309 417Q334 454 366 496L531 703L615 703L341 363L497 0L423 0L322 240L292 317L290 317Q269 284 235 242L42 0L-38 0Z"  horiz-adv-x="571" vert-adv-y="1000"  />

      
      <glyph glyph-name="uni59" unicode="&#x59;" d="M192 0L251 302L93 703L168 703L266 448L294 364L296 364Q327 409 355 447L552 703L636 703L320 300L261 0L192 0Z"  horiz-adv-x="579" vert-adv-y="1000"  />

      
      <glyph glyph-name="uni5a" unicode="&#x5a;" d="M-23 0L-13 49L446 577Q461 594 476.50 610Q492 626 500 634L508 641L508 643Q492 641 458 641L120 641L133 703L611 703L602 654L141 126Q126 109 110.50 93Q95 77 86 70L78 62L78 60Q95 62 129 62L489 62L477 0L-23 0Z"  horiz-adv-x="575" vert-adv-y="1000"  />

      
      <glyph glyph-name="uni5b" unicode="&#x5b;" d="M17-95L177 730L313 730L302 674L229 674L91-39L164-39L153-95L17-95Z"  horiz-adv-x="282" vert-adv-y="1000"  />

      
      <glyph glyph-name="uni5c" unicode="&#x5c;" d="M228-42L127 742L188 742L289-42L228-42Z"  horiz-adv-x="396" vert-adv-y="1000"  />

      
      <glyph glyph-name="uni5d" unicode="&#x5d;" d="M-11-39L62-39L200 674L128 674L139 730L274 730L114-95L-21-95L-11-39Z"  horiz-adv-x="282" vert-adv-y="1000"  />

      
      <glyph glyph-name="uni5e" unicode="&#x5e;" d="M79 250L277 703L324 703L523 250L457 250L301 620L145 250L79 250Z"  horiz-adv-x="606" vert-adv-y="1000"  />

      
      <glyph glyph-name="uni5f" unicode="&#x5f;" d="M-17 0L499 0L488-58L-28-58L-17 0Z"  horiz-adv-x="584" vert-adv-y="1000"  />

      
      <glyph glyph-name="uni60" unicode="&#x60;" d="M200 752L137 871L211 871L258 752L200 752Z"  horiz-adv-x="504" vert-adv-y="1000"  />

      
      <glyph glyph-name="uni61" unicode="&#x61;" d="M4 115Q4 172 36 213Q68 254 122 274Q176 294 229.50 302Q283 310 342 310L375 310Q380 337 380 364Q380 454 278 454Q197 454 126 406L105 463Q136 484 185.50 499.50Q235 515 284 515Q361 515 405.50 480Q450 445 450 373Q450 347 444 317L383 0L317 0L329 58L340 101L338 101Q316 60 267 24Q218-12 154-12Q91-12 47.50 22.50Q4 57 4 115M73 124Q73 90 97.50 67.50Q122 45 170 45Q236 45 290.50 104.50Q345 164 361 236L365 256L336 256Q73 256 73 124Z"  horiz-adv-x="516" vert-adv-y="1000"  />

      
      <glyph glyph-name="uni62" unicode="&#x62;" d="M24 0L161 703L229 703L182 460L168 414L170 414Q198 459 247.50 487Q297 515 352 515Q440 515 488.50 461Q537 407 537 313Q537 173 454.50 80.50Q372-12 263-12Q206-12 164 15Q122 42 106 91L104 91Q103 70 99 46L90 0L24 0M133 191Q133 128 164.50 88.50Q196 49 259 49Q338 49 402.50 121Q467 193 467 308Q467 376 433.50 414.50Q400 453 341 453Q251 453 192 373Q133 293 133 191Z"  horiz-adv-x="588" vert-adv-y="1000"  />

      
      <glyph glyph-name="uni63" unicode="&#x63;" d="M34 202Q34 335 127.50 425Q221 515 343 515Q396 515 445 497Q494 479 525 443L484 397Q461 423 423 438.50Q385 454 346 454Q252 454 178 382.50Q104 311 104 207Q104 136 149.50 93Q195 50 268 50Q366 50 443 119L465 63Q428 29 374 8.50Q320-12 265-12Q162-12 98 47Q34 106 34 202Z"  horiz-adv-x="543" vert-adv-y="1000"  />

      
      <glyph glyph-name="uni64" unicode="&#x64;" d="M35 190Q35 330 117.50 422.50Q200 515 311 515Q366 515 408 489.50Q450 464 466 415L468 415Q468 436 472 457L520 703L588 703L452 0L386 0L396 53L407 94L405 94Q378 49 329.50 18.50Q281-12 222-12Q132-12 83.50 42Q35 96 35 190M105 194Q105 126 139 87.50Q173 49 233 49Q322 49 380.50 130.50Q439 212 439 311Q439 374 407.50 413.50Q376 453 313 453Q234 453 169.50 381Q105 309 105 194Z"  horiz-adv-x="590" vert-adv-y="1000"  />

      
      <glyph glyph-name="uni65" unicode="&#x65;" d="M35 200Q35 326 119 420.50Q203 515 327 515Q418 515 464 465.50Q510 416 510 333Q510 294 496 249L110 249Q105 222 105 204Q105 138 147.50 94Q190 50 266 50Q353 50 431 110L452 54Q420 27 368 7.50Q316-12 264-12Q161-12 98 46.50Q35 105 35 200M123 303L438 303Q441 318 441 339Q441 398 409.50 428.50Q378 459 327 459Q262 459 205.50 418Q149 377 123 303Z"  horiz-adv-x="552" vert-adv-y="1000"  />

      
      <glyph glyph-name="uni66" unicode="&#x66;" d="M43 0L129 442L66 442L77 499L140 499L145 523Q156 581 182 621Q208 661 240.50 678Q273 695 298 701.50Q323 708 348 708Q368 708 386 705L372 645Q364 647 350 647Q332 647 314.50 642.50Q297 638 275.50 626.50Q254 615 237 587.50Q220 560 213 521L208 499L337 499L326 442L197 442L112 0L43 0Z"  horiz-adv-x="325" vert-adv-y="1000"  />

      
      <glyph glyph-name="uni67" unicode="&#x67;" d="M38-115Q91-148 170-148Q248-148 304-109Q360-70 376 9L386 55L397 96L395 96Q334 3 228 3Q139 3 88 57.50Q37 112 37 203Q37 277 66.50 346.50Q96 416 158 465.50Q220 515 301 515Q358 515 402 494Q446 473 461 426L463 426Q462 437 464 448L475 503L541 503L444 6Q422-106 347.50-158Q273-210 175-210Q78-210 5-168L38-115M107 207Q107 140 141.50 102Q176 64 239 64Q302 64 348 108Q394 152 414 211Q434 270 434 331Q434 454 306 454Q215 454 161 379Q107 304 107 207Z"  horiz-adv-x="581" vert-adv-y="1000"  />

      
      <glyph glyph-name="uni68" unicode="&#x68;" d="M24 0L161 703L229 703L177 431L164 386L166 386Q191 433 251 474Q311 515 386 515Q456 515 493 482Q530 449 530 385Q530 357 522 319L461 0L393 0L451 301Q459 347 459 368Q459 409 435.50 430Q412 451 372 451Q290 451 222.50 386.50Q155 322 137 233L92 0L24 0Z"  horiz-adv-x="593" vert-adv-y="1000"  />

      
      <glyph glyph-name="uni69" unicode="&#x69;" d="M142 618L159 703L232 703L215 618L142 618M24 0L122 503L191 503L92 0L24 0Z"  horiz-adv-x="230" vert-adv-y="1000"  />

      
      <glyph glyph-name="uni6a" unicode="&#x6a;" d="M141 618L157 703L231 703L214 618L141 618M21-16L122 503L190 503L89-18Q77-77 52-117.50Q27-158-4.50-175.50Q-36-193-61-199.50Q-86-206-111-206Q-132-206-152-203L-140-143Q-132-145-118-145Q-100-145-82.50-140.50Q-65-136-43-124Q-21-112-4-84Q13-56 21-16Z"  horiz-adv-x="231" vert-adv-y="1000"  />

      
      <glyph glyph-name="uni6b" unicode="&#x6b;" d="M24 0L162 703L230 703L153 311L230 311L419 503L505 503L286 282L286 280L422 0L348 0L228 251L142 251L92 0L24 0Z"  horiz-adv-x="495" vert-adv-y="1000"  />

      
      <glyph glyph-name="uni6c" unicode="&#x6c;" d="M44 89Q44 106 48 125L160 703L229 703L118 134Q115 118 115 103Q115 83 123 72.50Q131 62 140 60Q149 58 162 58Q169 58 176 59L163-2Q155-4 140-4Q102-4 73 16.50Q44 37 44 89Z"  horiz-adv-x="251" vert-adv-y="1000"  />

      
      <glyph glyph-name="uni6d" unicode="&#x6d;" d="M24 0L122 503L189 503L174 429L162 384L164 384Q193 439 251 477Q309 515 371 515Q439 515 470 483Q501 451 503 389L505 389Q536 443 593 479Q650 515 712 515Q780 515 816 481.50Q852 448 852 384Q852 356 844 316L783 0L715 0L773 302Q781 340 781 366Q781 452 694 452Q618 452 558.50 386Q499 320 484 238L438 0L370 0L428 302Q436 340 436 368Q436 452 352 452Q277 452 216 386.50Q155 321 138 237L92 0L24 0Z"  horiz-adv-x="915" vert-adv-y="1000"  />

      
      <glyph glyph-name="uni6e" unicode="&#x6e;" d="M24 0L122 503L189 503L176 431L162 384L164 384Q188 431 249 473Q310 515 386 515Q456 515 493 482Q530 449 530 385Q530 357 522 319L461 0L393 0L451 301Q459 347 459 368Q459 409 435.50 430Q412 451 372 451Q289 451 222 386.50Q155 322 137 233L92 0L24 0Z"  horiz-adv-x="593" vert-adv-y="1000"  />

      
      <glyph glyph-name="uni6f" unicode="&#x6f;" d="M34 208Q34 334 128 424.50Q222 515 343 515Q445 515 509 454.50Q573 394 573 298Q573 171 478 79.50Q383-12 264-12Q162-12 98 49.50Q34 111 34 208M104 210Q104 139 149 94.50Q194 50 265 50Q356 50 429.50 122Q503 194 503 295Q503 365 458 409.50Q413 454 342 454Q250 454 177 382Q104 310 104 210Z"  horiz-adv-x="624" vert-adv-y="1000"  />

      
      <glyph glyph-name="uni70" unicode="&#x70;" d="M100 41L53-200L-15-200L122 503L186 503L177 454L166 411L168 411Q196 456 243.50 485.50Q291 515 352 515Q440 515 489 461Q538 407 538 313Q538 174 456 81Q374-12 266-12Q209-12 167 13.50Q125 39 108 89L106 89Q105 67 100 41M134 194Q134 131 166 90Q198 49 260 49Q339 49 403.50 121Q468 193 468 308Q468 376 434 414.50Q400 453 341 453Q253 453 193.50 372.50Q134 292 134 194Z"  horiz-adv-x="589" vert-adv-y="1000"  />

      
      <glyph glyph-name="uni71" unicode="&#x71;" d="M34 189Q34 330 117 422.50Q200 515 311 515Q368 515 409 489Q450 463 466 414L468 414Q469 430 473 452L483 503L548 503L412-200L344-200L391 42L404 90L402 90Q376 47 329 17.50Q282-12 221-12Q132-12 83 42Q34 96 34 189M104 194Q104 127 138.50 88Q173 49 232 49Q321 49 380 130.50Q439 212 439 311Q439 374 407.50 413.50Q376 453 313 453Q234 453 169 381Q104 309 104 194Z"  horiz-adv-x="589" vert-adv-y="1000"  />

      
      <glyph glyph-name="uni72" unicode="&#x72;" d="M24 0L122 503L188 503L171 414L159 370L161 370Q189 429 237.50 468.50Q286 508 345 508Q359 508 375 505L361 438Q345 440 337 440Q262 440 204.50 360.50Q147 281 129 188L92 0L24 0Z"  horiz-adv-x="357" vert-adv-y="1000"  />

      
      <glyph glyph-name="uni73" unicode="&#x73;" d="M-4 60L34 108Q57 81 95.50 65Q134 49 175 49Q225 49 260.50 71.50Q296 94 296 135Q296 164 272.50 185Q249 206 216 220Q183 234 150 250Q117 266 93.50 296Q70 326 70 369Q70 437 126 476Q182 515 260 515Q356 515 412 459L376 411Q333 454 258 454Q209 454 173 433Q137 412 137 370Q137 341 160.50 320Q184 299 217 285Q250 271 283 255.50Q316 240 339.50 210Q363 180 363 137Q363 71 309.50 29.50Q256-12 175-12Q62-12-4 60Z"  horiz-adv-x="438" vert-adv-y="1000"  />

      
      <glyph glyph-name="uni74" unicode="&#x74;" d="M70 138Q70 162 76 193L124 442L58 442L69 499L136 499L164 642L231 642L202 499L329 499L318 442L192 442L144 192Q139 171 139 147Q139 57 225 57Q236 57 254 59L242-2Q232-4 216-4Q70-4 70 138Z"  horiz-adv-x="319" vert-adv-y="1000"  />

      
      <glyph glyph-name="uni75" unicode="&#x75;" d="M47 118Q47 141 54 185L116 503L184 503L126 204Q118 162 118 135Q118 52 207 52Q288 52 353 119Q418 186 434 272L479 503L547 503L450 0L383 0L397 72L410 119L408 119Q381 71 323 29.50Q265-12 188-12Q125-12 86 19Q47 50 47 118Z"  horiz-adv-x="588" vert-adv-y="1000"  />

      
      <glyph glyph-name="uni76" unicode="&#x76;" d="M159 0L63 503L132 503L198 132L204 71L206 71Q222 106 236 132L446 503L520 503L231 0L159 0Z"  horiz-adv-x="509" vert-adv-y="1000"  />

      
      <glyph glyph-name="uni77" unicode="&#x77;" d="M139 0L67 503L136 503L184 126L189 72L191 72Q204 101 217 126L413 501L481 501L531 126L536 72L538 72Q550 101 563 126L759 503L833 503L565 0L491 0L437 361L433 415L431 415Q417 386 404 361L214 0L139 0Z"  horiz-adv-x="823" vert-adv-y="1000"  />

      
      <glyph glyph-name="uni78" unicode="&#x78;" d="M-37 0L192 264L72 503L147 503L226 338L239 308L240 308Q250 322 260 335L402 503L484 503L273 258L404 0L331 0L239 185L227 215L225 215Q216 200 204 187L44 0L-37 0Z"  horiz-adv-x="478" vert-adv-y="1000"  />

      
      <glyph glyph-name="uni79" unicode="&#x79;" d="M-39-129Q-17-149 17-149Q78-149 129-68L174 5L61 503L132 503L210 127L218 74L219 74Q233 102 247 126L465 503L542 503L174-107Q113-210 19-210Q-31-210-74-180L-39-129Z"  horiz-adv-x="529" vert-adv-y="1000"  />

      
      <glyph glyph-name="uni7a" unicode="&#x7a;" d="M-20 0L-12 44L333 397Q377 443 381 443L381 445Q365 443 332 443L77 443L88 503L489 503L480 458L134 106Q122 94 110 83Q98 72 91 65.50Q84 59 84 60L84 58Q102 60 135 60L412 60L401 0L-20 0Z"  horiz-adv-x="494" vert-adv-y="1000"  />

      
      <glyph glyph-name="uni7b" unicode="&#x7b;" d="M82 30Q82 44 88 86L106 178Q109 194 109 208Q109 278 43 292L55 354Q96 361 124.50 392Q153 423 162 469L179 554Q215 730 362 730L377 730L367 674L358 674Q346 674 333.50 670.50Q321 667 301 656.50Q281 646 265 618Q249 590 241 549L222 448Q214 404 186 370.50Q158 337 117 324L117 322Q143 308 159 281Q175 254 175 221Q175 208 172 192L151 85Q146 65 146 41Q146-40 219-40L228-40L217-96Q213-97 201-97Q186-97 169.50-92.50Q153-88 131.50-76.50Q110-65 96-37.50Q82-10 82 30Z"  horiz-adv-x="338" vert-adv-y="1000"  />

      
      <glyph glyph-name="uni7c" unicode="&#x7c;" d="M124-157L124 788L187 788L187-157L124-157Z"  horiz-adv-x="306" vert-adv-y="1000"  />

      
      <glyph glyph-name="uni7d" unicode="&#x7d;" d="M-6-40Q1-40 9-38.50Q17-37 32.50-30Q48-23 61-11Q74 1 87 26Q100 51 106 85L128 197Q137 244 164.50 278Q192 312 233 324L233 326Q176 357 176 424Q176 436 179 453L197 549Q202 577 202 593Q202 628 186.50 647.50Q171 667 157 670.50Q143 674 128 674L119 674L130 730Q135 731 146 731Q161 731 177.50 726.50Q194 722 215.50 710.50Q237 699 251 671.50Q265 644 265 604Q265 580 259 548L243 468Q240 450 240 437Q240 404 257.50 381.50Q275 359 306 353L294 291Q255 284 225.50 253.50Q196 223 187 176L168 80Q133-97-15-97Q-24-97-30-96L-19-40L-6-40Z"  horiz-adv-x="338" vert-adv-y="1000"  />

      
      <glyph glyph-name="uni7e" unicode="&#x7e;" d="M63 209Q63 288 97 326Q131 364 190 364Q220 364 244 353.50Q268 343 283.50 327.50Q299 312 313.50 296.50Q328 281 347 270.50Q366 260 389 260Q429 260 444.50 291Q460 322 460 360L518 360Q518 281 484.50 243Q451 205 392 205Q355 205 326.50 221.50Q298 238 283 257Q268 276 244.50 292.50Q221 309 193 309Q153 309 137.50 278Q122 247 122 209L63 209Z"  horiz-adv-x="584" vert-adv-y="1000"  />

      
      <glyph glyph-name="unia1" unicode="&#xa1;" d="M105 424L121 503L199 503L183 424L105 424M-12-200L93 319L156 319L58-200L-12-200Z"  horiz-adv-x="239" vert-adv-y="1000"  />

      
      <glyph glyph-name="unia2" unicode="&#xa2;" d="M206-13L223 74Q147 85 103.50 140.50Q60 196 60 286Q60 412 136.50 517.50Q213 623 332 631L348 715L404 715L387 629Q429 623 461.50 602Q494 581 510.50 554.50Q527 528 534.50 511Q542 494 544 483L481 459Q480 464 477.50 473.50Q475 483 465.50 500Q456 517 442.50 531Q429 545 404.50 555.50Q380 566 350 566Q253 566 192 483Q131 400 131 284Q131 216 165 176.50Q199 137 267 137Q367 137 438 244L500 218Q492 205 478.50 188Q465 171 437 142.50Q409 114 367 94Q325 74 279 71L263-13L206-13Z"  horiz-adv-x="568" vert-adv-y="1000"  />

      
      <glyph glyph-name="unia3" unicode="&#xa3;" d="M-5 0L7 62L69 62L121 326L76 326L87 381L131 381L161 536Q176 612 241 663.50Q306 715 392 715Q486 715 547 655L498 610Q456 650 391 650Q327 650 283.50 614.50Q240 579 230 526L202 381L393 381L382 326L191 326L139 62L478 62L466 0L-5 0Z"  horiz-adv-x="568" vert-adv-y="1000"  />

      
      <glyph glyph-name="unia4" unicode="&#xa4;" d="M71 0L106 180L34 180L44 235L117 235L132 310L60 310L71 369L143 369L208 703L416 703Q503 703 553.50 659.50Q604 616 604 539Q604 443 530.50 376.50Q457 310 350 310L201 310L186 235L439 235L428 180L175 180L140 0L71 0M212 369L348 369Q427 369 480 416Q533 463 533 534Q533 644 402 644L266 644L212 369Z"  horiz-adv-x="597" vert-adv-y="1000"  />

      
      <glyph glyph-name="unia5" unicode="&#xa5;" d="M190 0L232 211L69 211L78 262L241 262L250 302L231 350L96 350L106 401L212 401L96 703L171 703L265 453L293 364L295 364Q325 412 354 452L545 703L629 703L395 401L500 401L489 350L356 350L320 302L311 262L472 262L463 211L302 211L260 0L190 0Z"  horiz-adv-x="568" vert-adv-y="1000"  />

      
      <glyph glyph-name="unia7" unicode="&#xa7;" d="M102 85L118 523Q120 602 173 658.50Q226 715 312 715Q380 715 429 672L388 628Q359 655 312 655Q252 655 216 616Q180 577 179 518L160 85L102 85M-2-18L39 25Q68-2 116-2Q175-2 211 37Q247 76 249 135L266 568L325 568L309 130Q307 51 254-5.50Q201-62 115-62Q45-62-2-18Z"  horiz-adv-x="415" vert-adv-y="1000"  />

      
      <glyph glyph-name="unia8" unicode="&#xa8;" d="M237 785L254 871L316 871L299 785L237 785M86 785L102 871L164 871L148 785L86 785Z"  horiz-adv-x="504" vert-adv-y="1000"  />

      
      <glyph glyph-name="unia9" unicode="&#xa9;" d="M75 352Q75 503 178.50 609Q282 715 428 715Q577 715 681 609.50Q785 504 785 352Q785 200 681 94Q577-12 428-12Q281-12 178 94Q75 200 75 352M133 352Q133 221 218 131.50Q303 42 428 42Q555 42 641 131.50Q727 221 727 352Q727 482 640.50 571.50Q554 661 428 661Q304 661 218.50 571.50Q133 482 133 352M287.50 206Q287.50 206 259.75 236Q232 266 232 350Q232 434 287.50 495Q343 556 438 556Q487 556 531 531Q575 506 601 463L555 432Q537 461 505 481Q473 501 440 501Q370 501 330.50 457Q291 413 291 351Q291 289 330.50 245Q370 201 440 201Q509 201 555 270L601 239Q575 198 531.50 172Q488 146 438 146Q343 146 287.50 206Z"  horiz-adv-x="837" vert-adv-y="1000"  />

      
      <glyph glyph-name="uniaa" unicode="&#xaa;" d="M208 382Q172 382 143 403.50Q114 425 114 465Q114 588 322 588L341 588Q343 594 343 595Q356 666 286 666Q245 666 196 638L177 679Q197 693 231 703Q265 713 295 713Q400 713 400 620Q400 603 395 581L357 388L304 388L314 437L312 437Q269 384 208 382M224 429Q261 429 293 465.50Q325 502 331 535L333 544L320 544Q172 544 172 471Q172 453 185 441Q198 429 224 429M73 264L82 310L345 310L336 264L73 264Z"  horiz-adv-x="424" vert-adv-y="1000"  />

      
      <glyph glyph-name="uniab" unicode="&#xab;" d="M351 77L222 284L428 488L507 488L293 279L419 77L351 77M175 77L46 284L238 488L317 488L117 279L244 77L175 77Z"  horiz-adv-x="523" vert-adv-y="1000"  />

      
      <glyph glyph-name="uniac" unicode="&#xac;" d="M100 342L100 400L566 400L566 158L506 158L506 342L100 342Z"  horiz-adv-x="665" vert-adv-y="1000"  />

      
      <glyph glyph-name="uniad" unicode="&#xad;" d="M66 253L77 315L361 315L350 253L66 253Z"  horiz-adv-x="432" vert-adv-y="1000"  />

      
      <glyph glyph-name="uniae" unicode="&#xae;" d="M75 352Q75 503 178.50 609Q282 715 428 715Q577 715 681 609.50Q785 504 785 352Q785 200 681 94Q577-12 428-12Q281-12 178 94Q75 200 75 352M133 352Q133 221 218 131.50Q303 42 428 42Q555 42 641 131.50Q727 221 727 352Q727 482 640.50 571.50Q554 661 428 661Q304 661 218.50 571.50Q133 482 133 352M309 157L309 547L448 547Q500 547 532.50 515Q565 483 565 431Q565 390 543.50 362.50Q522 335 492 328L492 326Q496 321 505 304L581 157L518 157L440 315L366 315L366 157L309 157M366 359L439 359Q471 359 489.50 378.50Q508 398 508 431Q508 464 489.50 482Q471 500 439 500L366 500L366 359Z"  horiz-adv-x="837" vert-adv-y="1000"  />

      
      <glyph glyph-name="uniaf" unicode="&#xaf;" d="M72 785L82 840L328 840L319 785L72 785Z"  horiz-adv-x="504" vert-adv-y="1000"  />

      
      <glyph glyph-name="unib0" unicode="&#xb0;" d="M235 436Q179 436 144.50 470Q110 504 110 557Q110 618 159.50 666Q209 714 271 714Q326 714 360.50 679.50Q395 645 395 593Q395 532 345 484Q295 436 235 436M238 492Q277 492 306.50 521.50Q336 551 336 591Q336 620 317 639Q298 658 268 658Q230 658 199.50 628Q169 598 169 559Q169 530 188 511Q207 492 238 492Z"  horiz-adv-x="399" vert-adv-y="1000"  />

      
      <glyph glyph-name="unib1" unicode="&#xb1;" d="M226 0L226 255L-4 255L-4 313L226 313L226 568L288 568L288 313L518 313L518 255L288 255L288 0L226 0M14-104L500-104L500-162L14-162L14-104Z"  horiz-adv-x="568" vert-adv-y="1000"  />

      
      <glyph glyph-name="unib2" unicode="&#xb2;" d="M77 423Q78 478 107 520.50Q136 563 176.50 589Q217 615 257.50 638Q298 661 326 690.50Q354 720 354 755Q354 782 335.50 799.50Q317 817 286 817Q241 817 186 768L155 806Q216 869 289 869Q346 869 379 838.50Q412 808 412 759Q412 715 388 680.50Q364 646 327.50 623Q291 600 254 579.50Q217 559 186 532Q155 505 146 473L365 473L355 423L77 423Z"  horiz-adv-x="381" vert-adv-y="1000"  />

      
      <glyph glyph-name="unib3" unicode="&#xb3;" d="M217 413Q129 413 72 479L111 514Q154 465 218 465Q259 465 291.50 495Q324 525 324 569Q324 601 299 619.50Q274 638 240 638L207 638L198 668L319 784L349 809L349 811Q330 808 312 808L160 808L170 859L432 859L425 822L279 683Q316 678 348.50 650Q381 622 381 570Q381 508 333 460.50Q285 413 217 413Z"  horiz-adv-x="381" vert-adv-y="1000"  />

      
      <glyph glyph-name="unib4" unicode="&#xb4;" d="M109 752L202 871L286 871L175 752L109 752Z"  horiz-adv-x="504" vert-adv-y="1000"  />

      
      <glyph glyph-name="unib5" unicode="&#xb5;" d="M87-46L56-200L-6-200L130 503L198 503L140 204Q132 162 132 135Q132 52 221 52Q302 52 367 119Q432 186 449 272L493 503L561 503L464 0L397 0L411 72L424 119L422 119Q396 71 337.50 29.50Q279-12 202-12Q130-12 98 31L96 31Q92-21 87-46Z"  horiz-adv-x="590" vert-adv-y="1000"  />

      
      <glyph glyph-name="uni03BC" unicode="&#x03BC;" d="M87-46L56-200L-6-200L130 503L198 503L140 204Q132 162 132 135Q132 52 221 52Q302 52 367 119Q432 186 449 272L493 503L561 503L464 0L397 0L411 72L424 119L422 119Q396 71 337.50 29.50Q279-12 202-12Q130-12 98 31L96 31Q92-21 87-46Z"  horiz-adv-x="590" vert-adv-y="1000"  />

      
      <glyph glyph-name="unib6" unicode="&#xb6;" d="M213-50L269 241Q189 241 130 298.50Q71 356 71 441Q71 546 156 624.50Q241 703 347 703L597 703L585 641L404 641L270-50L213-50M332-50L454 581L511 581L390-50L332-50Z"  horiz-adv-x="570" vert-adv-y="1000"  />

      
      <glyph glyph-name="unib7" unicode="&#xb7;" d="M65 246L80 329L161 329L145 246L65 246Z"  horiz-adv-x="229" vert-adv-y="1000"  />

      
      <glyph glyph-name="unib8" unicode="&#xb8;" d="M140-91L188 20L228 12L201-55Q226-59 243-76Q260-93 260-120Q260-162 227-183.50Q194-205 152-205Q120-205 98-199L108-153Q121-158 148-158Q206-158 206-119Q206-90 155-90Q146-90 140-91Z"  horiz-adv-x="504" vert-adv-y="1000"  />

      
      <glyph glyph-name="unib9" unicode="&#xb9;" d="M104 423L114 473L208 473L263 758L270 782L268 782Q263 774 243 758L197 720L168 760L287 859L339 859L264 473L356 473L346 423L104 423Z"  horiz-adv-x="381" vert-adv-y="1000"  />

      
      <glyph glyph-name="uniba" unicode="&#xba;" d="M267 383Q203 383 162.50 421.50Q122 460 122 520Q122 599 181.50 656.50Q241 714 316 714Q380 714 420.50 675Q461 636 461 577Q461 497 401.50 440Q342 383 267 383M269 434Q321 434 363.50 475Q406 516 406 574Q406 614 380.50 639Q355 664 314 664Q261 664 219.50 623Q178 582 178 525Q178 484 203 459Q228 434 269 434M86 264L95 310L398 310L389 264L86 264Z"  horiz-adv-x="485" vert-adv-y="1000"  />

      
      <glyph glyph-name="unibb" unicode="&#xbb;" d="M202 77L402 286L275 488L344 488L472 281L280 77L202 77M12 77L226 286L99 488L168 488L296 281L91 77L12 77Z"  horiz-adv-x="523" vert-adv-y="1000"  />

      
      <glyph glyph-name="unibc" unicode="&#xbc;" d="M702 0L724 114L511 114L518 152L784 436L842 436L789 164L854 164L845 114L780 114L757 0L702 0M592 164L734 164L760 300L776 362L774 362Q753 335 732 313L592 166L592 164M252 0L189 0L662 703L724 703L252 0M55 268L65 318L159 318L214 603L221 627L219 627Q214 619 194 603L148 565L119 605L238 704L290 704L215 318L307 318L297 268L55 268Z"  horiz-adv-x="921" vert-adv-y="1000"  />

      
      <glyph glyph-name="unibd" unicode="&#xbd;" d="M528 0Q529 55 558 97.50Q587 140 627.50 166Q668 192 708.50 215Q749 238 777 267.50Q805 297 805 332Q805 359 786.50 376.50Q768 394 737 394Q692 394 637 345L606 383Q667 446 740 446Q797 446 830 415.50Q863 385 863 336Q863 292 839 257.50Q815 223 778.50 200Q742 177 705 156.50Q668 136 637 109Q606 82 597 50L816 50L806 0L528 0M252 0L189 0L662 703L724 703L252 0M54 268L64 318L158 318L213 603L220 627L218 627Q213 619 193 603L147 565L118 605L237 704L289 704L214 318L306 318L296 268L54 268Z"  horiz-adv-x="914" vert-adv-y="1000"  />

      
      <glyph glyph-name="unibe" unicode="&#xbe;" d="M731 0L753 114L540 114L547 152L813 436L871 436L818 164L883 164L874 114L809 114L786 0L731 0M621 164L763 164L789 300L805 362L803 362Q782 335 761 313L621 166L621 164M196 258Q108 258 51 324L90 359Q133 310 197 310Q238 310 270.50 340Q303 370 303 414Q303 446 278 464.50Q253 483 219 483L186 483L177 513L298 629L328 654L328 656Q309 653 291 653L139 653L149 704L411 704L404 667L258 528Q295 523 327.50 495Q360 467 360 415Q360 353 312 305.50Q264 258 196 258M281 0L218 0L691 703L753 703L281 0Z"  horiz-adv-x="949" vert-adv-y="1000"  />

      
      <glyph glyph-name="unibf" unicode="&#xbf;" d="M242 424L258 503L337 503L321 424L242 424M-21-58Q-21-9 1 31.50Q23 72 56 100Q89 128 123 153.50Q157 179 185 211Q213 243 221 279L229 319L297 319L288 276Q278 230 250 192Q222 154 189.50 128Q157 102 125.50 76.50Q94 51 73 19Q52-13 52-51Q52-92 82-118.50Q112-145 162-145Q226-145 292-103L321-158Q246-210 155-210Q76-210 27.50-168.50Q-21-127-21-58Z"  horiz-adv-x="446" vert-adv-y="1000"  />

      
      <glyph glyph-name="unic0" unicode="&#xc0;" d="M-31 0L361 703L437 703L558 0L488 0L451 224L168 224L44 0L-31 0M199 284L441 284L399 539L388 631L386 631Q360 572 342 539L199 284M378 752L315 871L389 871L436 752L378 752Z"  horiz-adv-x="634" vert-adv-y="1000"  />

      
      <glyph glyph-name="unic1" unicode="&#xc1;" d="M-31 0L361 703L437 703L558 0L488 0L451 224L168 224L44 0L-31 0M199 284L441 284L399 539L388 631L386 631Q360 572 342 539L199 284M374 752L467 871L551 871L440 752L374 752Z"  horiz-adv-x="634" vert-adv-y="1000"  />

      
      <glyph glyph-name="unic2" unicode="&#xc2;" d="M-31 0L361 703L437 703L558 0L488 0L451 224L168 224L44 0L-31 0M199 284L441 284L399 539L388 631L386 631Q360 572 342 539L199 284M284 752L391 871L466 871L526 752L463 752L425 832L423 832L353 752L284 752Z"  horiz-adv-x="634" vert-adv-y="1000"  />

      
      <glyph glyph-name="unic3" unicode="&#xc3;" d="M-31 0L361 703L437 703L558 0L488 0L451 224L168 224L44 0L-31 0M199 284L441 284L399 539L388 631L386 631Q360 572 342 539L199 284M260 755Q281 871 366 871Q388 871 404.50 860Q421 849 429.50 835.50Q438 822 450.50 811Q463 800 476 800Q513 800 527 868L581 868Q558 752 474 752Q447 752 428.50 770Q410 788 395 805.50Q380 823 363 823Q344 823 331.50 802Q319 781 314 755L260 755Z"  horiz-adv-x="634" vert-adv-y="1000"  />

      
      <glyph glyph-name="unic4" unicode="&#xc4;" d="M-31 0L361 703L437 703L558 0L488 0L451 224L168 224L44 0L-31 0M199 284L441 284L399 539L388 631L386 631Q360 572 342 539L199 284M461 785L478 871L540 871L523 785L461 785M310 785L326 871L388 871L372 785L310 785Z"  horiz-adv-x="634" vert-adv-y="1000"  />

      
      <glyph glyph-name="unic5" unicode="&#xc5;" d="M-31 0L361 703L437 703L558 0L488 0L451 224L168 224L44 0L-31 0M199 284L441 284L399 539L388 631L386 631Q360 572 342 539L199 284M471 765Q471 765 458 753.50Q445 742 413 742Q381 742 362.50 758Q344 774 344 803Q344 836 369.50 859.50Q395 883 427 883Q460 883 478.50 866.50Q497 850 497 820Q497 788 471 765M415 779Q431 779 442.50 791Q454 803 454 820Q454 831 446.50 838.50Q439 846 427 846Q411 846 399 834Q387 822 387 804Q387 779 415 779Z"  horiz-adv-x="634" vert-adv-y="1000"  />

      
      <glyph glyph-name="unic6" unicode="&#xc6;" d="M-37 0L387 703L874 703L861 641L535 641L485 385L752 385L740 323L473 323L422 62L766 62L754 0L341 0L404 324L234 324L40 0L-37 0M270 384L415 384L466 641L425 641L270 384Z"  horiz-adv-x="855" vert-adv-y="1000"  />

      
      <glyph glyph-name="unic7" unicode="&#xc7;" d="M285-91L320-9Q199 4 130 86Q61 168 61 290Q61 404 120 502.50Q179 601 275.50 658Q372 715 479 715Q549 715 616.50 692.50Q684 670 726 624L682 575Q605 650 480 650Q340 650 236.50 543.50Q133 437 133 292Q133 187 196.50 120Q260 53 366 53Q431 53 496 78Q561 103 612 146L646 92Q596 47 517.50 17.50Q439-12 364-12L363-12L346-55Q371-59 388-76Q405-93 405-120Q405-162 372-183.50Q339-205 297-205Q265-205 243-199L253-153Q266-158 293-158Q351-158 351-119Q351-90 300-90Q291-90 285-91Z"  horiz-adv-x="719" vert-adv-y="1000"  />

      
      <glyph glyph-name="unic8" unicode="&#xc8;" d="M43 0L180 703L576 703L563 641L237 641L187 385L454 385L442 323L176 323L124 62L468 62L457 0L43 0M368 752L305 871L379 871L426 752L368 752Z"  horiz-adv-x="557" vert-adv-y="1000"  />

      
      <glyph glyph-name="unic9" unicode="&#xc9;" d="M363 752L456 871L540 871L429 752L363 752M43 0L180 703L576 703L563 641L237 641L187 385L454 385L442 323L176 323L124 62L468 62L457 0L43 0Z"  horiz-adv-x="557" vert-adv-y="1000"  />

      
      <glyph glyph-name="unica" unicode="&#xca;" d="M274 752L381 871L456 871L516 752L453 752L415 832L413 832L343 752L274 752M43 0L180 703L576 703L563 641L237 641L187 385L454 385L442 323L176 323L124 62L468 62L457 0L43 0Z"  horiz-adv-x="557" vert-adv-y="1000"  />

      
      <glyph glyph-name="unicb" unicode="&#xcb;" d="M450 785L467 871L529 871L512 785L450 785M299 785L315 871L377 871L361 785L299 785M43 0L180 703L576 703L563 641L237 641L187 385L454 385L442 323L176 323L124 62L468 62L457 0L43 0Z"  horiz-adv-x="557" vert-adv-y="1000"  />

      
      <glyph glyph-name="unicc" unicode="&#xcc;" d="M43 0L180 703L250 703L112 0L43 0M194 752L131 871L205 871L252 752L194 752Z"  horiz-adv-x="270" vert-adv-y="1000"  />

      
      <glyph glyph-name="unicd" unicode="&#xcd;" d="M43 0L180 703L250 703L112 0L43 0M189 752L282 871L366 871L255 752L189 752Z"  horiz-adv-x="270" vert-adv-y="1000"  />

      
      <glyph glyph-name="unice" unicode="&#xce;" d="M43 0L180 703L250 703L112 0L43 0M99 752L206 871L281 871L341 752L278 752L240 832L238 832L168 752L99 752Z"  horiz-adv-x="270" vert-adv-y="1000"  />

      
      <glyph glyph-name="unicf" unicode="&#xcf;" d="M43 0L180 703L250 703L112 0L43 0M276 785L293 871L355 871L338 785L276 785M125 785L141 871L203 871L187 785L125 785Z"  horiz-adv-x="270" vert-adv-y="1000"  />

      
      <glyph glyph-name="unid0" unicode="&#xd0;" d="M50 0L113 323L54 323L66 383L125 383L188 703L401 703Q544 703 625 631.50Q706 560 706 430Q706 250 588.50 125Q471 0 289 0L50 0M131 62L281 62Q433 62 533.50 166.50Q634 271 634 426Q634 529 570.50 585Q507 641 394 641L245 641L193 383L362 383L350 323L182 323L131 62Z"  horiz-adv-x="745" vert-adv-y="1000"  />

      
      <glyph glyph-name="unid1" unicode="&#xd1;" d="M43 0L180 703L242 703L503 197L542 102L544 102Q548 160 556 197L654 703L724 703L586 0L525 0L264 506L225 601L223 601Q218 543 211 506L112 0L43 0M311 755Q332 871 417 871Q439 871 455.50 860Q472 849 480.50 835.50Q489 822 501.50 811Q514 800 527 800Q564 800 578 868L632 868Q609 752 525 752Q498 752 479.50 770Q461 788 446 805.50Q431 823 414 823Q395 823 382.50 802Q370 781 365 755L311 755Z"  horiz-adv-x="744" vert-adv-y="1000"  />

      
      <glyph glyph-name="unid2" unicode="&#xd2;" d="M60 292Q60 403 120.50 501.50Q181 600 278.50 657.50Q376 715 482 715Q618 715 703 632Q788 549 788 419Q788 306 727 205.50Q666 105 568.50 46.50Q471-12 366-12Q230-12 145 73Q60 158 60 292M132 294Q132 188 197 120.50Q262 53 366 53Q500 53 608 161.50Q716 270 716 416Q716 519 650.50 584.50Q585 650 482 650Q347 650 239.50 544Q132 438 132 294M469 752L406 871L480 871L527 752L469 752Z"  horiz-adv-x="825" vert-adv-y="1000"  />

      
      <glyph glyph-name="unid3" unicode="&#xd3;" d="M465 752L558 871L642 871L531 752L465 752M60 292Q60 403 120.50 501.50Q181 600 278.50 657.50Q376 715 482 715Q618 715 703 632Q788 549 788 419Q788 306 727 205.50Q666 105 568.50 46.50Q471-12 366-12Q230-12 145 73Q60 158 60 292M132 294Q132 188 197 120.50Q262 53 366 53Q500 53 608 161.50Q716 270 716 416Q716 519 650.50 584.50Q585 650 482 650Q347 650 239.50 544Q132 438 132 294Z"  horiz-adv-x="825" vert-adv-y="1000"  />

      
      <glyph glyph-name="unid4" unicode="&#xd4;" d="M376 752L483 871L558 871L618 752L555 752L517 832L515 832L445 752L376 752M60 292Q60 403 120.50 501.50Q181 600 278.50 657.50Q376 715 482 715Q618 715 703 632Q788 549 788 419Q788 306 727 205.50Q666 105 568.50 46.50Q471-12 366-12Q230-12 145 73Q60 158 60 292M132 294Q132 188 197 120.50Q262 53 366 53Q500 53 608 161.50Q716 270 716 416Q716 519 650.50 584.50Q585 650 482 650Q347 650 239.50 544Q132 438 132 294Z"  horiz-adv-x="825" vert-adv-y="1000"  />

      
      <glyph glyph-name="unid5" unicode="&#xd5;" d="M60 292Q60 403 120.50 501.50Q181 600 278.50 657.50Q376 715 482 715Q618 715 703 632Q788 549 788 419Q788 306 727 205.50Q666 105 568.50 46.50Q471-12 366-12Q230-12 145 73Q60 158 60 292M132 294Q132 188 197 120.50Q262 53 366 53Q500 53 608 161.50Q716 270 716 416Q716 519 650.50 584.50Q585 650 482 650Q347 650 239.50 544Q132 438 132 294M352 755Q373 871 458 871Q480 871 496.50 860Q513 849 521.50 835.50Q530 822 542.50 811Q555 800 568 800Q605 800 619 868L673 868Q650 752 566 752Q539 752 520.50 770Q502 788 487 805.50Q472 823 455 823Q436 823 423.50 802Q411 781 406 755L352 755Z"  horiz-adv-x="825" vert-adv-y="1000"  />

      
      <glyph glyph-name="unid6" unicode="&#xd6;" d="M552 785L569 871L631 871L614 785L552 785M401 785L417 871L479 871L463 785L401 785M60 292Q60 403 120.50 501.50Q181 600 278.50 657.50Q376 715 482 715Q618 715 703 632Q788 549 788 419Q788 306 727 205.50Q666 105 568.50 46.50Q471-12 366-12Q230-12 145 73Q60 158 60 292M132 294Q132 188 197 120.50Q262 53 366 53Q500 53 608 161.50Q716 270 716 416Q716 519 650.50 584.50Q585 650 482 650Q347 650 239.50 544Q132 438 132 294Z"  horiz-adv-x="825" vert-adv-y="1000"  />

      
      <glyph glyph-name="unid7" unicode="&#xd7;" d="M31 41L246 284L31 527L72 568L286 327L500 568L541 527L324 284L541 41L500 0L286 241L72 0L31 41Z"  horiz-adv-x="568" vert-adv-y="1000"  />

      
      <glyph glyph-name="unid8" unicode="&#xd8;" d="M72 7L138 80Q60 163 60 292Q60 403 120.50 501.50Q181 600 278.50 657.50Q376 715 482 715Q591 715 669 659L732 728L771 696L708 627Q788 544 788 419Q788 306 727 205.50Q666 105 568.50 46.50Q471-12 366-12Q255-12 175 46L111-24L72 7M187 132L622 608Q563 650 482 650Q347 650 239.50 544Q132 438 132 294Q132 196 187 132M222 97Q283 53 366 53Q500 53 608 161.50Q716 270 716 416Q716 511 659 574L222 97Z"  horiz-adv-x="825" vert-adv-y="1000"  />

      
      <glyph glyph-name="unid9" unicode="&#xd9;" d="M78 192Q78 219 84 249L173 703L242 703L154 247Q149 227 149 200Q149 130 193 91.50Q237 53 316 53Q407 53 470.50 105Q534 157 553 249L642 703L711 703L620 240Q597 123 514.50 55.50Q432-12 314-12Q207-12 142.50 42.50Q78 97 78 192M420 752L357 871L431 871L478 752L420 752Z"  horiz-adv-x="723" vert-adv-y="1000"  />

      
      <glyph glyph-name="unida" unicode="&#xda;" d="M415 752L508 871L592 871L481 752L415 752M78 192Q78 219 84 249L173 703L242 703L154 247Q149 227 149 200Q149 130 193 91.50Q237 53 316 53Q407 53 470.50 105Q534 157 553 249L642 703L711 703L620 240Q597 123 514.50 55.50Q432-12 314-12Q207-12 142.50 42.50Q78 97 78 192Z"  horiz-adv-x="723" vert-adv-y="1000"  />

      
      <glyph glyph-name="unidb" unicode="&#xdb;" d="M326 752L433 871L508 871L568 752L505 752L467 832L465 832L395 752L326 752M78 192Q78 219 84 249L173 703L242 703L154 247Q149 227 149 200Q149 130 193 91.50Q237 53 316 53Q407 53 470.50 105Q534 157 553 249L642 703L711 703L620 240Q597 123 514.50 55.50Q432-12 314-12Q207-12 142.50 42.50Q78 97 78 192Z"  horiz-adv-x="723" vert-adv-y="1000"  />

      
      <glyph glyph-name="unidc" unicode="&#xdc;" d="M502 785L519 871L581 871L564 785L502 785M351 785L367 871L429 871L413 785L351 785M78 192Q78 219 84 249L173 703L242 703L154 247Q149 227 149 200Q149 130 193 91.50Q237 53 316 53Q407 53 470.50 105Q534 157 553 249L642 703L711 703L620 240Q597 123 514.50 55.50Q432-12 314-12Q207-12 142.50 42.50Q78 97 78 192Z"  horiz-adv-x="723" vert-adv-y="1000"  />

      
      <glyph glyph-name="unidd" unicode="&#xdd;" d="M192 0L251 302L93 703L168 703L266 448L294 364L296 364Q327 409 355 447L552 703L636 703L320 300L261 0L192 0M330 752L423 871L507 871L396 752L330 752Z"  horiz-adv-x="579" vert-adv-y="1000"  />

      
      <glyph glyph-name="unide" unicode="&#xde;" d="M43 0L180 703L250 703L224 578L386 578Q476 578 528 532.50Q580 487 580 406Q580 294 505.50 222.50Q431 151 327 151L142 151L112 0L43 0M154 213L319 213Q400 213 454 264.50Q508 316 508 403Q508 457 474 486.50Q440 516 378 516L212 516L154 213Z"  horiz-adv-x="601" vert-adv-y="1000"  />

      
      <glyph glyph-name="unidf" unicode="&#xdf;" d="M24 0L128 539Q144 620 209.50 667.50Q275 715 351 715Q426 715 469 678Q512 641 512 584Q512 551 496.50 522.50Q481 494 458.50 474.50Q436 455 413.50 437.50Q391 420 375.50 401Q360 382 360 362Q360 341 384 317Q408 293 436.50 273Q465 253 489 220Q513 187 513 151Q513 86 459 39.50Q405-7 333-7Q244-7 179 25L192 88Q213 73 253.50 64Q294 55 329 55Q372 55 407.50 79.50Q443 104 443 150Q443 173 427 195Q411 217 388.50 234.50Q366 252 343 270Q320 288 304 311Q288 334 288 358Q288 386 304 411Q320 436 342.50 455Q365 474 387.50 492.50Q410 511 426 533Q442 555 442 579Q442 609 418 631.50Q394 654 350 654Q297 654 251.50 620Q206 586 195 526L92 0L24 0Z"  horiz-adv-x="574" vert-adv-y="1000"  />

      
      <glyph glyph-name="unie0" unicode="&#xe0;" d="M4 115Q4 172 36 213Q68 254 122 274Q176 294 229.50 302Q283 310 342 310L375 310Q380 337 380 364Q380 454 278 454Q197 454 126 406L105 463Q136 484 185.50 499.50Q235 515 284 515Q361 515 405.50 480Q450 445 450 373Q450 347 444 317L383 0L317 0L329 58L340 101L338 101Q316 60 267 24Q218-12 154-12Q91-12 47.50 22.50Q4 57 4 115M73 124Q73 90 97.50 67.50Q122 45 170 45Q236 45 290.50 104.50Q345 164 361 236L365 256L336 256Q73 256 73 124M276 585L213 704L287 704L334 585L276 585Z"  horiz-adv-x="516" vert-adv-y="1000"  />

      
      <glyph glyph-name="unie1" unicode="&#xe1;" d="M4 115Q4 172 36 213Q68 254 122 274Q176 294 229.50 302Q283 310 342 310L375 310Q380 337 380 364Q380 454 278 454Q197 454 126 406L105 463Q136 484 185.50 499.50Q235 515 284 515Q361 515 405.50 480Q450 445 450 373Q450 347 444 317L383 0L317 0L329 58L340 101L338 101Q316 60 267 24Q218-12 154-12Q91-12 47.50 22.50Q4 57 4 115M73 124Q73 90 97.50 67.50Q122 45 170 45Q236 45 290.50 104.50Q345 164 361 236L365 256L336 256Q73 256 73 124M272 585L365 704L449 704L338 585L272 585Z"  horiz-adv-x="516" vert-adv-y="1000"  />

      
      <glyph glyph-name="unie2" unicode="&#xe2;" d="M4 115Q4 172 36 213Q68 254 122 274Q176 294 229.50 302Q283 310 342 310L375 310Q380 337 380 364Q380 454 278 454Q197 454 126 406L105 463Q136 484 185.50 499.50Q235 515 284 515Q361 515 405.50 480Q450 445 450 373Q450 347 444 317L383 0L317 0L329 58L340 101L338 101Q316 60 267 24Q218-12 154-12Q91-12 47.50 22.50Q4 57 4 115M73 124Q73 90 97.50 67.50Q122 45 170 45Q236 45 290.50 104.50Q345 164 361 236L365 256L336 256Q73 256 73 124M183 585L290 704L365 704L425 585L362 585L324 665L322 665L252 585L183 585Z"  horiz-adv-x="516" vert-adv-y="1000"  />

      
      <glyph glyph-name="unie3" unicode="&#xe3;" d="M4 115Q4 172 36 213Q68 254 122 274Q176 294 229.50 302Q283 310 342 310L375 310Q380 337 380 364Q380 454 278 454Q197 454 126 406L105 463Q136 484 185.50 499.50Q235 515 284 515Q361 515 405.50 480Q450 445 450 373Q450 347 444 317L383 0L317 0L329 58L340 101L338 101Q316 60 267 24Q218-12 154-12Q91-12 47.50 22.50Q4 57 4 115M73 124Q73 90 97.50 67.50Q122 45 170 45Q236 45 290.50 104.50Q345 164 361 236L365 256L336 256Q73 256 73 124M158 588Q179 704 264 704Q286 704 302.50 693Q319 682 327.50 668.50Q336 655 348.50 644Q361 633 374 633Q411 633 425 701L479 701Q456 585 372 585Q351 585 334.50 596Q318 607 309 620.50Q300 634 287.50 645Q275 656 261 656Q242 656 229.50 635Q217 614 212 588L158 588Z"  horiz-adv-x="516" vert-adv-y="1000"  />

      
      <glyph glyph-name="unie4" unicode="&#xe4;" d="M4 115Q4 172 36 213Q68 254 122 274Q176 294 229.50 302Q283 310 342 310L375 310Q380 337 380 364Q380 454 278 454Q197 454 126 406L105 463Q136 484 185.50 499.50Q235 515 284 515Q361 515 405.50 480Q450 445 450 373Q450 347 444 317L383 0L317 0L329 58L340 101L338 101Q316 60 267 24Q218-12 154-12Q91-12 47.50 22.50Q4 57 4 115M73 124Q73 90 97.50 67.50Q122 45 170 45Q236 45 290.50 104.50Q345 164 361 236L365 256L336 256Q73 256 73 124M359 618L376 704L438 704L421 618L359 618M208 618L224 704L286 704L270 618L208 618Z"  horiz-adv-x="516" vert-adv-y="1000"  />

      
      <glyph glyph-name="unie5" unicode="&#xe5;" d="M4 115Q4 172 36 213Q68 254 122 274Q176 294 229.50 302Q283 310 342 310L375 310Q380 337 380 364Q380 454 278 454Q197 454 126 406L105 463Q136 484 185.50 499.50Q235 515 284 515Q361 515 405.50 480Q450 445 450 373Q450 347 444 317L383 0L317 0L329 58L340 101L338 101Q316 60 267 24Q218-12 154-12Q91-12 47.50 22.50Q4 57 4 115M73 124Q73 90 97.50 67.50Q122 45 170 45Q236 45 290.50 104.50Q345 164 361 236L365 256L336 256Q73 256 73 124M369 598Q369 598 356 586.50Q343 575 311 575Q279 575 260.50 591Q242 607 242 636Q242 669 267.50 692.50Q293 716 325 716Q358 716 376.50 699.50Q395 683 395 653Q395 621 369 598M313 612Q329 612 340.50 624Q352 636 352 653Q352 664 344.50 671.50Q337 679 325 679Q309 679 297 667Q285 655 285 637Q285 612 313 612Z"  horiz-adv-x="516" vert-adv-y="1000"  />

      
      <glyph glyph-name="unie6" unicode="&#xe6;" d="M5 115Q5 306 340 306L374 306Q381 343 381 364Q381 454 275 454Q196 454 127 406L106 463Q185 515 282 515Q417 515 436 418L438 418Q517 515 639 515Q729 515 776 465.50Q823 416 823 332Q823 298 810 252L431 252Q425 224 427 196Q428 126 469.50 88Q511 50 579 50Q665 50 744 110L765 54Q732 27 678.50 7.50Q625-12 578-12Q498-12 443 25Q388 62 370 125L368 125Q362 111 348.50 92.50Q335 74 309.50 48Q284 22 243.50 5Q203-12 156-12Q91-12 48 21.50Q5 55 5 115M445 306L751 306Q754 322 754 340Q754 399 721.50 428.50Q689 458 639 458Q575 458 523 418.50Q471 379 445 306M75 123Q75 89 100 67Q125 45 171 45Q238 45 291 103.50Q344 162 360 233L364 252L306 252Q75 252 75 123Z"  horiz-adv-x="865" vert-adv-y="1000"  />

      
      <glyph glyph-name="unie7" unicode="&#xe7;" d="M184-91L219-8Q134 4 84 60.50Q34 117 34 202Q34 335 127.50 425Q221 515 343 515Q396 515 445 497Q494 479 525 443L484 397Q461 423 423 438.50Q385 454 346 454Q252 454 178 382.50Q104 311 104 207Q104 136 149.50 93Q195 50 268 50Q366 50 443 119L465 63Q428 29 374 8.50Q320-12 265-12L262-12L245-55Q270-59 287-76Q304-93 304-120Q304-162 271-183.50Q238-205 196-205Q164-205 142-199L152-153Q165-158 192-158Q250-158 250-119Q250-90 199-90Q190-90 184-91Z"  horiz-adv-x="544" vert-adv-y="1000"  />

      
      <glyph glyph-name="unie8" unicode="&#xe8;" d="M35 200Q35 326 119 420.50Q203 515 327 515Q418 515 464 465.50Q510 416 510 333Q510 294 496 249L110 249Q105 222 105 204Q105 138 147.50 94Q190 50 266 50Q353 50 431 110L452 54Q420 27 368 7.50Q316-12 264-12Q161-12 98 46.50Q35 105 35 200M123 303L438 303Q441 318 441 339Q441 398 409.50 428.50Q378 459 327 459Q262 459 205.50 418Q149 377 123 303M321 585L258 704L332 704L379 585L321 585Z"  horiz-adv-x="552" vert-adv-y="1000"  />

      
      <glyph glyph-name="unie9" unicode="&#xe9;" d="M316 585L409 704L493 704L382 585L316 585M35 200Q35 326 119 420.50Q203 515 327 515Q418 515 464 465.50Q510 416 510 333Q510 294 496 249L110 249Q105 222 105 204Q105 138 147.50 94Q190 50 266 50Q353 50 431 110L452 54Q420 27 368 7.50Q316-12 264-12Q161-12 98 46.50Q35 105 35 200M123 303L438 303Q441 318 441 339Q441 398 409.50 428.50Q378 459 327 459Q262 459 205.50 418Q149 377 123 303Z"  horiz-adv-x="552" vert-adv-y="1000"  />

      
      <glyph glyph-name="uniea" unicode="&#xea;" d="M227 585L334 704L409 704L469 585L406 585L368 665L366 665L296 585L227 585M35 200Q35 326 119 420.50Q203 515 327 515Q418 515 464 465.50Q510 416 510 333Q510 294 496 249L110 249Q105 222 105 204Q105 138 147.50 94Q190 50 266 50Q353 50 431 110L452 54Q420 27 368 7.50Q316-12 264-12Q161-12 98 46.50Q35 105 35 200M123 303L438 303Q441 318 441 339Q441 398 409.50 428.50Q378 459 327 459Q262 459 205.50 418Q149 377 123 303Z"  horiz-adv-x="552" vert-adv-y="1000"  />

      
      <glyph glyph-name="unieb" unicode="&#xeb;" d="M403 618L420 704L482 704L465 618L403 618M252 618L268 704L330 704L314 618L252 618M35 200Q35 326 119 420.50Q203 515 327 515Q418 515 464 465.50Q510 416 510 333Q510 294 496 249L110 249Q105 222 105 204Q105 138 147.50 94Q190 50 266 50Q353 50 431 110L452 54Q420 27 368 7.50Q316-12 264-12Q161-12 98 46.50Q35 105 35 200M123 303L438 303Q441 318 441 339Q441 398 409.50 428.50Q378 459 327 459Q262 459 205.50 418Q149 377 123 303Z"  horiz-adv-x="552" vert-adv-y="1000"  />

      
      <glyph glyph-name="uniec" unicode="&#xec;" d="M24 0L122 503L190 503L92 0L24 0M141 585L78 704L152 704L199 585L141 585Z"  horiz-adv-x="230" vert-adv-y="1000"  />

      
      <glyph glyph-name="unied" unicode="&#xed;" d="M135 585L228 704L312 704L201 585L135 585M24 0L122 503L190 503L92 0L24 0Z"  horiz-adv-x="230" vert-adv-y="1000"  />

      
      <glyph glyph-name="uniee" unicode="&#xee;" d="M47 585L154 704L229 704L289 585L226 585L188 665L186 665L116 585L47 585M24 0L122 503L190 503L92 0L24 0Z"  horiz-adv-x="230" vert-adv-y="1000"  />

      
      <glyph glyph-name="unief" unicode="&#xef;" d="M223 618L240 704L302 704L285 618L223 618M72 618L88 704L150 704L134 618L72 618M24 0L122 503L190 503L92 0L24 0Z"  horiz-adv-x="230" vert-adv-y="1000"  />

      
      <glyph glyph-name="unif0" unicode="&#xf0;" d="M32 187Q32 295 110.50 381Q189 467 315 467Q359 467 394.50 452.50Q430 438 444 424L457 409L459 409Q442 510 365 573L172 493L168 542L318 605Q259 639 186 659L214 711Q320 683 389 634L538 695L543 646L430 599Q532 505 532 352Q532 308 521.50 260.50Q511 213 487.50 164Q464 115 430.50 76Q397 37 346 12.50Q295-12 234-12Q137-12 84.50 45Q32 102 32 187M102 189Q102 129 136 89Q170 49 234 49Q327 49 390 128.50Q453 208 453 291Q453 344 416.50 376.50Q380 409 316 409Q227 409 164.50 344Q102 279 102 189Z"  horiz-adv-x="578" vert-adv-y="1000"  />

      
      <glyph glyph-name="unif1" unicode="&#xf1;" d="M24 0L122 503L189 503L176 431L162 384L164 384Q188 431 249 473Q310 515 386 515Q456 515 493 482Q530 449 530 385Q530 357 522 319L461 0L393 0L451 301Q459 347 459 368Q459 409 435.50 430Q412 451 372 451Q289 451 222 386.50Q155 322 137 233L92 0L24 0M216 588Q237 704 322 704Q344 704 360.50 693Q377 682 385.50 668.50Q394 655 406.50 644Q419 633 432 633Q469 633 483 701L537 701Q514 585 430 585Q409 585 392.50 596Q376 607 367 620.50Q358 634 345.50 645Q333 656 319 656Q300 656 287.50 635Q275 614 270 588L216 588Z"  horiz-adv-x="593" vert-adv-y="1000"  />

      
      <glyph glyph-name="unif2" unicode="&#xf2;" d="M34 208Q34 334 128 424.50Q222 515 343 515Q445 515 509 454.50Q573 394 573 298Q573 171 478 79.50Q383-12 264-12Q162-12 98 49.50Q34 111 34 208M104 210Q104 139 149 94.50Q194 50 265 50Q356 50 429.50 122Q503 194 503 295Q503 365 458 409.50Q413 454 342 454Q250 454 177 382Q104 310 104 210M337 585L274 704L348 704L395 585L337 585Z"  horiz-adv-x="624" vert-adv-y="1000"  />

      
      <glyph glyph-name="unif3" unicode="&#xf3;" d="M333 585L426 704L510 704L399 585L333 585M34 208Q34 334 128 424.50Q222 515 343 515Q445 515 509 454.50Q573 394 573 298Q573 171 478 79.50Q383-12 264-12Q162-12 98 49.50Q34 111 34 208M104 210Q104 139 149 94.50Q194 50 265 50Q356 50 429.50 122Q503 194 503 295Q503 365 458 409.50Q413 454 342 454Q250 454 177 382Q104 310 104 210Z"  horiz-adv-x="624" vert-adv-y="1000"  />

      
      <glyph glyph-name="unif4" unicode="&#xf4;" d="M243 585L350 704L425 704L485 585L422 585L384 665L382 665L312 585L243 585M34 208Q34 334 128 424.50Q222 515 343 515Q445 515 509 454.50Q573 394 573 298Q573 171 478 79.50Q383-12 264-12Q162-12 98 49.50Q34 111 34 208M104 210Q104 139 149 94.50Q194 50 265 50Q356 50 429.50 122Q503 194 503 295Q503 365 458 409.50Q413 454 342 454Q250 454 177 382Q104 310 104 210Z"  horiz-adv-x="624" vert-adv-y="1000"  />

      
      <glyph glyph-name="unif5" unicode="&#xf5;" d="M34 208Q34 334 128 424.50Q222 515 343 515Q445 515 509 454.50Q573 394 573 298Q573 171 478 79.50Q383-12 264-12Q162-12 98 49.50Q34 111 34 208M104 210Q104 139 149 94.50Q194 50 265 50Q356 50 429.50 122Q503 194 503 295Q503 365 458 409.50Q413 454 342 454Q250 454 177 382Q104 310 104 210M219 588Q240 704 325 704Q347 704 363.50 693Q380 682 388.50 668.50Q397 655 409.50 644Q422 633 435 633Q472 633 486 701L540 701Q517 585 433 585Q412 585 395.50 596Q379 607 370 620.50Q361 634 348.50 645Q336 656 322 656Q303 656 290.50 635Q278 614 273 588L219 588Z"  horiz-adv-x="624" vert-adv-y="1000"  />

      
      <glyph glyph-name="unif6" unicode="&#xf6;" d="M419 618L436 704L498 704L481 618L419 618M268 618L284 704L346 704L330 618L268 618M34 208Q34 334 128 424.50Q222 515 343 515Q445 515 509 454.50Q573 394 573 298Q573 171 478 79.50Q383-12 264-12Q162-12 98 49.50Q34 111 34 208M104 210Q104 139 149 94.50Q194 50 265 50Q356 50 429.50 122Q503 194 503 295Q503 365 458 409.50Q413 454 342 454Q250 454 177 382Q104 310 104 210Z"  horiz-adv-x="624" vert-adv-y="1000"  />

      
      <glyph glyph-name="unif7" unicode="&#xf7;" d="M243 433L243 507L318 507L318 433L243 433M36 255L36 313L526 313L526 255L36 255M243 61L243 135L318 135L318 61L243 61Z"  horiz-adv-x="568" vert-adv-y="1000"  />

      
      <glyph glyph-name="unif8" unicode="&#xf8;" d="M44-1L94 53Q34 113 34 208Q34 334 128 424.50Q222 515 343 515Q423 515 482 476L533 532L572 500L519 443Q573 384 573 298Q573 171 478 79.50Q383-12 264-12Q189-12 133 22L82-33L44-1M140 104L436 426Q396 454 342 454Q250 454 177 382Q104 310 104 210Q104 146 140 104M179 72Q217 50 265 50Q356 50 429.50 122Q503 194 503 295Q503 352 471 392L179 72Z"  horiz-adv-x="624" vert-adv-y="1000"  />

      
      <glyph glyph-name="unif9" unicode="&#xf9;" d="M47 118Q47 141 54 185L116 503L184 503L126 204Q118 162 118 135Q118 52 207 52Q288 52 353 119Q418 186 434 272L479 503L547 503L450 0L383 0L397 72L410 119L408 119Q381 71 323 29.50Q265-12 188-12Q125-12 86 19Q47 50 47 118M316 585L253 704L327 704L374 585L316 585Z"  horiz-adv-x="588" vert-adv-y="1000"  />

      
      <glyph glyph-name="unifa" unicode="&#xfa;" d="M311 585L404 704L488 704L377 585L311 585M47 118Q47 141 54 185L116 503L184 503L126 204Q118 162 118 135Q118 52 207 52Q288 52 353 119Q418 186 434 272L479 503L547 503L450 0L383 0L397 72L410 119L408 119Q381 71 323 29.50Q265-12 188-12Q125-12 86 19Q47 50 47 118Z"  horiz-adv-x="588" vert-adv-y="1000"  />

      
      <glyph glyph-name="unifb" unicode="&#xfb;" d="M222 585L329 704L404 704L464 585L401 585L363 665L361 665L291 585L222 585M47 118Q47 141 54 185L116 503L184 503L126 204Q118 162 118 135Q118 52 207 52Q288 52 353 119Q418 186 434 272L479 503L547 503L450 0L383 0L397 72L410 119L408 119Q381 71 323 29.50Q265-12 188-12Q125-12 86 19Q47 50 47 118Z"  horiz-adv-x="588" vert-adv-y="1000"  />

      
      <glyph glyph-name="unifc" unicode="&#xfc;" d="M398 618L415 704L477 704L460 618L398 618M247 618L263 704L325 704L309 618L247 618M47 118Q47 141 54 185L116 503L184 503L126 204Q118 162 118 135Q118 52 207 52Q288 52 353 119Q418 186 434 272L479 503L547 503L450 0L383 0L397 72L410 119L408 119Q381 71 323 29.50Q265-12 188-12Q125-12 86 19Q47 50 47 118Z"  horiz-adv-x="588" vert-adv-y="1000"  />

      
      <glyph glyph-name="unifd" unicode="&#xfd;" d="M-39-129Q-17-149 17-149Q78-149 129-68L174 5L61 503L132 503L210 127L218 74L219 74Q233 102 247 126L465 503L542 503L174-107Q113-210 19-210Q-31-210-74-180L-39-129M284 585L377 704L461 704L350 585L284 585Z"  horiz-adv-x="529" vert-adv-y="1000"  />

      
      <glyph glyph-name="unife" unicode="&#xfe;" d="M101 41L54-200L-14-200L161 703L228 703L181 457L169 415L171 415Q198 457 245.50 486Q293 515 353 515Q441 515 490 461Q539 407 539 313Q539 173 456.50 80.50Q374-12 266-12Q210-12 167.50 14Q125 40 109 89L107 89Q106 67 101 41M135 194Q135 131 167 90Q199 49 260 49Q339 49 403.50 121Q468 193 468 308Q468 376 434 414.50Q400 453 341 453Q253 453 194 372.50Q135 292 135 194Z"  horiz-adv-x="590" vert-adv-y="1000"  />

      
      <glyph glyph-name="uniff" unicode="&#xff;" d="M-39-129Q-17-149 17-149Q78-149 129-68L174 5L61 503L132 503L210 127L218 74L219 74Q233 102 247 126L465 503L542 503L174-107Q113-210 19-210Q-31-210-74-180L-39-129M370 618L387 704L449 704L432 618L370 618M219 618L235 704L297 704L281 618L219 618Z"  horiz-adv-x="529" vert-adv-y="1000"  />

      
      <glyph glyph-name="uni0100" unicode="&#x0100;" d="M-31 0L361 703L437 703L558 0L488 0L451 224L168 224L44 0L-31 0M199 284L441 284L399 539L388 631L386 631Q360 572 342 539L199 284M292 785L302 840L548 840L539 785L292 785Z"  horiz-adv-x="634" vert-adv-y="1000"  />

      
      <glyph glyph-name="uni0101" unicode="&#x0101;" d="M4 115Q4 172 36 213Q68 254 122 274Q176 294 229.50 302Q283 310 342 310L375 310Q380 337 380 364Q380 454 278 454Q197 454 126 406L105 463Q136 484 185.50 499.50Q235 515 284 515Q361 515 405.50 480Q450 445 450 373Q450 347 444 317L383 0L317 0L329 58L340 101L338 101Q316 60 267 24Q218-12 154-12Q91-12 47.50 22.50Q4 57 4 115M73 124Q73 90 97.50 67.50Q122 45 170 45Q236 45 290.50 104.50Q345 164 361 236L365 256L336 256Q73 256 73 124M190 618L200 673L446 673L437 618L190 618Z"  horiz-adv-x="516" vert-adv-y="1000"  />

      
      <glyph glyph-name="uni0102" unicode="&#x0102;" d="M-31 0L361 703L437 703L558 0L488 0L451 224L168 224L44 0L-31 0M199 284L441 284L399 539L388 631L386 631Q360 572 342 539L199 284M412 749Q370 749 340 772Q310 795 310 837Q310 849 315 871L371 871Q366 853 366 842Q366 796 416 796Q443 796 464.50 814Q486 832 491 871L547 871Q539 808 501 778.50Q463 749 412 749Z"  horiz-adv-x="634" vert-adv-y="1000"  />

      
      <glyph glyph-name="uni0103" unicode="&#x0103;" d="M4 115Q4 172 36 213Q68 254 122 274Q176 294 229.50 302Q283 310 342 310L375 310Q380 337 380 364Q380 454 278 454Q197 454 126 406L105 463Q136 484 185.50 499.50Q235 515 284 515Q361 515 405.50 480Q450 445 450 373Q450 347 444 317L383 0L317 0L329 58L340 101L338 101Q316 60 267 24Q218-12 154-12Q91-12 47.50 22.50Q4 57 4 115M73 124Q73 90 97.50 67.50Q122 45 170 45Q236 45 290.50 104.50Q345 164 361 236L365 256L336 256Q73 256 73 124M311 582Q269 582 239 605Q209 628 209 670Q209 682 214 704L270 704Q265 686 265 675Q265 629 315 629Q342 629 363.50 647Q385 665 390 704L446 704Q438 641 400 611.50Q362 582 311 582Z"  horiz-adv-x="516" vert-adv-y="1000"  />

      
      <glyph glyph-name="uni0104" unicode="&#x0104;" d="M-31 0L361 703L437 703L558 0L556 0Q462-64 462-108Q462-124 475-134.50Q488-145 502-147L515-149L489-205Q485-205 479-204Q473-203 457-198Q441-193 428.50-185.50Q416-178 406-162Q396-146 396-125Q396-58 487 3L451 224L168 224L44 0L-31 0M199 284L441 284L399 539L388 631L386 631Q360 572 342 539L199 284Z"  horiz-adv-x="634" vert-adv-y="1000"  />

      
      <glyph glyph-name="uni0105" unicode="&#x0105;" d="M4 115Q4 172 36 213Q68 254 122 274Q176 294 229.50 302Q283 310 342 310L375 310Q380 337 380 364Q380 454 278 454Q197 454 126 406L105 463Q136 484 185.50 499.50Q235 515 284 515Q361 515 405.50 480Q450 445 450 373Q450 347 444 317L383 0Q288-62 288-108Q288-124 301-134.50Q314-145 328-147L341-149L315-205Q311-205 305-204Q299-203 283-198Q267-193 254.50-185.50Q242-178 232-162Q222-146 222-125Q222-58 318 7L329 58L340 101L338 101Q316 60 267 24Q218-12 154-12Q91-12 47.50 22.50Q4 57 4 115M73 124Q73 90 97.50 67.50Q122 45 170 45Q236 45 290.50 104.50Q345 164 361 236L365 256L336 256Q73 256 73 124Z"  horiz-adv-x="516" vert-adv-y="1000"  />

      
      <glyph glyph-name="uni0106" unicode="&#x0106;" d="M457 752L550 871L634 871L523 752L457 752M61 290Q61 404 120 502.50Q179 601 275.50 658Q372 715 479 715Q549 715 616.50 692.50Q684 670 726 624L682 575Q605 650 480 650Q340 650 236.50 543.50Q133 437 133 292Q133 187 196.50 120Q260 53 366 53Q431 53 496 78Q561 103 612 146L646 92Q596 47 517.50 17.50Q439-12 364-12Q225-12 143 72Q61 156 61 290Z"  horiz-adv-x="719" vert-adv-y="1000"  />

      
      <glyph glyph-name="uni0107" unicode="&#x0107;" d="M316 585L409 704L493 704L382 585L316 585M34 202Q34 335 127.50 425Q221 515 343 515Q396 515 445 497Q494 479 525 443L484 397Q461 423 423 438.50Q385 454 346 454Q252 454 178 382.50Q104 311 104 207Q104 136 149.50 93Q195 50 268 50Q366 50 443 119L465 63Q428 29 374 8.50Q320-12 265-12Q162-12 98 47Q34 106 34 202Z"  horiz-adv-x="543" vert-adv-y="1000"  />

      
      <glyph glyph-name="uni0108" unicode="&#x0108;" d="M367 752L474 871L549 871L609 752L546 752L508 832L506 832L436 752L367 752M61 290Q61 404 120 502.50Q179 601 275.50 658Q372 715 479 715Q549 715 616.50 692.50Q684 670 726 624L682 575Q605 650 480 650Q340 650 236.50 543.50Q133 437 133 292Q133 187 196.50 120Q260 53 366 53Q431 53 496 78Q561 103 612 146L646 92Q596 47 517.50 17.50Q439-12 364-12Q225-12 143 72Q61 156 61 290Z"  horiz-adv-x="719" vert-adv-y="1000"  />

      
      <glyph glyph-name="uni0109" unicode="&#x0109;" d="M226 585L333 704L408 704L468 585L405 585L367 665L365 665L295 585L226 585M34 202Q34 335 127.50 425Q221 515 343 515Q396 515 445 497Q494 479 525 443L484 397Q461 423 423 438.50Q385 454 346 454Q252 454 178 382.50Q104 311 104 207Q104 136 149.50 93Q195 50 268 50Q366 50 443 119L465 63Q428 29 374 8.50Q320-12 265-12Q162-12 98 47Q34 106 34 202Z"  horiz-adv-x="543" vert-adv-y="1000"  />

      
      <glyph glyph-name="uni010A" unicode="&#x010A;" d="M61 290Q61 404 120 502.50Q179 601 275.50 658Q372 715 479 715Q549 715 616.50 692.50Q684 670 726 624L682 575Q605 650 480 650Q340 650 236.50 543.50Q133 437 133 292Q133 187 196.50 120Q260 53 366 53Q431 53 496 78Q561 103 612 146L646 92Q596 47 517.50 17.50Q439-12 364-12Q225-12 143 72Q61 156 61 290M467 786L483 871L548 871L532 786L467 786Z"  horiz-adv-x="719" vert-adv-y="1000"  />

      
      <glyph glyph-name="uni010B" unicode="&#x010B;" d="M34 202Q34 335 127.50 425Q221 515 343 515Q396 515 445 497Q494 479 525 443L484 397Q461 423 423 438.50Q385 454 346 454Q252 454 178 382.50Q104 311 104 207Q104 136 149.50 93Q195 50 268 50Q366 50 443 119L465 63Q428 29 374 8.50Q320-12 265-12Q162-12 98 47Q34 106 34 202M326 619L342 704L407 704L391 619L326 619Z"  horiz-adv-x="543" vert-adv-y="1000"  />

      
      <glyph glyph-name="uni010C" unicode="&#x010C;" d="M457 752L397 871L460 871L498 791L500 791L570 871L639 871L532 752L457 752M61 290Q61 404 120 502.50Q179 601 275.50 658Q372 715 479 715Q549 715 616.50 692.50Q684 670 726 624L682 575Q605 650 480 650Q340 650 236.50 543.50Q133 437 133 292Q133 187 196.50 120Q260 53 366 53Q431 53 496 78Q561 103 612 146L646 92Q596 47 517.50 17.50Q439-12 364-12Q225-12 143 72Q61 156 61 290Z"  horiz-adv-x="719" vert-adv-y="1000"  />

      
      <glyph glyph-name="uni010D" unicode="&#x010D;" d="M316 585L256 704L319 704L357 624L359 624L429 704L498 704L391 585L316 585M34 202Q34 335 127.50 425Q221 515 343 515Q396 515 445 497Q494 479 525 443L484 397Q461 423 423 438.50Q385 454 346 454Q252 454 178 382.50Q104 311 104 207Q104 136 149.50 93Q195 50 268 50Q366 50 443 119L465 63Q428 29 374 8.50Q320-12 265-12Q162-12 98 47Q34 106 34 202Z"  horiz-adv-x="543" vert-adv-y="1000"  />

      
      <glyph glyph-name="uni010E" unicode="&#x010E;" d="M398 752L338 871L401 871L439 791L441 791L511 871L580 871L473 752L398 752M43 0L180 703L393 703Q536 703 617.50 631.50Q699 560 699 430Q699 250 581 125Q463 0 282 0L43 0M124 62L274 62Q426 62 526.50 166.50Q627 271 627 426Q627 529 563 585Q499 641 387 641L238 641L124 62Z"  horiz-adv-x="738" vert-adv-y="1000"  />

      
      <glyph glyph-name="uni010F" unicode="&#x010F;" d="M651 702L717 702L717 688Q717 633 673 563L617 563Q654 626 654 674Q654 687 651 702M35 190Q35 330 117.50 422.50Q200 515 311 515Q366 515 408 489.50Q450 464 466 415L468 415Q468 436 472 457L520 703L588 703L452 0L386 0L396 53L407 94L405 94Q378 49 329.50 18.50Q281-12 222-12Q132-12 83.50 42Q35 96 35 190M105 194Q105 126 139 87.50Q173 49 233 49Q322 49 380.50 130.50Q439 212 439 311Q439 374 407.50 413.50Q376 453 313 453Q234 453 169.50 381Q105 309 105 194Z"  horiz-adv-x="594" vert-adv-y="1000"  />

      
      <glyph glyph-name="uni0110" unicode="&#x0110;" d="M50 0L113 323L54 323L66 383L125 383L188 703L401 703Q544 703 625 631.50Q706 560 706 430Q706 250 588.50 125Q471 0 289 0L50 0M131 62L281 62Q433 62 533.50 166.50Q634 271 634 426Q634 529 570.50 585Q507 641 394 641L245 641L193 383L362 383L350 323L182 323L131 62Z"  horiz-adv-x="745" vert-adv-y="1000"  />

      
      <glyph glyph-name="uni0111" unicode="&#x0111;" d="M35 190Q35 330 117.50 422.50Q200 515 311 515Q366 515 408 489.50Q450 464 466 415L468 415Q468 436 472 457L493 566L362 566L372 617L503 617L520 703L588 703L571 617L651 617L641 566L561 566L452 0L386 0L396 53L407 93L405 93Q377 48 329 18Q281-12 222-12Q132-12 83.50 42Q35 96 35 190M105 194Q105 126 139 87.50Q173 49 233 49Q322 49 380.50 130.50Q439 212 439 311Q439 374 407.50 413.50Q376 453 313 453Q234 453 169.50 381Q105 309 105 194Z"  horiz-adv-x="590" vert-adv-y="1000"  />

      
      <glyph glyph-name="uni0112" unicode="&#x0112;" d="M43 0L180 703L576 703L563 641L237 641L187 385L454 385L442 323L176 323L124 62L468 62L457 0L43 0M282 785L292 840L538 840L529 785L282 785Z"  horiz-adv-x="557" vert-adv-y="1000"  />

      
      <glyph glyph-name="uni0113" unicode="&#x0113;" d="M35 200Q35 326 119 420.50Q203 515 327 515Q418 515 464 465.50Q510 416 510 333Q510 294 496 249L110 249Q105 222 105 204Q105 138 147.50 94Q190 50 266 50Q353 50 431 110L452 54Q420 27 368 7.50Q316-12 264-12Q161-12 98 46.50Q35 105 35 200M123 303L438 303Q441 318 441 339Q441 398 409.50 428.50Q378 459 327 459Q262 459 205.50 418Q149 377 123 303M235 618L245 673L491 673L482 618L235 618Z"  horiz-adv-x="552" vert-adv-y="1000"  />

      
      <glyph glyph-name="uni0114" unicode="&#x0114;" d="M43 0L180 703L576 703L563 641L237 641L187 385L454 385L442 323L176 323L124 62L468 62L457 0L43 0M402 749Q360 749 330 772Q300 795 300 837Q300 849 305 871L361 871Q356 853 356 842Q356 796 406 796Q433 796 454.50 814Q476 832 481 871L537 871Q529 808 491 778.50Q453 749 402 749Z"  horiz-adv-x="557" vert-adv-y="1000"  />

      
      <glyph glyph-name="uni0115" unicode="&#x0115;" d="M35 200Q35 326 119 420.50Q203 515 327 515Q418 515 464 465.50Q510 416 510 333Q510 294 496 249L110 249Q105 222 105 204Q105 138 147.50 94Q190 50 266 50Q353 50 431 110L452 54Q420 27 368 7.50Q316-12 264-12Q161-12 98 46.50Q35 105 35 200M123 303L438 303Q441 318 441 339Q441 398 409.50 428.50Q378 459 327 459Q262 459 205.50 418Q149 377 123 303M355 582Q313 582 283 605Q253 628 253 670Q253 682 258 704L314 704Q309 686 309 675Q309 629 359 629Q386 629 407.50 647Q429 665 434 704L490 704Q482 641 444 611.50Q406 582 355 582Z"  horiz-adv-x="552" vert-adv-y="1000"  />

      
      <glyph glyph-name="uni0116" unicode="&#x0116;" d="M43 0L180 703L576 703L563 641L237 641L187 385L454 385L442 323L176 323L124 62L468 62L457 0L43 0M373 786L389 871L454 871L438 786L373 786Z"  horiz-adv-x="557" vert-adv-y="1000"  />

      
      <glyph glyph-name="uni0117" unicode="&#x0117;" d="M35 200Q35 326 119 420.50Q203 515 327 515Q418 515 464 465.50Q510 416 510 333Q510 294 496 249L110 249Q105 222 105 204Q105 138 147.50 94Q190 50 266 50Q353 50 431 110L452 54Q420 27 368 7.50Q316-12 264-12Q161-12 98 46.50Q35 105 35 200M123 303L438 303Q441 318 441 339Q441 398 409.50 428.50Q378 459 327 459Q262 459 205.50 418Q149 377 123 303M326 619L342 704L407 704L391 619L326 619Z"  horiz-adv-x="552" vert-adv-y="1000"  />

      
      <glyph glyph-name="uni0118" unicode="&#x0118;" d="M43 0L180 703L576 703L563 641L237 641L187 385L454 385L442 323L176 323L124 62L468 62L457 0Q425-21 395.50-50.50Q366-80 366-108Q366-124 379.50-134.50Q393-145 406-147L420-149L394-205Q390-205 384-204Q378-203 362-198Q346-193 333.50-185.50Q321-178 311-162Q301-146 301-125Q301-66 385-2L385 0L43 0Z"  horiz-adv-x="557" vert-adv-y="1000"  />

      
      <glyph glyph-name="uni0119" unicode="&#x0119;" d="M35 200Q35 326 119 420.50Q203 515 327 515Q418 515 464 465.50Q510 416 510 333Q510 315 506.50 294Q503 273 500 261L496 249L111 249L110 246Q110 242 109 237Q108 232 107.50 226.50Q107 221 106.50 214Q106 207 106 202Q106 131 150.50 90.50Q195 50 266 50Q306 50 347.50 65Q389 80 410 95L431 110L452 54Q444 47 392.50 16Q341-15 306.50-47Q272-79 272-108Q272-124 285.50-134.50Q299-145 312-147L326-149L300-205Q296-205 290-204Q284-203 268-198Q252-193 240-185.50Q228-178 218-162Q208-146 208-125Q208-68 282-12L282-10Q174-18 104.50 41Q35 100 35 200M123 303L438 303Q441 321 441 340Q441 398 409.50 428Q378 458 327 458Q262 458 205.50 417Q149 376 123 303Z"  horiz-adv-x="553" vert-adv-y="1000"  />

      
      <glyph glyph-name="uni011A" unicode="&#x011A;" d="M364 752L304 871L367 871L405 791L407 791L477 871L546 871L439 752L364 752M43 0L180 703L576 703L563 641L237 641L187 385L454 385L442 323L176 323L124 62L468 62L457 0L43 0Z"  horiz-adv-x="557" vert-adv-y="1000"  />

      
      <glyph glyph-name="uni011B" unicode="&#x011B;" d="M317 585L257 704L320 704L358 624L360 624L430 704L499 704L392 585L317 585M35 200Q35 326 119 420.50Q203 515 327 515Q418 515 464 465.50Q510 416 510 333Q510 294 496 249L110 249Q105 222 105 204Q105 138 147.50 94Q190 50 266 50Q353 50 431 110L452 54Q420 27 368 7.50Q316-12 264-12Q161-12 98 46.50Q35 105 35 200M123 303L438 303Q441 318 441 339Q441 398 409.50 428.50Q378 459 327 459Q262 459 205.50 418Q149 377 123 303Z"  horiz-adv-x="552" vert-adv-y="1000"  />

      
      <glyph glyph-name="uni011C" unicode="&#x011C;" d="M364 752L471 871L546 871L606 752L543 752L505 832L503 832L433 752L364 752M59 282Q59 397 117.50 497Q176 597 273.50 656Q371 715 481 715Q636 715 725 634L681 585Q648 615 593 632.50Q538 650 482 650Q339 650 235.50 541Q132 432 132 285Q132 181 194.50 117Q257 53 360 53Q491 53 603 162L625 274L506 274L517 336L702 336L637 0L574 0L584 54L591 84L589 84Q583 78 566 65Q549 52 518 33Q487 14 442.50 1Q398-12 352-12Q223-12 141 70Q59 152 59 282Z"  horiz-adv-x="758" vert-adv-y="1000"  />

      
      <glyph glyph-name="uni011D" unicode="&#x011D;" d="M219 585L326 704L401 704L461 585L398 585L360 665L358 665L288 585L219 585M38-115Q91-148 170-148Q248-148 304-109Q360-70 376 9L386 55L397 96L395 96Q334 3 228 3Q139 3 88 57.50Q37 112 37 203Q37 277 66.50 346.50Q96 416 158 465.50Q220 515 301 515Q358 515 402 494Q446 473 461 426L463 426Q462 437 464 448L475 503L541 503L444 6Q422-106 347.50-158Q273-210 175-210Q78-210 5-168L38-115M107 207Q107 140 141.50 102Q176 64 239 64Q302 64 348 108Q394 152 414 211Q434 270 434 331Q434 454 306 454Q215 454 161 379Q107 304 107 207Z"  horiz-adv-x="581" vert-adv-y="1000"  />

      
      <glyph glyph-name="uni011E" unicode="&#x011E;" d="M59 282Q59 397 117.50 497Q176 597 273.50 656Q371 715 481 715Q636 715 725 634L681 585Q648 615 593 632.50Q538 650 482 650Q339 650 235.50 541Q132 432 132 285Q132 181 194.50 117Q257 53 360 53Q491 53 603 162L625 274L506 274L517 336L702 336L637 0L574 0L584 54L591 84L589 84Q583 78 566 65Q549 52 518 33Q487 14 442.50 1Q398-12 352-12Q223-12 141 70Q59 152 59 282M490 749Q448 749 418 772Q388 795 388 837Q388 849 393 871L449 871Q444 853 444 842Q444 796 494 796Q521 796 542.50 814Q564 832 569 871L625 871Q617 808 579 778.50Q541 749 490 749Z"  horiz-adv-x="758" vert-adv-y="1000"  />

      
      <glyph glyph-name="uni011F" unicode="&#x011F;" d="M38-115Q91-148 170-148Q248-148 304-109Q360-70 376 9L386 55L397 96L395 96Q334 3 228 3Q139 3 88 57.50Q37 112 37 203Q37 277 66.50 346.50Q96 416 158 465.50Q220 515 301 515Q358 515 402 494Q446 473 461 426L463 426Q462 437 464 448L475 503L541 503L444 6Q422-106 347.50-158Q273-210 175-210Q78-210 5-168L38-115M107 207Q107 140 141.50 102Q176 64 239 64Q302 64 348 108Q394 152 414 211Q434 270 434 331Q434 454 306 454Q215 454 161 379Q107 304 107 207M345 582Q303 582 273 605Q243 628 243 670Q243 682 248 704L304 704Q299 686 299 675Q299 629 349 629Q376 629 397.50 647Q419 665 424 704L480 704Q472 641 434 611.50Q396 582 345 582Z"  horiz-adv-x="581" vert-adv-y="1000"  />

      
      <glyph glyph-name="uni0120" unicode="&#x0120;" d="M59 282Q59 397 117.50 497Q176 597 273.50 656Q371 715 481 715Q636 715 725 634L681 585Q648 615 593 632.50Q538 650 482 650Q339 650 235.50 541Q132 432 132 285Q132 181 194.50 117Q257 53 360 53Q491 53 603 162L625 274L506 274L517 336L702 336L637 0L574 0L584 54L591 84L589 84Q583 78 566 65Q549 52 518 33Q487 14 442.50 1Q398-12 352-12Q223-12 141 70Q59 152 59 282M463 786L479 871L544 871L528 786L463 786Z"  horiz-adv-x="758" vert-adv-y="1000"  />

      
      <glyph glyph-name="uni0121" unicode="&#x0121;" d="M38-115Q91-148 170-148Q248-148 304-109Q360-70 376 9L386 55L397 96L395 96Q334 3 228 3Q139 3 88 57.50Q37 112 37 203Q37 277 66.50 346.50Q96 416 158 465.50Q220 515 301 515Q358 515 402 494Q446 473 461 426L463 426Q462 437 464 448L475 503L541 503L444 6Q422-106 347.50-158Q273-210 175-210Q78-210 5-168L38-115M107 207Q107 140 141.50 102Q176 64 239 64Q302 64 348 108Q394 152 414 211Q434 270 434 331Q434 454 306 454Q215 454 161 379Q107 304 107 207M318 619L334 704L399 704L383 619L318 619Z"  horiz-adv-x="581" vert-adv-y="1000"  />

      
      <glyph glyph-name="uni0122" unicode="&#x0122;" d="M298-63L364-63L364-77Q364-132 320-202L264-202Q301-139 301-91Q301-78 298-63M59 282Q59 397 117.50 497Q176 597 273.50 656Q371 715 481 715Q636 715 725 634L681 585Q648 615 593 632.50Q538 650 482 650Q339 650 235.50 541Q132 432 132 285Q132 181 194.50 117Q257 53 360 53Q491 53 603 162L625 274L506 274L517 336L702 336L637 0L574 0L584 54L591 84L589 84Q583 78 566 65Q549 52 518 33Q487 14 442.50 1Q398-12 352-12Q223-12 141 70Q59 152 59 282Z"  horiz-adv-x="758" vert-adv-y="1000"  />

      
      <glyph glyph-name="uni0123" unicode="&#x0123;" d="M371 565L305 565L305 578Q305 633 349 703L405 703Q368 640 368 592Q368 578 371 565M38-115Q91-148 170-148Q248-148 304-109Q360-70 376 9L386 55L397 96L395 96Q334 3 228 3Q139 3 88 57.50Q37 112 37 203Q37 277 66.50 346.50Q96 416 158 465.50Q220 515 301 515Q358 515 402 494Q446 473 461 426L463 426Q462 437 464 448L475 503L541 503L444 6Q422-106 347.50-158Q273-210 175-210Q78-210 5-168L38-115M107 207Q107 140 141.50 102Q176 64 239 64Q302 64 348 108Q394 152 414 211Q434 270 434 331Q434 454 306 454Q215 454 161 379Q107 304 107 207Z"  horiz-adv-x="581" vert-adv-y="1000"  />

      
      <glyph glyph-name="uni0124" unicode="&#x0124;" d="M340 752L447 871L522 871L582 752L519 752L481 832L479 832L409 752L340 752M43 0L180 703L250 703L187 383L595 383L657 703L726 703L589 0L519 0L582 321L175 321L112 0L43 0Z"  horiz-adv-x="747" vert-adv-y="1000"  />

      
      <glyph glyph-name="uni0125" unicode="&#x0125;" d="M83 752L190 871L265 871L325 752L262 752L224 832L222 832L152 752L83 752M24 0L161 703L229 703L177 431L164 386L166 386Q191 433 251 474Q311 515 386 515Q456 515 493 482Q530 449 530 385Q530 357 522 319L461 0L393 0L451 301Q459 347 459 368Q459 409 435.50 430Q412 451 372 451Q290 451 222.50 386.50Q155 322 137 233L92 0L24 0Z"  horiz-adv-x="593" vert-adv-y="1000"  />

      
      <glyph glyph-name="uni0126" unicode="&#x0126;" d="M51 0L151 512L87 512L97 565L161 565L188 703L257 703L230 565L638 565L664 703L734 703L707 565L771 565L761 512L696 512L596 0L527 0L590 321L182 321L120 0L51 0M195 383L602 383L627 512L220 512L195 383Z"  horiz-adv-x="760" vert-adv-y="1000"  />

      
      <glyph glyph-name="uni0127" unicode="&#x0127;" d="M24 0L134 566L58 566L68 617L144 617L161 703L229 703L212 617L346 617L336 566L202 566L177 431L164 386L166 386Q191 433 251 474Q311 515 386 515Q456 515 493 482Q530 449 530 385Q530 357 522 319L461 0L393 0L451 301Q459 347 459 368Q459 409 435.50 430Q412 451 372 451Q290 451 222.50 386.50Q155 322 137 233L92 0L24 0Z"  horiz-adv-x="593" vert-adv-y="1000"  />

      
      <glyph glyph-name="uni0128" unicode="&#x0128;" d="M43 0L180 703L250 703L112 0L43 0M75 755Q96 871 181 871Q203 871 219.50 860Q236 849 244.50 835.50Q253 822 265.50 811Q278 800 291 800Q328 800 342 868L396 868Q373 752 289 752Q262 752 243.50 770Q225 788 210 805.50Q195 823 178 823Q159 823 146.50 802Q134 781 129 755L75 755Z"  horiz-adv-x="270" vert-adv-y="1000"  />

      
      <glyph glyph-name="uni0129" unicode="&#x0129;" d="M24 0L122 503L190 503L92 0L24 0M23 588Q44 704 129 704Q151 704 167.50 693Q184 682 192.50 668.50Q201 655 213.50 644Q226 633 239 633Q276 633 290 701L344 701Q321 585 237 585Q216 585 199.50 596Q183 607 174 620.50Q165 634 152.50 645Q140 656 126 656Q107 656 94.50 635Q82 614 77 588L23 588Z"  horiz-adv-x="230" vert-adv-y="1000"  />

      
      <glyph glyph-name="uni012A" unicode="&#x012A;" d="M43 0L180 703L250 703L112 0L43 0M107 785L117 840L363 840L354 785L107 785Z"  horiz-adv-x="270" vert-adv-y="1000"  />

      
      <glyph glyph-name="uni012B" unicode="&#x012B;" d="M24 0L122 503L190 503L92 0L24 0M55 618L65 673L311 673L302 618L55 618Z"  horiz-adv-x="230" vert-adv-y="1000"  />

      
      <glyph glyph-name="uni012C" unicode="&#x012C;" d="M43 0L180 703L250 703L112 0L43 0M227 749Q185 749 155 772Q125 795 125 837Q125 849 130 871L186 871Q181 853 181 842Q181 796 231 796Q258 796 279.50 814Q301 832 306 871L362 871Q354 808 316 778.50Q278 749 227 749Z"  horiz-adv-x="270" vert-adv-y="1000"  />

      
      <glyph glyph-name="uni012D" unicode="&#x012D;" d="M24 0L122 503L190 503L92 0L24 0M175 582Q133 582 103 605Q73 628 73 670Q73 682 78 704L134 704Q129 686 129 675Q129 629 179 629Q206 629 227.50 647Q249 665 254 704L310 704Q302 641 264 611.50Q226 582 175 582Z"  horiz-adv-x="230" vert-adv-y="1000"  />

      
      <glyph glyph-name="uni012E" unicode="&#x012E;" d="M-47-125Q-47-61 43 3L180 703L250 703L112 1L113 0Q18-62 18-108Q18-124 31-134.50Q44-145 58-147L71-149L45-205Q41-205 35-204Q29-203 13-198Q-3-193-15-185.50Q-27-178-37-162Q-47-146-47-125Z"  horiz-adv-x="272" vert-adv-y="1000"  />

      
      <glyph glyph-name="uni012F" unicode="&#x012F;" d="M-68-125Q-68-60 25 5L122 503L191 503L92 0Q-3-62-3-108Q-3-124 10.50-134.50Q24-145 37-147L50-149L24-205Q20-205 14-204Q8-203-8-198Q-24-193-36-185.50Q-48-178-58-162Q-68-146-68-125M142 618L159 703L232 703L215 618L142 618Z"  horiz-adv-x="230" vert-adv-y="1000"  />

      
      <glyph glyph-name="uni0130" unicode="&#x0130;" d="M43 0L180 703L250 703L112 0L43 0M199 786L215 871L280 871L264 786L199 786Z"  horiz-adv-x="270" vert-adv-y="1000"  />

      
      <glyph glyph-name="uni0131" unicode="&#x0131;" d="M24 0L122 503L190 503L92 0L24 0Z"  horiz-adv-x="230" vert-adv-y="1000"  />

      
      <glyph glyph-name="uni0132" unicode="&#x0132;" d="M213-5L225 59Q371 59 405 228L497 703L566 703L474 228Q460 157 433.50 109Q407 61 370 37Q333 13 296 4Q259-5 213-5M43 0L180 703L250 703L112 0L43 0Z"  horiz-adv-x="581" vert-adv-y="1000"  />

      
      <glyph glyph-name="uni0133" unicode="&#x0133;" d="M142 618L159 703L232 703L215 618L142 618M24 0L122 503L191 503L92 0L24 0M371 618L387 703L461 703L444 618L371 618M251-16L352 503L420 503L319-18Q307-77 282-117.50Q257-158 225.50-175.50Q194-193 169-199.50Q144-206 119-206Q98-206 78-203L90-143Q98-145 112-145Q130-145 147.50-140.50Q165-136 187-124Q209-112 226-84Q243-56 251-16Z"  horiz-adv-x="461" vert-adv-y="1000"  />

      
      <glyph glyph-name="uni0134" unicode="&#x0134;" d="M265 752L372 871L447 871L507 752L444 752L406 832L404 832L334 752L265 752M5 147Q5 166 11 199L15 225L85 225L80 200Q76 170 76 157Q76 53 179 53Q232 53 276.50 87.50Q321 122 335 197L420 641L250 641L262 703L502 703L402 190Q382 86 319 37Q256-12 178-12Q104-12 54.50 27.50Q5 67 5 147Z"  horiz-adv-x="517" vert-adv-y="1000"  />

      
      <glyph glyph-name="uni0135" unicode="&#x0135;" d="M45 584L153 703L228 703L288 584L225 584L187 665L185 665L115 584L45 584M21-16L122 503L191 503L89-18Q78-77 53-117.50Q28-158-3.50-175.50Q-35-193-60-199.50Q-85-206-111-206L-151-203L-139-143Q-131-145-117-145Q-99-145-81.50-140.50Q-64-136-42.50-124Q-21-112-4-84Q13-56 21-16Z"  horiz-adv-x="231" vert-adv-y="1000"  />

      
      <glyph glyph-name="uni0136" unicode="&#x0136;" d="M210-63L276-63L276-77Q276-132 232-202L176-202Q213-139 213-91Q213-78 210-63M43 0L180 703L250 703L190 398L304 398L557 703L639 703L360 368L360 366L513 0L438 0L301 336L178 336L112 0L43 0Z"  horiz-adv-x="590" vert-adv-y="1000"  />

      
      <glyph glyph-name="uni0137" unicode="&#x0137;" d="M169-63L235-63L235-77Q235-132 191-202L135-202Q172-139 172-91Q172-78 169-63M24 0L162 703L230 703L153 311L230 311L419 503L505 503L286 282L286 280L422 0L348 0L228 251L142 251L92 0L24 0Z"  horiz-adv-x="495" vert-adv-y="1000"  />

      
      <glyph glyph-name="uni0138" unicode="&#x0138;" d="M24 0L122 503L190 503L150 297L229 297L428 503L515 503L283 266L283 264L413 0L337 0L225 238L139 238L92 0L24 0Z"  horiz-adv-x="496" vert-adv-y="1000"  />

      
      <glyph glyph-name="uni0139" unicode="&#x0139;" d="M192 752L285 871L369 871L258 752L192 752M43 0L180 703L250 703L124 62L450 62L437 0L43 0Z"  horiz-adv-x="508" vert-adv-y="1000"  />

      
      <glyph glyph-name="uni013A" unicode="&#x013A;" d="M168 752L261 871L345 871L234 752L168 752M44 89Q44 106 48 125L160 703L229 703L118 134Q115 118 115 103Q115 83 123 72.50Q131 62 140 60Q149 58 162 58Q169 58 176 59L163-2Q155-4 140-4Q102-4 73 16.50Q44 37 44 89Z"  horiz-adv-x="251" vert-adv-y="1000"  />

      
      <glyph glyph-name="uni013B" unicode="&#x013B;" d="M204-63L270-63L270-77Q270-132 226-202L170-202Q207-139 207-91Q207-78 204-63M43 0L180 703L250 703L124 62L450 62L437 0L43 0Z"  horiz-adv-x="508" vert-adv-y="1000"  />

      
      <glyph glyph-name="uni013C" unicode="&#x013C;" d="M49-63L115-63L115-77Q115-132 71-202L15-202Q52-139 52-91Q52-78 49-63M44 89Q44 106 48 125L160 703L229 703L118 134Q115 118 115 103Q115 83 123 72.50Q131 62 140 60Q149 58 162 58Q169 58 176 59L163-2Q155-4 140-4Q102-4 73 16.50Q44 37 44 89Z"  horiz-adv-x="251" vert-adv-y="1000"  />

      
      <glyph glyph-name="uni013D" unicode="&#x013D;" d="M342 702L408 702L408 688Q408 633 364 563L308 563Q345 626 345 674Q345 687 342 702M43 0L180 703L250 703L124 62L450 62L437 0L43 0Z"  horiz-adv-x="508" vert-adv-y="1000"  />

      
      <glyph glyph-name="uni013E" unicode="&#x013E;" d="M290 702L356 702L356 688Q356 633 312 563L256 563Q293 626 293 674Q293 687 290 702M44 89Q44 106 48 125L160 703L229 703L118 134Q115 118 115 103Q115 83 123 72.50Q131 62 140 60Q149 58 162 58Q169 58 176 59L163-2Q155-4 140-4Q102-4 73 16.50Q44 37 44 89Z"  horiz-adv-x="255" vert-adv-y="1000"  />

      
      <glyph glyph-name="uni013F" unicode="&#x013F;" d="M43 0L180 703L250 703L124 62L450 62L437 0L43 0M280 329L295 412L376 412L360 329L280 329Z"  horiz-adv-x="509" vert-adv-y="1000"  />

      
      <glyph glyph-name="uni0140" unicode="&#x0140;" d="M44 89Q44 106 48 125L160 703L229 703L118 134Q115 118 115 103Q115 83 123 72.50Q131 62 140 60Q149 58 162 58Q169 58 176 59L163-2Q155-4 140-4Q102-4 73 16.50Q44 37 44 89M224 329L239 412L320 412L304 329L224 329Z"  horiz-adv-x="287" vert-adv-y="1000"  />

      
      <glyph glyph-name="uni0141" unicode="&#x0141;" d="M50 0L116 337L47 302L60 372L130 409L188 703L257 703L207 449L331 513L318 442L193 377L132 62L457 62L445 0L50 0Z"  horiz-adv-x="515" vert-adv-y="1000"  />

      
      <glyph glyph-name="uni0142" unicode="&#x0142;" d="M55 89Q55 97 59 125L103 351L15 306L28 376L117 423L172 703L240 703L193 462L291 513L276 442L179 391L130 134Q126 119 126 103Q126 83 134 72.50Q142 62 151 60Q160 58 173 58Q181 58 188 59L175-2Q165-4 152-4Q114-4 84.50 16.50Q55 37 55 89Z"  horiz-adv-x="264" vert-adv-y="1000"  />

      
      <glyph glyph-name="uni0143" unicode="&#x0143;" d="M428 752L521 871L605 871L494 752L428 752M43 0L180 703L242 703L503 197L542 102L544 102Q548 160 556 197L654 703L724 703L586 0L525 0L264 506L225 601L223 601Q218 543 211 506L112 0L43 0Z"  horiz-adv-x="744" vert-adv-y="1000"  />

      
      <glyph glyph-name="uni0144" unicode="&#x0144;" d="M332 585L425 704L509 704L398 585L332 585M24 0L122 503L189 503L176 431L162 384L164 384Q188 431 249 473Q310 515 386 515Q456 515 493 482Q530 449 530 385Q530 357 522 319L461 0L393 0L451 301Q459 347 459 368Q459 409 435.50 430Q412 451 372 451Q289 451 222 386.50Q155 322 137 233L92 0L24 0Z"  horiz-adv-x="593" vert-adv-y="1000"  />

      
      <glyph glyph-name="uni0145" unicode="&#x0145;" d="M274-63L340-63L340-77Q340-132 296-202L240-202Q277-139 277-91Q277-78 274-63M43 0L180 703L242 703L503 197L542 102L544 102Q548 160 556 197L654 703L724 703L586 0L525 0L264 506L225 601L223 601Q218 543 211 506L112 0L43 0Z"  horiz-adv-x="744" vert-adv-y="1000"  />

      
      <glyph glyph-name="uni0146" unicode="&#x0146;" d="M206-63L272-63L272-77Q272-132 228-202L172-202Q209-139 209-91Q209-78 206-63M24 0L122 503L189 503L176 431L162 384L164 384Q188 431 249 473Q310 515 386 515Q456 515 493 482Q530 449 530 385Q530 357 522 319L461 0L393 0L451 301Q459 347 459 368Q459 409 435.50 430Q412 451 372 451Q289 451 222 386.50Q155 322 137 233L92 0L24 0Z"  horiz-adv-x="593" vert-adv-y="1000"  />

      
      <glyph glyph-name="uni0147" unicode="&#x0147;" d="M429 752L369 871L432 871L470 791L472 791L542 871L611 871L504 752L429 752M43 0L180 703L242 703L503 197L542 102L544 102Q548 160 556 197L654 703L724 703L586 0L525 0L264 506L225 601L223 601Q218 543 211 506L112 0L43 0Z"  horiz-adv-x="744" vert-adv-y="1000"  />

      
      <glyph glyph-name="uni0148" unicode="&#x0148;" d="M333 585L273 704L336 704L374 624L376 624L446 704L515 704L408 585L333 585M24 0L122 503L189 503L176 431L162 384L164 384Q188 431 249 473Q310 515 386 515Q456 515 493 482Q530 449 530 385Q530 357 522 319L461 0L393 0L451 301Q459 347 459 368Q459 409 435.50 430Q412 451 372 451Q289 451 222 386.50Q155 322 137 233L92 0L24 0Z"  horiz-adv-x="593" vert-adv-y="1000"  />

      
      <glyph glyph-name="uni0149" unicode="&#x0149;" d="M98 702L164 702L164 688Q164 633 120 563L64 563Q101 626 101 674Q101 687 98 702M24 0L122 503L189 503L176 431L162 384L164 384Q188 431 249 473Q310 515 386 515Q456 515 493 482Q530 449 530 385Q530 357 522 319L461 0L393 0L451 301Q459 347 459 368Q459 409 435.50 430Q412 451 372 451Q289 451 222 386.50Q155 322 137 233L92 0L24 0Z"  horiz-adv-x="593" vert-adv-y="1000"  />

      
      <glyph glyph-name="uni014A" unicode="&#x014A;" d="M43 0L180 703L242 703L503 197L542 102L544 102Q548 160 556 197L654 703L724 703L591 28Q577-44 550-92.50Q523-141 486-164.50Q449-188 413-196.50Q377-205 331-205L343-141Q482-141 519 11L264 506L225 601L223 601Q218 543 211 506L112 0L43 0Z"  horiz-adv-x="744" vert-adv-y="1000"  />

      
      <glyph glyph-name="uni014B" unicode="&#x014B;" d="M24 0L122 503L189 503L176 431L162 384L164 384Q188 431 249 473Q310 515 386 515Q456 515 493 482Q530 449 530 385Q530 357 522 319L456-22Q445-81 420-121.50Q395-162 363.50-179.50Q332-197 307-203.50Q282-210 256-210L216-207L228-148Q237-149 250-149Q268-149 285.50-144.50Q303-140 325-128Q347-116 364-88Q381-60 389-20L451 301Q459 347 459 368Q459 409 435.50 430Q412 451 372 451Q289 451 222 386.50Q155 322 137 233L92 0L24 0Z"  horiz-adv-x="593" vert-adv-y="1000"  />

      
      <glyph glyph-name="uni014C" unicode="&#x014C;" d="M383 785L393 840L639 840L630 785L383 785M60 292Q60 403 120.50 501.50Q181 600 278.50 657.50Q376 715 482 715Q618 715 703 632Q788 549 788 419Q788 306 727 205.50Q666 105 568.50 46.50Q471-12 366-12Q230-12 145 73Q60 158 60 292M132 294Q132 188 197 120.50Q262 53 366 53Q500 53 608 161.50Q716 270 716 416Q716 519 650.50 584.50Q585 650 482 650Q347 650 239.50 544Q132 438 132 294Z"  horiz-adv-x="825" vert-adv-y="1000"  />

      
      <glyph glyph-name="uni014D" unicode="&#x014D;" d="M251 618L261 673L507 673L498 618L251 618M34 208Q34 334 128 424.50Q222 515 343 515Q445 515 509 454.50Q573 394 573 298Q573 171 478 79.50Q383-12 264-12Q162-12 98 49.50Q34 111 34 208M104 210Q104 139 149 94.50Q194 50 265 50Q356 50 429.50 122Q503 194 503 295Q503 365 458 409.50Q413 454 342 454Q250 454 177 382Q104 310 104 210Z"  horiz-adv-x="624" vert-adv-y="1000"  />

      
      <glyph glyph-name="uni014E" unicode="&#x014E;" d="M60 292Q60 403 120.50 501.50Q181 600 278.50 657.50Q376 715 482 715Q618 715 703 632Q788 549 788 419Q788 306 727 205.50Q666 105 568.50 46.50Q471-12 366-12Q230-12 145 73Q60 158 60 292M132 294Q132 188 197 120.50Q262 53 366 53Q500 53 608 161.50Q716 270 716 416Q716 519 650.50 584.50Q585 650 482 650Q347 650 239.50 544Q132 438 132 294M504 749Q462 749 432 772Q402 795 402 837Q402 849 407 871L463 871Q458 853 458 842Q458 796 508 796Q535 796 556.50 814Q578 832 583 871L639 871Q631 808 593 778.50Q555 749 504 749Z"  horiz-adv-x="825" vert-adv-y="1000"  />

      
      </font>
</defs>
</svg>
