<svg width="72" height="72" viewBox="0 0 72 72" fill="none" xmlns="http://www.w3.org/2000/svg">
<path d="M72 36C72 55.8823 55.8823 72 36 72C16.1177 72 0 55.8823 0 36C0 16.1177 16.1177 0 36 0C55.8823 0 72 16.1177 72 36Z" fill="#46BB0C"/>
<g clip-path="url(#clip0_30_1525)">
<path fill-rule="evenodd" clip-rule="evenodd" d="M19.7647 40.0251L50.3313 22.1101C50.8166 21.825 51.3748 21.825 51.86 22.1101C52.3471 22.3952 52.6244 22.886 52.6244 23.4544V31.0964C52.6244 31.6667 52.3453 32.1557 51.86 32.4408L21.2934 50.3558C20.8064 50.6409 20.25 50.6409 19.7647 50.3558C19.2777 50.0707 19.0004 49.5816 19.0004 49.0114V41.3694C19.0004 40.7992 19.2794 40.3102 19.7647 40.0251Z" fill="white"/>
<path fill-rule="evenodd" clip-rule="evenodd" d="M19.7645 21.3679L38.7949 10.2143C39.282 9.92921 39.8383 9.92921 40.3236 10.2143C40.8106 10.4994 41.0879 10.9884 41.0879 11.5587V19.2007C41.0879 19.7709 40.8106 20.2599 40.3236 20.545L21.2932 31.6986C20.8062 31.9837 20.2498 31.9837 19.7645 31.6986C19.2775 31.4135 19.0002 30.9245 19.0002 30.3542V22.7122C19.0002 22.142 19.2775 21.653 19.7645 21.3679Z" fill="white"/>
<path fill-rule="evenodd" clip-rule="evenodd" d="M31.301 51.4545L50.3314 40.301C50.8166 40.0159 51.3748 40.0159 51.86 40.301C52.3471 40.5861 52.6244 41.0769 52.6244 41.6453V50.1842L57.9979 54.441H45.3613L32.8279 61.7871C32.3408 62.0722 31.7845 62.0722 31.2974 61.7871C30.8122 61.5019 30.5331 61.0129 30.5331 60.4427V52.8007C30.5331 52.2305 30.8122 51.7415 31.2974 51.4564L31.301 51.4545Z" fill="white"/>
</g>
<defs>
<clipPath id="clip0_30_1525">
<rect width="39" height="52" fill="white" transform="translate(19 10)"/>
</clipPath>
</defs>
</svg>
