<svg width="88" height="40" viewBox="0 0 88 40" fill="none" xmlns="http://www.w3.org/2000/svg">
<path fill-rule="evenodd" clip-rule="evenodd" d="M13.2786 19.274L7.63921 13.635L6.97061 19.093L7.63921 24.9134L13.2786 19.274Z" fill="#A0D008"/>
<path fill-rule="evenodd" clip-rule="evenodd" d="M21.2742 0L15.6348 5.6394L21.273 6.514L26.9134 5.6394L21.2742 0Z" fill="#652E93"/>
<path fill-rule="evenodd" clip-rule="evenodd" d="M4.40562 8.051V5.6452L2.00002 8.051H4.40562Z" fill="#FFCC00"/>
<path fill-rule="evenodd" clip-rule="evenodd" d="M15.6204 24.928H7.64522L11.0798 29.1856L15.6204 32.903V24.928Z" fill="#652E93"/>
<path fill-rule="evenodd" clip-rule="evenodd" d="M42.2462 19.274L36.6068 13.635L35.758 14.727L40.3052 19.274L35.758 23.8214L36.6068 24.9134L42.2462 19.274Z" fill="#FFCC00"/>
<path fill-rule="evenodd" clip-rule="evenodd" d="M2.00002 19.274L7.63921 13.635V24.9134L2.00002 19.274Z" fill="#46BB0C"/>
<path fill-rule="evenodd" clip-rule="evenodd" d="M21.2742 13.635L26.9134 19.274L21.1208 20.2002L15.6348 19.274L21.2742 13.635Z" fill="#46BB0C"/>
<path fill-rule="evenodd" clip-rule="evenodd" d="M21.2742 24.9134L26.9134 19.274H15.6348L21.2742 24.9134Z" fill="#A0D008"/>
<path fill-rule="evenodd" clip-rule="evenodd" d="M21.2742 27.2698L26.9134 32.909L21.3782 33.7322L15.6348 32.909L21.2742 27.2698Z" fill="#FFA12E"/>
<path fill-rule="evenodd" clip-rule="evenodd" d="M26.9134 24.928V32.9028L31.6424 29.4088L34.8884 24.9278L26.9134 24.928Z" fill="#FFCC00"/>
<path fill-rule="evenodd" clip-rule="evenodd" d="M26.9134 13.6144V5.63922L31.49 9.08402L34.8884 13.6144H26.9134Z" fill="#A0D008"/>
<path fill-rule="evenodd" clip-rule="evenodd" d="M34.8884 5.63922H26.9134L34.8884 13.6144V5.63922Z" fill="#2E2E2E"/>
<path fill-rule="evenodd" clip-rule="evenodd" d="M11.68 34.5134V38.5482L7.64542 34.5134H11.68Z" fill="#61C000"/>
<path fill-rule="evenodd" clip-rule="evenodd" d="M36.6068 29.8572V32.9028L39.6526 29.8572H36.6068Z" fill="#61C000"/>
<path fill-rule="evenodd" clip-rule="evenodd" d="M30.8536 4.0348V0L34.8884 4.0348H30.8536Z" fill="#61C000"/>
<path fill-rule="evenodd" clip-rule="evenodd" d="M15.6204 13.6144V5.63922L10.9234 9.15282L7.64522 13.6144H15.6204Z" fill="#27AAE2"/>
<path fill-rule="evenodd" clip-rule="evenodd" d="M7.64522 32.903V24.928L15.6204 32.903H7.64522Z" fill="#2E2E2E"/>
<path fill-rule="evenodd" clip-rule="evenodd" d="M7.64522 5.6452H15.6204L7.64522 13.6204V5.6452Z" fill="#2E2E2E"/>
<path fill-rule="evenodd" clip-rule="evenodd" d="M21.2742 38.5482L26.9134 32.909H15.6348L21.2742 38.5482Z" fill="#EE5B25"/>
<path fill-rule="evenodd" clip-rule="evenodd" d="M21.2742 11.2786L15.6348 5.6394H26.9134L21.2742 11.2786Z" fill="#942490"/>
<path fill-rule="evenodd" clip-rule="evenodd" d="M29.2698 19.274L34.909 13.635V24.9134L29.2698 19.274Z" fill="#A0D008"/>
<path fill-rule="evenodd" clip-rule="evenodd" d="M34.8884 32.9028H26.9134L34.8884 24.9278V32.9028Z" fill="#2E2E2E"/>
<path d="M57.177 10.2392H55.1516V18.0318H57.177V10.2392Z" fill="#A0D008"/>
<path d="M60.5706 14.2906V18.0318H62.5962V14.2906L65.4692 10.2392H63.0406L61.5834 12.3578L60.126 10.2392H57.6972L60.5706 14.2906Z" fill="#262626"/>
<path d="M68.9698 9.98102C66.727 9.98102 64.66 11.6344 64.66 13.991C64.66 16.5126 66.4686 18.2902 68.9698 18.2902C71.4706 18.2902 73.2794 16.5126 73.2794 13.991C73.2794 11.6344 71.2124 9.98102 68.9698 9.98102ZM68.9698 11.9446C70.179 11.9446 71.171 12.9264 71.171 14.0012C71.171 15.3448 70.179 16.3266 68.9698 16.3266C67.7606 16.3266 66.7682 15.3448 66.7682 14.0012C66.7682 12.9264 67.7606 11.9446 68.9698 11.9446Z" fill="#942490"/>
<path d="M50.9278 16.3162L54.5968 10.2392H48.1476V11.9548H51.2068L47.5174 18.0318H54.1936V16.3162H50.9278Z" fill="#262626"/>
<path d="M52.1024 22.232V20.5164H47.6274V28.3092H49.6532V25.2498H51.8752V23.5342H49.6532V22.232H52.1024Z" fill="#262626"/>
<path d="M76.9 28.3092H78.9154L79.5666 23.8236H79.5872L81.3752 28.3092H82.1812L84.052 23.8236H84.0726L84.641 28.3092H86.6666L85.4884 20.5164H83.4732L81.799 24.6814L80.2176 20.5164H78.223L76.9 28.3092Z" fill="#262626"/>
<path d="M74.1314 20.5164V24.6194C74.1314 25.6324 74.0592 26.7382 72.757 26.7382C71.4548 26.7382 71.3824 25.6324 71.3824 24.6194V20.5164H69.3568V24.8984C69.3568 25.901 69.4 26.8912 70.1732 27.6476C70.8262 28.2864 71.8476 28.5158 72.757 28.5158C73.6664 28.5158 74.6878 28.2864 75.3406 27.6476C76.114 26.8912 76.1572 25.901 76.1572 24.8984V20.5164H74.1314Z" fill="#652E93"/>
<path d="M57.2012 20.258C54.9586 20.258 52.8914 21.9116 52.8914 24.268C52.8914 26.7898 54.7 28.5674 57.2012 28.5674C59.7022 28.5674 61.5108 26.7898 61.5108 24.268C61.5108 21.9116 59.4438 20.258 57.2012 20.258V20.258ZM57.2012 22.2218C58.4104 22.2218 59.4024 23.2036 59.4024 24.2784C59.4024 25.622 58.4104 26.6038 57.2012 26.6038C55.992 26.6038 54.9998 25.622 54.9998 24.2784C54.9998 23.2036 55.992 22.2218 57.2012 22.2218Z" fill="#EE5B25"/>
<path d="M66.5922 25.1156C67.698 24.9192 68.2976 23.989 68.2976 22.9142C68.2976 21.2502 67.1296 20.5164 65.5896 20.5164H62.5616V28.3092H64.5872V25.312H64.6078L66.5198 28.3092H69.0416L66.5922 25.1156V25.1156ZM64.5872 22.0668H64.7836C65.445 22.0668 66.1892 22.1908 66.1892 23.0382C66.1892 23.8856 65.445 24.0096 64.7836 24.0096H64.5872V22.0668V22.0668Z" fill="#262626"/>
</svg>
